<mxfile host="Electron" agent="Mozilla/5.0 (Windows NT 10.0; Win64; x64) AppleWebKit/537.36 (KHTML, like Gecko) draw.io/26.0.4 Chrome/128.0.6613.186 Electron/32.2.5 Safari/537.36" version="26.0.4" pages="5">
  <diagram id="x3YOomKscaKBza0ongTU" name="sse-websockets-stomp">
    <mxGraphModel dx="2367" dy="1383" grid="1" gridSize="10" guides="1" tooltips="1" connect="1" arrows="1" fold="1" page="1" pageScale="1" pageWidth="1169" pageHeight="827" math="0" shadow="0">
      <root>
        <mxCell id="0" />
        <mxCell id="1" parent="0" />
        <mxCell id="u_CrRiMpIKxcChkb7vaz-1" value="response" style="edgeStyle=orthogonalEdgeStyle;rounded=0;sketch=1;hachureGap=4;jiggle=2;curveFitting=1;orthogonalLoop=1;jettySize=auto;html=1;fontFamily=Architects Daughter;fontSource=https://fonts.googleapis.com/css?family=Architects+Daughter;endArrow=open;endFill=0;endSize=10;fontSize=20;disableMultiStroke=1;entryX=0.003;entryY=0.237;entryDx=0;entryDy=0;entryPerimeter=0;exitX=1.005;exitY=0.408;exitDx=0;exitDy=0;exitPerimeter=0;" edge="1" parent="1" source="u_CrRiMpIKxcChkb7vaz-6" target="u_CrRiMpIKxcChkb7vaz-7">
          <mxGeometry relative="1" as="geometry">
            <mxPoint x="870.03" y="180" as="targetPoint" />
            <mxPoint x="570.03" y="190" as="sourcePoint" />
            <Array as="points">
              <mxPoint x="570" y="178" />
              <mxPoint x="570" y="180" />
              <mxPoint x="820" y="180" />
              <mxPoint x="820" y="186" />
            </Array>
          </mxGeometry>
        </mxCell>
        <mxCell id="u_CrRiMpIKxcChkb7vaz-2" value="API" style="swimlane;whiteSpace=wrap;html=1;sketch=1;hachureGap=4;jiggle=2;curveFitting=1;fontFamily=Architects Daughter;fontSource=https://fonts.googleapis.com/css?family=Architects+Daughter;fontSize=20;" vertex="1" parent="1">
          <mxGeometry x="350" y="114" width="260" height="406" as="geometry" />
        </mxCell>
        <mxCell id="u_CrRiMpIKxcChkb7vaz-3" value="event&lt;br&gt;Stream" style="ellipse;whiteSpace=wrap;html=1;aspect=fixed;sketch=1;hachureGap=4;jiggle=2;curveFitting=1;fontFamily=Architects Daughter;fontSource=https%3A%2F%2Ffonts.googleapis.com%2Fcss%3Ffamily%3DArchitects%2BDaughter;fontSize=20;strokeColor=#0000FF;fontColor=#0000FF;" vertex="1" parent="u_CrRiMpIKxcChkb7vaz-2">
          <mxGeometry x="40" y="179" width="161" height="161" as="geometry" />
        </mxCell>
        <mxCell id="u_CrRiMpIKxcChkb7vaz-4" value="" style="edgeStyle=isometricEdgeStyle;endArrow=open;html=1;rounded=0;sketch=1;hachureGap=4;jiggle=2;curveFitting=1;fontFamily=Architects Daughter;fontSource=https%3A%2F%2Ffonts.googleapis.com%2Fcss%3Ffamily%3DArchitects%2BDaughter;endFill=0;endSize=20;entryX=0;entryY=0.5;entryDx=0;entryDy=0;strokeColor=#0000FF;" edge="1" parent="u_CrRiMpIKxcChkb7vaz-2" target="u_CrRiMpIKxcChkb7vaz-3">
          <mxGeometry width="50" height="100" relative="1" as="geometry">
            <mxPoint x="-120" y="279" as="sourcePoint" />
            <mxPoint y="249" as="targetPoint" />
          </mxGeometry>
        </mxCell>
        <mxCell id="u_CrRiMpIKxcChkb7vaz-5" value="&lt;span style=&quot;text-align: left; text-wrap: wrap;&quot;&gt;externalEvent&lt;/span&gt;" style="edgeLabel;html=1;align=center;verticalAlign=middle;resizable=0;points=[];sketch=1;hachureGap=4;jiggle=2;curveFitting=1;fontFamily=Architects Daughter;fontSource=https%3A%2F%2Ffonts.googleapis.com%2Fcss%3Ffamily%3DArchitects%2BDaughter;fontSize=20;labelBackgroundColor=none;fontColor=#0000FF;" vertex="1" connectable="0" parent="u_CrRiMpIKxcChkb7vaz-4">
          <mxGeometry x="0.2162" y="-1" relative="1" as="geometry">
            <mxPoint x="-58" y="13" as="offset" />
          </mxGeometry>
        </mxCell>
        <mxCell id="u_CrRiMpIKxcChkb7vaz-6" value="endpoint" style="ellipse;whiteSpace=wrap;html=1;aspect=fixed;sketch=1;hachureGap=4;jiggle=2;curveFitting=1;fontFamily=Architects Daughter;fontSource=https%3A%2F%2Ffonts.googleapis.com%2Fcss%3Ffamily%3DArchitects%2BDaughter;fontSize=20;" vertex="1" parent="u_CrRiMpIKxcChkb7vaz-2">
          <mxGeometry x="60" y="26" width="94" height="94" as="geometry" />
        </mxCell>
        <mxCell id="u_CrRiMpIKxcChkb7vaz-7" value="&lt;font color=&quot;#000000&quot;&gt;&lt;b&gt;UI&lt;/b&gt;&lt;/font&gt;" style="strokeWidth=1;shadow=0;dashed=0;align=center;html=1;shape=mxgraph.mockup.containers.window;align=left;verticalAlign=top;spacingLeft=8;strokeColor2=#008cff;strokeColor3=#c4c4c4;fontColor=#666666;mainText=;fontSize=17;labelBackgroundColor=none;whiteSpace=wrap;sketch=1;hachureGap=4;jiggle=2;curveFitting=1;fontFamily=Architects Daughter;fontSource=https://fonts.googleapis.com/css?family=Architects+Daughter;" vertex="1" parent="1">
          <mxGeometry x="850" y="110" width="280" height="410" as="geometry" />
        </mxCell>
        <mxCell id="u_CrRiMpIKxcChkb7vaz-8" value="pushedEvent" style="edgeStyle=orthogonalEdgeStyle;rounded=0;sketch=1;hachureGap=4;jiggle=2;curveFitting=1;orthogonalLoop=1;jettySize=auto;html=1;fontFamily=Architects Daughter;fontSource=https://fonts.googleapis.com/css?family=Architects+Daughter;endArrow=open;endFill=0;endSize=10;fontSize=20;exitX=0.708;exitY=0.969;exitDx=0;exitDy=0;entryX=0.004;entryY=0.829;entryDx=0;entryDy=0;entryPerimeter=0;disableMultiStroke=1;strokeColor=#0000FF;fontColor=#0000FF;exitPerimeter=0;" edge="1" parent="1" source="u_CrRiMpIKxcChkb7vaz-3" target="u_CrRiMpIKxcChkb7vaz-7">
          <mxGeometry relative="1" as="geometry">
            <mxPoint x="854.94" y="378" as="targetPoint" />
            <mxPoint x="560" y="341.5" as="sourcePoint" />
          </mxGeometry>
        </mxCell>
        <mxCell id="u_CrRiMpIKxcChkb7vaz-9" value="request" style="edgeStyle=orthogonalEdgeStyle;rounded=0;sketch=1;hachureGap=4;jiggle=2;curveFitting=1;orthogonalLoop=1;jettySize=auto;html=1;fontFamily=Architects Daughter;fontSource=https://fonts.googleapis.com/css?family=Architects+Daughter;endArrow=open;endFill=0;endSize=10;fontSize=20;exitX=0.005;exitY=0.362;exitDx=0;exitDy=0;exitPerimeter=0;dashed=1;entryX=0.843;entryY=0.914;entryDx=0;entryDy=0;entryPerimeter=0;disableMultiStroke=1;" edge="1" parent="1" source="u_CrRiMpIKxcChkb7vaz-7" target="u_CrRiMpIKxcChkb7vaz-6">
          <mxGeometry relative="1" as="geometry">
            <mxPoint x="497.04399999999987" y="218.038" as="targetPoint" />
            <mxPoint x="853.9000000000001" y="215.12000000000012" as="sourcePoint" />
          </mxGeometry>
        </mxCell>
        <mxCell id="u_CrRiMpIKxcChkb7vaz-10" value="subscribe" style="edgeStyle=orthogonalEdgeStyle;rounded=0;sketch=1;hachureGap=4;jiggle=2;curveFitting=1;orthogonalLoop=1;jettySize=auto;html=1;fontFamily=Architects Daughter;fontSource=https://fonts.googleapis.com/css?family=Architects+Daughter;endArrow=open;endFill=0;endSize=10;fontSize=20;dashed=1;entryX=0.944;entryY=0.292;entryDx=0;entryDy=0;disableMultiStroke=1;fontColor=#0000FF;strokeColor=#0000FF;exitX=0.007;exitY=0.561;exitDx=0;exitDy=0;exitPerimeter=0;entryPerimeter=0;" edge="1" parent="1" source="u_CrRiMpIKxcChkb7vaz-7" target="u_CrRiMpIKxcChkb7vaz-3">
          <mxGeometry relative="1" as="geometry">
            <mxPoint x="527.4220958855153" y="341.5779041144847" as="targetPoint" />
            <mxPoint x="850" y="342" as="sourcePoint" />
          </mxGeometry>
        </mxCell>
        <mxCell id="IJqBc1URIt_p2lZqbBoP-1" value="MongoDb" style="shape=cylinder3;whiteSpace=wrap;html=1;boundedLbl=1;backgroundOutline=1;size=15;sketch=1;hachureGap=4;jiggle=2;curveFitting=1;fontFamily=Architects Daughter;fontSource=https%3A%2F%2Ffonts.googleapis.com%2Fcss%3Ffamily%3DArchitects%2BDaughter;fontSize=20;" vertex="1" parent="1">
          <mxGeometry x="40" y="260" width="143" height="170" as="geometry" />
        </mxCell>
        <mxCell id="IJqBc1URIt_p2lZqbBoP-2" value="" style="edgeStyle=orthogonalEdgeStyle;rounded=0;sketch=1;hachureGap=4;jiggle=2;curveFitting=1;orthogonalLoop=1;jettySize=auto;html=1;fontFamily=Architects Daughter;fontSource=https://fonts.googleapis.com/css?family=Architects+Daughter;endArrow=none;endFill=0;endSize=10;fontSize=20;exitX=1.007;exitY=0.776;exitDx=0;exitDy=0;exitPerimeter=0;strokeColor=#0000FF;" edge="1" parent="1" source="IJqBc1URIt_p2lZqbBoP-1">
          <mxGeometry relative="1" as="geometry">
            <mxPoint x="235" y="391" as="targetPoint" />
            <mxPoint x="200" y="400" as="sourcePoint" />
          </mxGeometry>
        </mxCell>
        <mxCell id="IJqBc1URIt_p2lZqbBoP-5" value="message" style="edgeStyle=orthogonalEdgeStyle;rounded=0;sketch=1;hachureGap=4;jiggle=2;curveFitting=1;orthogonalLoop=1;jettySize=auto;html=1;fontFamily=Architects Daughter;fontSource=https://fonts.googleapis.com/css?family=Architects+Daughter;endArrow=open;endFill=0;endSize=10;fontSize=20;dashed=1;entryX=1;entryY=0.5;entryDx=0;entryDy=0;disableMultiStroke=1;fontColor=#0000FF;strokeColor=#0000FF;exitX=-0.014;exitY=0.649;exitDx=0;exitDy=0;exitPerimeter=0;" edge="1" parent="1" source="u_CrRiMpIKxcChkb7vaz-7" target="u_CrRiMpIKxcChkb7vaz-3">
          <mxGeometry relative="1" as="geometry">
            <mxPoint x="373" y="323" as="targetPoint" />
            <mxPoint x="847" y="325" as="sourcePoint" />
          </mxGeometry>
        </mxCell>
        <mxCell id="_yjce0pQz_h5Eg_Jqg03-1" value="" style="endArrow=none;html=1;rounded=0;sketch=1;hachureGap=4;jiggle=2;curveFitting=1;fontFamily=Architects Daughter;fontSource=https%3A%2F%2Ffonts.googleapis.com%2Fcss%3Ffamily%3DArchitects%2BDaughter;entryX=0.795;entryY=0.1;entryDx=0;entryDy=0;fontColor=#0000FF;strokeColor=#0000FF;entryPerimeter=0;" edge="1" parent="1" source="_yjce0pQz_h5Eg_Jqg03-11" target="_yjce0pQz_h5Eg_Jqg03-2">
          <mxGeometry width="50" height="50" relative="1" as="geometry">
            <mxPoint x="680" y="460" as="sourcePoint" />
            <mxPoint x="782" y="548" as="targetPoint" />
          </mxGeometry>
        </mxCell>
        <mxCell id="_yjce0pQz_h5Eg_Jqg03-2" value="SSE - Websockets - STOMP mechanisms used to handle this integration" style="text;whiteSpace=wrap;fontFamily=Architects Daughter;fontSource=https%3A%2F%2Ffonts.googleapis.com%2Fcss%3Ffamily%3DArchitects%2BDaughter;fontStyle=1;fontSize=14;fontColor=#0000FF;" vertex="1" parent="1">
          <mxGeometry x="8" y="490" width="220" height="50" as="geometry" />
        </mxCell>
        <mxCell id="_yjce0pQz_h5Eg_Jqg03-3" value="" style="edgeStyle=orthogonalEdgeStyle;rounded=0;sketch=1;hachureGap=4;jiggle=2;curveFitting=1;orthogonalLoop=1;jettySize=auto;html=1;fontFamily=Architects Daughter;fontSource=https://fonts.googleapis.com/css?family=Architects+Daughter;endArrow=open;endFill=0;endSize=10;fontSize=20;dashed=1;disableMultiStroke=1;exitX=0.236;exitY=0.062;exitDx=0;exitDy=0;entryX=1.049;entryY=0.253;entryDx=0;entryDy=0;entryPerimeter=0;exitPerimeter=0;" edge="1" parent="1" source="u_CrRiMpIKxcChkb7vaz-3" target="IJqBc1URIt_p2lZqbBoP-1">
          <mxGeometry relative="1" as="geometry">
            <mxPoint x="183.70000000000005" y="322.1700000000001" as="targetPoint" />
            <mxPoint x="464.00299999999993" y="314.0630000000001" as="sourcePoint" />
          </mxGeometry>
        </mxCell>
        <mxCell id="_yjce0pQz_h5Eg_Jqg03-5" value="&lt;span style=&quot;color: rgb(0, 0, 0); font-family: &amp;quot;Architects Daughter&amp;quot;; font-size: 20px; font-style: normal; font-variant-ligatures: normal; font-variant-caps: normal; font-weight: 400; letter-spacing: normal; orphans: 2; text-align: center; text-indent: 0px; text-transform: none; widows: 2; word-spacing: 0px; -webkit-text-stroke-width: 0px; white-space: nowrap; background-color: rgb(255, 255, 255); text-decoration-thickness: initial; text-decoration-style: initial; text-decoration-color: initial; float: none; display: inline !important;&quot;&gt;query&lt;/span&gt;" style="text;whiteSpace=wrap;html=1;fontFamily=Architects Daughter;fontSource=https%3A%2F%2Ffonts.googleapis.com%2Fcss%3Ffamily%3DArchitects%2BDaughter;" vertex="1" parent="1">
          <mxGeometry x="260" y="272" width="60" height="30" as="geometry" />
        </mxCell>
        <mxCell id="_yjce0pQz_h5Eg_Jqg03-7" value="" style="edgeStyle=orthogonalEdgeStyle;rounded=0;sketch=1;hachureGap=4;jiggle=2;curveFitting=1;orthogonalLoop=1;jettySize=auto;html=1;fontFamily=Architects Daughter;fontSource=https://fonts.googleapis.com/css?family=Architects+Daughter;endArrow=none;endFill=0;endSize=10;fontSize=20;dashed=1;disableMultiStroke=1;exitX=0;exitY=1;exitDx=0;exitDy=0;entryX=0.5;entryY=0;entryDx=0;entryDy=0;" edge="1" parent="1" source="u_CrRiMpIKxcChkb7vaz-6" target="_yjce0pQz_h5Eg_Jqg03-5">
          <mxGeometry relative="1" as="geometry">
            <mxPoint x="310" y="317" as="targetPoint" />
            <mxPoint x="432" y="335" as="sourcePoint" />
          </mxGeometry>
        </mxCell>
        <mxCell id="_yjce0pQz_h5Eg_Jqg03-8" value="query-results" style="edgeStyle=orthogonalEdgeStyle;rounded=0;sketch=1;hachureGap=4;jiggle=2;curveFitting=1;orthogonalLoop=1;jettySize=auto;html=1;fontFamily=Architects Daughter;fontSource=https://fonts.googleapis.com/css?family=Architects+Daughter;endArrow=open;endFill=0;endSize=10;fontSize=20;exitX=0.378;exitY=0.004;exitDx=0;exitDy=0;disableMultiStroke=1;exitPerimeter=0;entryX=-0.015;entryY=0.445;entryDx=0;entryDy=0;entryPerimeter=0;" edge="1" parent="1" source="IJqBc1URIt_p2lZqbBoP-1" target="u_CrRiMpIKxcChkb7vaz-6">
          <mxGeometry relative="1" as="geometry">
            <mxPoint x="230" y="120" as="targetPoint" />
            <mxPoint x="488" y="391" as="sourcePoint" />
            <Array as="points">
              <mxPoint x="121" y="182" />
            </Array>
          </mxGeometry>
        </mxCell>
        <mxCell id="_yjce0pQz_h5Eg_Jqg03-11" value="" style="rounded=1;whiteSpace=wrap;html=1;sketch=1;hachureGap=4;jiggle=2;curveFitting=1;fontFamily=Architects Daughter;fontSource=https%3A%2F%2Ffonts.googleapis.com%2Fcss%3Ffamily%3DArchitects%2BDaughter;disableMultiStroke=1;disableMultiStrokeFill=1;dashed=1;dashPattern=12 12;strokeColor=none;fillColor=#CCE5FF;gradientColor=none;" vertex="1" parent="1">
          <mxGeometry x="180" y="325" width="670" height="145" as="geometry" />
        </mxCell>
      </root>
    </mxGraphModel>
  </diagram>
  <diagram id="OBRIX1e9dsyVWQUr3x0N" name="repo-folder-structure">
    <mxGraphModel dx="1178" dy="800" grid="1" gridSize="10" guides="1" tooltips="1" connect="1" arrows="1" fold="1" page="1" pageScale="1" pageWidth="1169" pageHeight="827" math="0" shadow="0">
      <root>
        <mxCell id="0" />
        <mxCell id="1" parent="0" />
        <mxCell id="j8YWUJjQyanMd6psE9U6-1" value="" style="shape=image;verticalLabelPosition=bottom;labelBackgroundColor=default;verticalAlign=top;aspect=fixed;imageAspect=0;image=data:image/png,iVBORw0KGgoAAAANSUhEUgAAAKUAAABfCAIAAAAGQJDyAAAOjklEQVR4Ae2d+1MURx7A+Sf82fvtHnU5z7PMYxMTLr8klZh4VbnKQysmV5dsLlcmpSaCioAoGh4+4JBKciYCPlB8a3SNxgROjZ6KnlGByEJAV3wAiyyPZdjZ3bnq7unHvGd3hpUZZ6tLerq//e3u76e7Z53+bk+WkMrn0j3BC462QFYquD1Zx1vA4+14hCl1wOOdkrkcL2yJd/sPVT/tW/bTvmXXDixtPZRz69Q6x9vD7R2wxPunfcvi0fuJsT4Ugkc+cbu5BEEI+LN8FUFbOmqjKrPtSYf3xoLyyqLS6qKSoY7K0Y6NXMd6PlgePrfyxuFF1UUlMJRWA4HSfxWWm22IRG4iDGGXTrv0mBw6NlYHTCznnUwmJZYXBGXKuvx11UUlfLhJiJzSCny4qbqoZGOBKu9Q86ayTlk1kkubOwl126XTLj2TgHdNTU1ubi7P88T4PM/n5ubW1taSFBRZurhKGDipH4CM5ufs8fwXqnefVcsP+LPwxx9A66ff78vK8vl8WSABfYjZgxU+VhzkkjwSl+nESuDfgJ+oZQoGK3yoMqofXUOZgFgpXtnlQgJNIMoFgUmFukh1sHkq1cmaTZUiWUk3zF3Q+R2Px3Nzc7OzswlyBBulxONxVuHr72wReg/pByCj/2kpq85/4XiLUogYAgHDN0wpGWwybFBgDWR/WXFlorRGojbg9/l8SDpYgSKMqoAfZkEGRAjVSDSIioGMiIS2isZw9Ug5SMf8VKtDlcFhjOWwhpT/Ut6CIMRiMYI8Go2SODvjUQ1z5m0dvrT2wenlyxdtePe9r/WDdqNCzZteqM5Xru1Mt+WTFfVYtD2cMNQG2OyqxZlEYGH0gWUpW19FAHHGSVQSygNxRg9BAMUwFjSNFa1isYoWAap8eJCCNP3qZLVom1UnR8JbEAQyp2fPns3OdZmK19/ecnPnW6Ndu7p2zZ33t5qGVu7QzcShm4kRPjnCJ6+XT0Hhyx963ninTlYWXiLSHzb3qmVKbCqxL+KAaWhYVr24RI+0VqQPjSG4jpMKNCDh7+eSbAQLcJYkg9YoE2EDwDIguUtJC2IZOpDIkKCjSdoTwys5bxY5WdiVWr5amdPxzcK8uX9o2/3hvh1f77gSRchH+OTV0imx/pZ4sFg4OfVq6ZQLl28rioeaN2mRRrIsGzYOTenz+8VFV1ztxc5TY9EYMLbKIi9vEeDLrOR+P1q6pXcTsRDVKOOKYEA4svUcNRC0SoIOj0umh4xyWp20ELIBHnHynhhdq/BGyOvq6mKxmGpxfnTg2hev3Dxb9JffZA23lrfUvLbtwgOEfIRPXi6ecqNyRuvGac2rfnW5eIqqBsNE0O8sdA9krAGLMbaE18CM6MPYRSyfleX3k/8uMzoV9bMs2DiZUKgGAA60B35/xA0URwWVANpVWwVHHyNHugalUfNpQfErAG026RS53Sv6YZigzlu/2J1TlZ3754+2Fhwof5H7eWVw97yjB7dvvTiy40p0eDx5vhDO7/Yi4eTU84Vp8tZpAL5J64h4WZoWSId3W+3rQ81Lo63FVR/P5DtKIhdyjn722vSXD05/+WDo7siPyxHvQuHk1B+X282b3Fk1e+Rl6FkgHd6XK58b/G9Oomvj7bN5ia6NvT8saK17i1TStATwTtzIF05ObVpiI2+00jGLNqnSi5i2QDq8+64fPV8289zaaSg0V2QPtDeyNX63cAoKbKIXnwwWSIf3ZGi314b0LODxTs9uTi3l8XYqufTa7fFOz25OLeXxdiq59NqdOd7RcOhC9fwzZa+eKXv1QvX8aDiUVovJMymTpVOVN6nWqWL28Fb6RCjt8Z+yOWP9QeT5FLl16dym+UoZEymp8ktV3kQTnCxiA++rV682NjYmEgkdO1ypeffMmscHWiqjvW3hq/Whb5e0bp1/sWo2Dq/cOFSgU5zJSpVfqvJMVW6MWuWdTCYbGxvr6+v1kTetmtl3vS7StW/41rHILwcHgw0DP9dHug6S0LRqpp558S6Cr6KC7H8wexLsBgIWpdsN6JEc3G2gO1XMtgXdAhF32vRa4vA8q7wFQUgkEobIvyuYwd0P6ITvCmZoWxKgYkhRfiIfgJjuLkmfuKL5DSQwTGbGMy4r0lLabXF4jg28zSA/ljedu70HhdHunc27FuxZ5mvIeZKE7R9P2730ORiy5SaV7JFgWixBiZ8JxipqAfIp+JDI63bbtT28kS/U3r176+vrr1+/rjTS4dxpXHct110bOr16f96sjsY14bbacFtdfHwoPj5E/GHaThTX/uO38uJWeafsQyJvgIuu7eFtuKTv/+QxrqM61JRXv2h66HQxd3MrDNuS/JDMH6br0nGFec2s53S9l67M4nqAlwUtlxVpIUULXJNgA29D2IIgNCz8fejkJ/UL/xhqXMYFq2DYxHVUJ2MRU/4w2LVD4/saSwuLyr+vwe9xSBBG0Rc2eFdnBoNrwGp0xCpvk9/Pt//zd9s+eix04iOuZTXXUsy1rOFa13KtnyXHH0y0P4xGxx/RZKu8BUEw8//vI6Vv1vh/Xb9w2s7FM3Z9OrNhyRO7YRjuvz2x/jCPKFbNbtvAW1D7zZGswniMG+6/rQyJOD9h/jCyJniXwAL28LZoS88fxqIBzRefFLzNN9eTtGgBj7dFAzqsuMfbYcAsNtfjbdGADivu8XYYMIvNzRxvm/xbtPqr9owMPEdDT9T0c7V0ujDdHt4Z9G/RYqBGlMpayaVaXBCzgbeZ52v2+bdo2dwKUf2yWjU6Mt0qb5PPz+3yb4GbIHSZxr+gRrte8HQGuA2C908ISBiRH7qCcun+Ctw7oXspso10R+JVNNoqbzPODoIgWPZvoQRhDP0omP1pMMRGbtaiMwvLG//un44WNpfqJ34wClu5IcEG3maQH8ub/uBiSf+pFSM//zsd/xZx8xL+QfMO8mWmIIGH5zo4Eo8kkghghocJSSQR8Xf6GL4bAMv6YA9vQ/+WwPI/ofNebu5688CKZ1P2b1FOuvR5gwkOBwrBTCKicdCazgwmmdEcfGkPb0OXh/MbnkfnvbTv+Xv3NwvS8G+RzjnV9ZyIEH5sBJ+dQnBrzH4EU+JD5WC+8qbbwNsQNj860Pbli+S8l2Dtq1x7JRdMxb8FzTi0qvsryH+rQbJImaBVXcZBrvzQFcobxMDHH8Ax8ewYubWcf22Vt5nv53dOVXYfmEvOe+ne/cb9bz/w/FseyuCxytuMf4vyvJeLG2Z5/i1O5W3o36I87+Xalr8iXxfPvyXD1G2Y34Yt9s57MTRRxgQywTtjnfEqMrSAx9vQRK4S8Hi7CqdhZzzehiZylYDH21U4DTuTOd4T7N9i2FNPAFjAHt6TwL/FJE72savJIq4Ss4H3xPu3GL7PyDwSj7d5W6lJmnl+LgiCVf8WQed9RniDpEJ8rxHZJlMc8CJui4hbI5JT6dHmJ92WceVmqD3rueH+mGX/FjzQ9N5nhE94AUwRLBqD4NEwYOc3E0cHuWBHCFyfC//asJ6b9G9J//wWavZU3mdE97lBeYySYUwnM94MhSl0eaD1uidmD29D/xZL57cAa6f+PiNTvFWWbTQMVDJcAd0e3oZLurXzW9J7n5FsPSeLPJnAQIBcsDTd6tySufu31fNbWBoqcWaVZrxWmO9rFCuATLxX2CX9EXBusYG3ye/n3vktKqP0YSTZsJ6b+f+3d37Lw4CrUqcNvA39WwRB8M5vUbH9w0iyh7fFlnvnt1g0oPnik4K3+eZ6khYt4PG2aECHFc8c73giqQyJRNJhBnN4czPEO5Hg95VMV4aD65+6193scBs6qfmZ472n5PHRMZ4NIyNDzXvfO7DhuZ6Oc06ymZPbmjneO9c+MRzl2TA0PNz+/Yrmve/vWZd92xJy8aEZfHJGfkqqmghYgQzJ83GJJH0Uh35MJpEExZldFUlBhaD5ccE+HzRfKh3JDPGOJ/htxU8OjvBseBAZ6Ty1pv37vAt73t++xpdI8On0AJRh7EVhMomsXvBw3O/3MVjZ4hLGQINPIimOFvzcXaMKtjpTcbv0GFeWOd41q54aGI7JQnhwODw4FB6M1K5+Oh4f12ivoX8Lay8SJxGJVrQXIt0RkUrSjTWQLhsaYDz4/fidOdKCknpSurBLj3GlmeId5zcX+fojMX9Jw9tF2/sjsYLNxzp7IvUnrnxQ2tAfiW0ueibOa/EWBDP+LeBAB3aqqxoRg8Z/ZWXgJQGONOCtc5CHihHNJALLSf6BWfjEGH+A7t3QhQXv1kgO8Zcosf8iU7x5/vPCp3sHx//Xfm9u4dY74bE5OZtrjl48fKbtWld/7+D454XPxPmYQf/0/Vukd290m0Zp9HZNMdMYO0ZgA2S84ZQO4ByAi2Bm79+y2zfMQmyZKLxdIEl644Hc6TAwMIK17Mzxrsp/5u7A+N2B8ZcWf7G3qSVwLvjO6h1bjjSjxKr8Wca8Ra+Hsk55nzEAQgoI4ERGmIXMyMokiRROxwl4puN0tSpwbURG1hKcjnVCeZyIC0/c38zx3pA3qyc83hMeX7H524/W7+8Jj8/J/SoyMsbHk+T9RNr9NOvfwphRaUR2OrKrgVSSDgSSDrUGKvBXN5JOIsqGs1lqcaahqkNTqdGWlMzxLl/+bKiPC/VxR84GN+w6HerjSrY1jo7FZO8nUutV2v4t0kWSNTuohoBlM+gyK8HArsl0WrMFUcNJColozG9mZQftUHe0UTOGtbTM8f5saXZ3L9fdy/1yf6zzbrS7l+u8G43Fk6beT2TQSda4EKN4l8W3b2hOiRBUiIGz854dImyJYIWP3KFJOlsQEWOziCqSKGWPS7vz+9rqnD//cm9MFmJ8wns/kcFgtjU7Q/Ob5/mVnz7fcXdMFmJ8wns/ka1ADZRliHc8zq9Y+KwyhPt6vPcTGSCyNTtDvPXb7Pm36NvHxtxJwdvG/niq9C3g8da3j9tyPd5uI6rfH4+3vn3cluvxdhtR/f78H9HVXXbDDcX5AAAAAElFTkSuQmCC;" vertex="1" parent="1">
          <mxGeometry x="230" y="180" width="360.53" height="207.57" as="geometry" />
        </mxCell>
        <mxCell id="SfBQf1n6s3r2SFZyo8TO-1" value="" style="shape=partialRectangle;whiteSpace=wrap;html=1;bottom=1;right=1;left=1;top=0;fillColor=none;routingCenterX=-0.5;rounded=1;sketch=1;hachureGap=4;jiggle=2;disableMultiStroke=1;disableMultiStrokeFill=1;curveFitting=1;strokeColor=#FF0000;align=center;verticalAlign=middle;fontFamily=Architects Daughter;fontSource=https%3A%2F%2Ffonts.googleapis.com%2Fcss%3Ffamily%3DArchitects%2BDaughter;fontSize=12;fontColor=default;" vertex="1" parent="1">
          <mxGeometry x="327.26" y="192" width="231" height="24" as="geometry" />
        </mxCell>
        <mxCell id="SfBQf1n6s3r2SFZyo8TO-2" value="" style="endArrow=none;html=1;rounded=0;sketch=1;hachureGap=4;jiggle=1;curveFitting=1;fontFamily=Architects Daughter;fontSource=https://fonts.googleapis.com/css?family=Architects+Daughter;exitX=1;exitY=1;exitDx=0;exitDy=0;strokeColor=#FF0000;disableMultiStroke=1;entryX=0;entryY=0.25;entryDx=0;entryDy=0;" edge="1" parent="1" source="SfBQf1n6s3r2SFZyo8TO-1" target="SfBQf1n6s3r2SFZyo8TO-3">
          <mxGeometry width="50" height="50" relative="1" as="geometry">
            <mxPoint x="656" y="741" as="sourcePoint" />
            <mxPoint x="1206" y="403" as="targetPoint" />
          </mxGeometry>
        </mxCell>
        <mxCell id="SfBQf1n6s3r2SFZyo8TO-3" value="&lt;b&gt;&lt;i&gt;Root&lt;/i&gt;&lt;/b&gt;" style="text;whiteSpace=wrap;html=1;fontFamily=Architects Daughter;fontSource=https://fonts.googleapis.com/css?family=Architects+Daughter;fontColor=#FF0000;" vertex="1" parent="1">
          <mxGeometry x="650" y="165" width="229" height="40" as="geometry" />
        </mxCell>
        <mxCell id="SfBQf1n6s3r2SFZyo8TO-4" value="" style="shape=partialRectangle;whiteSpace=wrap;html=1;bottom=1;right=1;left=1;top=0;fillColor=none;routingCenterX=-0.5;rounded=1;sketch=1;hachureGap=4;jiggle=2;disableMultiStroke=1;disableMultiStrokeFill=1;curveFitting=1;strokeColor=#FF0000;align=center;verticalAlign=middle;fontFamily=Architects Daughter;fontSource=https%3A%2F%2Ffonts.googleapis.com%2Fcss%3Ffamily%3DArchitects%2BDaughter;fontSize=12;fontColor=default;" vertex="1" parent="1">
          <mxGeometry x="346" y="227" width="94" height="27" as="geometry" />
        </mxCell>
        <mxCell id="SfBQf1n6s3r2SFZyo8TO-5" value="" style="endArrow=none;html=1;rounded=0;sketch=1;hachureGap=4;jiggle=1;curveFitting=1;fontFamily=Architects Daughter;fontSource=https://fonts.googleapis.com/css?family=Architects+Daughter;exitX=1;exitY=1;exitDx=0;exitDy=0;strokeColor=#FF0000;disableMultiStroke=1;entryX=0;entryY=0.25;entryDx=0;entryDy=0;" edge="1" parent="1" source="SfBQf1n6s3r2SFZyo8TO-4" target="SfBQf1n6s3r2SFZyo8TO-6">
          <mxGeometry width="50" height="50" relative="1" as="geometry">
            <mxPoint x="366" y="671" as="sourcePoint" />
            <mxPoint x="916" y="333" as="targetPoint" />
          </mxGeometry>
        </mxCell>
        <mxCell id="SfBQf1n6s3r2SFZyo8TO-6" value="&lt;b&gt;&lt;i&gt;Contains docker compose projects to bring up infrastructure such as MongoDb and MySql&lt;/i&gt;&lt;/b&gt;" style="text;whiteSpace=wrap;html=1;fontFamily=Architects Daughter;fontSource=https://fonts.googleapis.com/css?family=Architects+Daughter;fontColor=#FF0000;" vertex="1" parent="1">
          <mxGeometry x="650" y="220" width="229" height="40" as="geometry" />
        </mxCell>
        <mxCell id="SfBQf1n6s3r2SFZyo8TO-7" value="" style="shape=partialRectangle;whiteSpace=wrap;html=1;bottom=1;right=1;left=1;top=0;fillColor=none;routingCenterX=-0.5;rounded=1;sketch=1;hachureGap=4;jiggle=2;disableMultiStroke=1;disableMultiStrokeFill=1;curveFitting=1;strokeColor=#FF0000;align=center;verticalAlign=middle;fontFamily=Architects Daughter;fontSource=https%3A%2F%2Ffonts.googleapis.com%2Fcss%3Ffamily%3DArchitects%2BDaughter;fontSize=12;fontColor=default;" vertex="1" parent="1">
          <mxGeometry x="350" y="268" width="94" height="25" as="geometry" />
        </mxCell>
        <mxCell id="SfBQf1n6s3r2SFZyo8TO-8" value="" style="endArrow=none;html=1;rounded=0;sketch=1;hachureGap=4;jiggle=1;curveFitting=1;fontFamily=Architects Daughter;fontSource=https://fonts.googleapis.com/css?family=Architects+Daughter;exitX=1;exitY=1;exitDx=0;exitDy=0;strokeColor=#FF0000;disableMultiStroke=1;entryX=0;entryY=0.25;entryDx=0;entryDy=0;" edge="1" parent="1" source="SfBQf1n6s3r2SFZyo8TO-7" target="SfBQf1n6s3r2SFZyo8TO-9">
          <mxGeometry width="50" height="50" relative="1" as="geometry">
            <mxPoint x="367" y="698" as="sourcePoint" />
            <mxPoint x="917" y="360" as="targetPoint" />
          </mxGeometry>
        </mxCell>
        <mxCell id="SfBQf1n6s3r2SFZyo8TO-9" value="&lt;b&gt;&lt;i&gt;Spring boot java projects to test, tryout, investigate and show code&lt;/i&gt;&lt;/b&gt;" style="text;whiteSpace=wrap;html=1;fontFamily=Architects Daughter;fontSource=https://fonts.googleapis.com/css?family=Architects+Daughter;fontColor=#FF0000;" vertex="1" parent="1">
          <mxGeometry x="650" y="290" width="163" height="40" as="geometry" />
        </mxCell>
        <mxCell id="SfBQf1n6s3r2SFZyo8TO-10" value="" style="shape=partialRectangle;whiteSpace=wrap;html=1;bottom=1;right=1;left=1;top=0;fillColor=none;routingCenterX=-0.5;rounded=1;sketch=1;hachureGap=4;jiggle=2;disableMultiStroke=1;disableMultiStrokeFill=1;curveFitting=1;strokeColor=#FF0000;align=center;verticalAlign=middle;fontFamily=Architects Daughter;fontSource=https%3A%2F%2Ffonts.googleapis.com%2Fcss%3Ffamily%3DArchitects%2BDaughter;fontSize=12;fontColor=default;" vertex="1" parent="1">
          <mxGeometry x="368" y="307" width="75" height="25" as="geometry" />
        </mxCell>
        <mxCell id="SfBQf1n6s3r2SFZyo8TO-11" value="" style="endArrow=none;html=1;rounded=0;sketch=1;hachureGap=4;jiggle=1;curveFitting=1;fontFamily=Architects Daughter;fontSource=https://fonts.googleapis.com/css?family=Architects+Daughter;exitX=1;exitY=1;exitDx=0;exitDy=0;strokeColor=#FF0000;disableMultiStroke=1;entryX=0;entryY=0.25;entryDx=0;entryDy=0;" edge="1" parent="1" source="SfBQf1n6s3r2SFZyo8TO-10" target="SfBQf1n6s3r2SFZyo8TO-12">
          <mxGeometry width="50" height="50" relative="1" as="geometry">
            <mxPoint x="387" y="740" as="sourcePoint" />
            <mxPoint x="937" y="402" as="targetPoint" />
          </mxGeometry>
        </mxCell>
        <mxCell id="SfBQf1n6s3r2SFZyo8TO-12" value="&lt;b&gt;&lt;i&gt;Documentation&lt;/i&gt;&lt;/b&gt;" style="text;whiteSpace=wrap;html=1;fontFamily=Architects Daughter;fontSource=https://fonts.googleapis.com/css?family=Architects+Daughter;fontColor=#FF0000;" vertex="1" parent="1">
          <mxGeometry x="656" y="343" width="163" height="40" as="geometry" />
        </mxCell>
        <mxCell id="SfBQf1n6s3r2SFZyo8TO-13" value="" style="shape=partialRectangle;whiteSpace=wrap;html=1;bottom=1;right=1;left=1;top=0;fillColor=none;routingCenterX=-0.5;rounded=1;sketch=1;hachureGap=4;jiggle=2;disableMultiStroke=1;disableMultiStrokeFill=1;curveFitting=1;strokeColor=#FF0000;align=center;verticalAlign=middle;fontFamily=Architects Daughter;fontSource=https%3A%2F%2Ffonts.googleapis.com%2Fcss%3Ffamily%3DArchitects%2BDaughter;fontSize=12;fontColor=default;" vertex="1" parent="1">
          <mxGeometry x="369" y="346" width="151" height="25" as="geometry" />
        </mxCell>
        <mxCell id="SfBQf1n6s3r2SFZyo8TO-14" value="" style="endArrow=none;html=1;rounded=0;sketch=1;hachureGap=4;jiggle=1;curveFitting=1;fontFamily=Architects Daughter;fontSource=https://fonts.googleapis.com/css?family=Architects+Daughter;exitX=1;exitY=1;exitDx=0;exitDy=0;strokeColor=#FF0000;disableMultiStroke=1;entryX=0;entryY=0.25;entryDx=0;entryDy=0;" edge="1" parent="1" source="SfBQf1n6s3r2SFZyo8TO-13" target="SfBQf1n6s3r2SFZyo8TO-15">
          <mxGeometry width="50" height="50" relative="1" as="geometry">
            <mxPoint x="386" y="776" as="sourcePoint" />
            <mxPoint x="936" y="438" as="targetPoint" />
          </mxGeometry>
        </mxCell>
        <mxCell id="SfBQf1n6s3r2SFZyo8TO-15" value="&lt;b&gt;&lt;i&gt;Root readme file with index to the notes&lt;/i&gt;&lt;/b&gt;" style="text;whiteSpace=wrap;html=1;fontFamily=Architects Daughter;fontSource=https://fonts.googleapis.com/css?family=Architects+Daughter;fontColor=#FF0000;" vertex="1" parent="1">
          <mxGeometry x="656" y="387" width="163" height="40" as="geometry" />
        </mxCell>
      </root>
    </mxGraphModel>
  </diagram>
  <diagram name="Page-1" id="bTeAZCcsIIA-rcSndxbb">
    <mxGraphModel dx="1420" dy="830" grid="1" gridSize="10" guides="1" tooltips="1" connect="1" arrows="1" fold="1" page="1" pageScale="1" pageWidth="1169" pageHeight="827" math="0" shadow="0">
      <root>
        <mxCell id="0" />
        <mxCell id="1" parent="0" />
        <mxCell id="koEGJMNdDWVCIMMdpYI--1" value="Jpa&lt;br&gt;Event&lt;br&gt;Forwarder" style="whiteSpace=wrap;html=1;aspect=fixed;sketch=1;hachureGap=4;jiggle=2;curveFitting=1;fontFamily=Architects Daughter;fontSource=https%3A%2F%2Ffonts.googleapis.com%2Fcss%3Ffamily%3DArchitects%2BDaughter;" parent="1" vertex="1">
          <mxGeometry x="270" y="260" width="80" height="80" as="geometry" />
        </mxCell>
        <mxCell id="koEGJMNdDWVCIMMdpYI--17" style="edgeStyle=orthogonalEdgeStyle;rounded=0;sketch=1;hachureGap=4;jiggle=2;curveFitting=1;orthogonalLoop=1;jettySize=auto;html=1;entryX=0;entryY=0.5;entryDx=0;entryDy=0;fontFamily=Architects Daughter;fontSource=https%3A%2F%2Ffonts.googleapis.com%2Fcss%3Ffamily%3DArchitects%2BDaughter;" parent="1" source="koEGJMNdDWVCIMMdpYI--5" target="koEGJMNdDWVCIMMdpYI--11" edge="1">
          <mxGeometry relative="1" as="geometry" />
        </mxCell>
        <mxCell id="koEGJMNdDWVCIMMdpYI--18" value="Includes" style="edgeLabel;html=1;align=center;verticalAlign=middle;resizable=0;points=[];sketch=1;hachureGap=4;jiggle=2;curveFitting=1;fontFamily=Architects Daughter;fontSource=https%3A%2F%2Ffonts.googleapis.com%2Fcss%3Ffamily%3DArchitects%2BDaughter;" parent="koEGJMNdDWVCIMMdpYI--17" vertex="1" connectable="0">
          <mxGeometry x="-0.5282" y="3" relative="1" as="geometry">
            <mxPoint x="10" y="-7" as="offset" />
          </mxGeometry>
        </mxCell>
        <mxCell id="koEGJMNdDWVCIMMdpYI--19" style="edgeStyle=orthogonalEdgeStyle;rounded=0;sketch=1;hachureGap=4;jiggle=2;curveFitting=1;orthogonalLoop=1;jettySize=auto;html=1;entryX=0;entryY=0.5;entryDx=0;entryDy=0;fontFamily=Architects Daughter;fontSource=https%3A%2F%2Ffonts.googleapis.com%2Fcss%3Ffamily%3DArchitects%2BDaughter;" parent="1" source="koEGJMNdDWVCIMMdpYI--5" target="koEGJMNdDWVCIMMdpYI--12" edge="1">
          <mxGeometry relative="1" as="geometry" />
        </mxCell>
        <mxCell id="koEGJMNdDWVCIMMdpYI--5" value="&lt;span style=&quot;text-align: left;&quot;&gt;Persistence&lt;br&gt;Event&lt;/span&gt;" style="whiteSpace=wrap;html=1;aspect=fixed;sketch=1;hachureGap=4;jiggle=2;curveFitting=1;fontFamily=Architects Daughter;fontSource=https%3A%2F%2Ffonts.googleapis.com%2Fcss%3Ffamily%3DArchitects%2BDaughter;" parent="1" vertex="1">
          <mxGeometry x="420" y="260" width="80" height="80" as="geometry" />
        </mxCell>
        <mxCell id="koEGJMNdDWVCIMMdpYI--6" value="uses" style="endArrow=open;html=1;rounded=0;align=center;verticalAlign=bottom;dashed=1;endFill=0;labelBackgroundColor=none;sketch=1;hachureGap=4;jiggle=2;curveFitting=1;fontFamily=Architects Daughter;fontSource=https%3A%2F%2Ffonts.googleapis.com%2Fcss%3Ffamily%3DArchitects%2BDaughter;exitX=0.467;exitY=1.001;exitDx=0;exitDy=0;exitPerimeter=0;entryX=0.5;entryY=0;entryDx=0;entryDy=0;" parent="1" source="koEGJMNdDWVCIMMdpYI--1" target="koEGJMNdDWVCIMMdpYI--3" edge="1">
          <mxGeometry relative="1" as="geometry">
            <mxPoint x="400" y="270" as="sourcePoint" />
            <mxPoint x="560" y="270" as="targetPoint" />
          </mxGeometry>
        </mxCell>
        <mxCell id="koEGJMNdDWVCIMMdpYI--8" value="" style="group" parent="1" vertex="1" connectable="0">
          <mxGeometry x="270" y="390" width="80" height="80" as="geometry" />
        </mxCell>
        <mxCell id="koEGJMNdDWVCIMMdpYI--2" value="Application&lt;br&gt;Event&lt;br&gt;Publisher" style="whiteSpace=wrap;html=1;aspect=fixed;sketch=1;hachureGap=4;jiggle=2;curveFitting=1;fontFamily=Architects Daughter;fontSource=https%3A%2F%2Ffonts.googleapis.com%2Fcss%3Ffamily%3DArchitects%2BDaughter;" parent="koEGJMNdDWVCIMMdpYI--8" vertex="1">
          <mxGeometry width="80" height="80" as="geometry" />
        </mxCell>
        <mxCell id="koEGJMNdDWVCIMMdpYI--3" value="&lt;&lt;spring&gt;&gt;" style="text;whiteSpace=wrap;fontFamily=Architects Daughter;fontSource=https%3A%2F%2Ffonts.googleapis.com%2Fcss%3Ffamily%3DArchitects%2BDaughter;verticalAlign=middle;align=center;" parent="koEGJMNdDWVCIMMdpYI--8" vertex="1">
          <mxGeometry x="10" width="60" height="20" as="geometry" />
        </mxCell>
        <mxCell id="koEGJMNdDWVCIMMdpYI--11" value="&lt;span style=&quot;text-align: left;&quot;&gt;Persistence&lt;br&gt;Event&lt;br&gt;Type&lt;/span&gt;" style="whiteSpace=wrap;html=1;aspect=fixed;sketch=1;hachureGap=4;jiggle=2;curveFitting=1;fontFamily=Architects Daughter;fontSource=https%3A%2F%2Ffonts.googleapis.com%2Fcss%3Ffamily%3DArchitects%2BDaughter;" parent="1" vertex="1">
          <mxGeometry x="590" y="220" width="80" height="80" as="geometry" />
        </mxCell>
        <mxCell id="koEGJMNdDWVCIMMdpYI--12" value="&lt;span style=&quot;text-align: left;&quot;&gt;Persistence&lt;br&gt;Event&lt;br&gt;Data&lt;/span&gt;" style="whiteSpace=wrap;html=1;aspect=fixed;sketch=1;hachureGap=4;jiggle=2;curveFitting=1;fontFamily=Architects Daughter;fontSource=https%3A%2F%2Ffonts.googleapis.com%2Fcss%3Ffamily%3DArchitects%2BDaughter;" parent="1" vertex="1">
          <mxGeometry x="585" y="330" width="80" height="80" as="geometry" />
        </mxCell>
        <mxCell id="koEGJMNdDWVCIMMdpYI--13" value="" style="html=1;verticalAlign=bottom;labelBackgroundColor=none;endArrow=open;endFill=0;dashed=1;rounded=0;sketch=1;hachureGap=4;jiggle=2;curveFitting=1;fontFamily=Architects Daughter;fontSource=https%3A%2F%2Ffonts.googleapis.com%2Fcss%3Ffamily%3DArchitects%2BDaughter;exitX=1;exitY=0.5;exitDx=0;exitDy=0;entryX=0;entryY=0.5;entryDx=0;entryDy=0;" parent="1" source="koEGJMNdDWVCIMMdpYI--1" target="koEGJMNdDWVCIMMdpYI--5" edge="1">
          <mxGeometry width="160" relative="1" as="geometry">
            <mxPoint x="410" y="400" as="sourcePoint" />
            <mxPoint x="570" y="400" as="targetPoint" />
          </mxGeometry>
        </mxCell>
        <mxCell id="koEGJMNdDWVCIMMdpYI--14" value="Create" style="edgeLabel;html=1;align=center;verticalAlign=middle;resizable=0;points=[];sketch=1;hachureGap=4;jiggle=2;curveFitting=1;fontFamily=Architects Daughter;fontSource=https%3A%2F%2Ffonts.googleapis.com%2Fcss%3Ffamily%3DArchitects%2BDaughter;" parent="koEGJMNdDWVCIMMdpYI--13" vertex="1" connectable="0">
          <mxGeometry x="-0.2327" y="-1" relative="1" as="geometry">
            <mxPoint as="offset" />
          </mxGeometry>
        </mxCell>
        <mxCell id="koEGJMNdDWVCIMMdpYI--15" style="edgeStyle=orthogonalEdgeStyle;rounded=0;sketch=1;hachureGap=4;jiggle=2;curveFitting=1;orthogonalLoop=1;jettySize=auto;html=1;entryX=0.5;entryY=1;entryDx=0;entryDy=0;fontFamily=Architects Daughter;fontSource=https%3A%2F%2Ffonts.googleapis.com%2Fcss%3Ffamily%3DArchitects%2BDaughter;exitX=1.002;exitY=0.549;exitDx=0;exitDy=0;exitPerimeter=0;" parent="1" source="koEGJMNdDWVCIMMdpYI--2" target="koEGJMNdDWVCIMMdpYI--5" edge="1">
          <mxGeometry relative="1" as="geometry" />
        </mxCell>
        <mxCell id="koEGJMNdDWVCIMMdpYI--16" value="Sends" style="edgeLabel;html=1;align=center;verticalAlign=middle;resizable=0;points=[];sketch=1;hachureGap=4;jiggle=2;curveFitting=1;fontFamily=Architects Daughter;fontSource=https%3A%2F%2Ffonts.googleapis.com%2Fcss%3Ffamily%3DArchitects%2BDaughter;" parent="koEGJMNdDWVCIMMdpYI--15" vertex="1" connectable="0">
          <mxGeometry x="-0.3219" y="-1" relative="1" as="geometry">
            <mxPoint as="offset" />
          </mxGeometry>
        </mxCell>
        <mxCell id="koEGJMNdDWVCIMMdpYI--22" value="" style="group" parent="1" vertex="1" connectable="0">
          <mxGeometry x="20" y="261" width="80" height="80" as="geometry" />
        </mxCell>
        <mxCell id="koEGJMNdDWVCIMMdpYI--20" value="Person" style="whiteSpace=wrap;html=1;aspect=fixed;sketch=1;hachureGap=4;jiggle=2;curveFitting=1;fontFamily=Architects Daughter;fontSource=https%3A%2F%2Ffonts.googleapis.com%2Fcss%3Ffamily%3DArchitects%2BDaughter;" parent="koEGJMNdDWVCIMMdpYI--22" vertex="1">
          <mxGeometry width="80" height="80" as="geometry" />
        </mxCell>
        <mxCell id="koEGJMNdDWVCIMMdpYI--21" value="&lt;&lt;entity&gt;&gt;" style="text;whiteSpace=wrap;fontFamily=Architects Daughter;fontSource=https%3A%2F%2Ffonts.googleapis.com%2Fcss%3Ffamily%3DArchitects%2BDaughter;verticalAlign=middle;align=center;" parent="koEGJMNdDWVCIMMdpYI--22" vertex="1">
          <mxGeometry x="10" width="60" height="20" as="geometry" />
        </mxCell>
        <mxCell id="koEGJMNdDWVCIMMdpYI--25" style="edgeStyle=orthogonalEdgeStyle;rounded=0;sketch=1;hachureGap=4;jiggle=2;curveFitting=1;orthogonalLoop=1;jettySize=auto;html=1;entryX=0;entryY=0.5;entryDx=0;entryDy=0;fontFamily=Architects Daughter;fontSource=https%3A%2F%2Ffonts.googleapis.com%2Fcss%3Ffamily%3DArchitects%2BDaughter;" parent="1" source="koEGJMNdDWVCIMMdpYI--23" target="koEGJMNdDWVCIMMdpYI--1" edge="1">
          <mxGeometry relative="1" as="geometry" />
        </mxCell>
        <mxCell id="koEGJMNdDWVCIMMdpYI--23" value="@Entity&lt;br&gt;Listeners" style="html=1;align=center;verticalAlign=middle;dashed=0;whiteSpace=wrap;sketch=1;hachureGap=4;jiggle=2;curveFitting=1;fontFamily=Architects Daughter;fontSource=https%3A%2F%2Ffonts.googleapis.com%2Fcss%3Ffamily%3DArchitects%2BDaughter;" parent="1" vertex="1">
          <mxGeometry x="167" y="283" width="60" height="35" as="geometry" />
        </mxCell>
        <mxCell id="koEGJMNdDWVCIMMdpYI--24" style="edgeStyle=orthogonalEdgeStyle;rounded=0;sketch=1;hachureGap=4;jiggle=2;curveFitting=1;orthogonalLoop=1;jettySize=auto;html=1;entryX=0;entryY=0.5;entryDx=0;entryDy=0;fontFamily=Architects Daughter;fontSource=https%3A%2F%2Ffonts.googleapis.com%2Fcss%3Ffamily%3DArchitects%2BDaughter;" parent="1" source="koEGJMNdDWVCIMMdpYI--20" target="koEGJMNdDWVCIMMdpYI--23" edge="1">
          <mxGeometry relative="1" as="geometry" />
        </mxCell>
        <mxCell id="koEGJMNdDWVCIMMdpYI--30" style="edgeStyle=orthogonalEdgeStyle;rounded=0;sketch=1;hachureGap=4;jiggle=2;curveFitting=1;orthogonalLoop=1;jettySize=auto;html=1;entryX=0.5;entryY=0;entryDx=0;entryDy=0;fontFamily=Architects Daughter;fontSource=https%3A%2F%2Ffonts.googleapis.com%2Fcss%3Ffamily%3DArchitects%2BDaughter;" parent="1" source="koEGJMNdDWVCIMMdpYI--26" target="koEGJMNdDWVCIMMdpYI--28" edge="1">
          <mxGeometry relative="1" as="geometry" />
        </mxCell>
        <mxCell id="koEGJMNdDWVCIMMdpYI--32" value="implements" style="edgeLabel;html=1;align=center;verticalAlign=middle;resizable=0;points=[];sketch=1;hachureGap=4;jiggle=2;curveFitting=1;fontFamily=Architects Daughter;fontSource=https%3A%2F%2Ffonts.googleapis.com%2Fcss%3Ffamily%3DArchitects%2BDaughter;" parent="koEGJMNdDWVCIMMdpYI--30" vertex="1" connectable="0">
          <mxGeometry x="0.1758" y="2" relative="1" as="geometry">
            <mxPoint x="60" y="-17" as="offset" />
          </mxGeometry>
        </mxCell>
        <mxCell id="koEGJMNdDWVCIMMdpYI--33" style="edgeStyle=orthogonalEdgeStyle;rounded=0;sketch=1;hachureGap=4;jiggle=2;curveFitting=1;orthogonalLoop=1;jettySize=auto;html=1;entryX=0.5;entryY=0;entryDx=0;entryDy=0;fontFamily=Architects Daughter;fontSource=https%3A%2F%2Ffonts.googleapis.com%2Fcss%3Ffamily%3DArchitects%2BDaughter;" parent="1" source="koEGJMNdDWVCIMMdpYI--26" target="koEGJMNdDWVCIMMdpYI--29" edge="1">
          <mxGeometry relative="1" as="geometry" />
        </mxCell>
        <mxCell id="koEGJMNdDWVCIMMdpYI--26" value="&lt;div style=&quot;&quot;&gt;&lt;span style=&quot;background-color: initial;&quot;&gt;Persistence&lt;br&gt;Event&lt;br&gt;Forwarder&lt;/span&gt;&lt;/div&gt;" style="whiteSpace=wrap;html=1;aspect=fixed;sketch=1;hachureGap=4;jiggle=2;curveFitting=1;fontFamily=Architects Daughter;fontSource=https%3A%2F%2Ffonts.googleapis.com%2Fcss%3Ffamily%3DArchitects%2BDaughter;verticalAlign=middle;align=center;" parent="1" vertex="1">
          <mxGeometry x="800" y="300" width="80" height="80" as="geometry" />
        </mxCell>
        <mxCell id="koEGJMNdDWVCIMMdpYI--28" value="&lt;div style=&quot;&quot;&gt;&lt;div&gt;Application&lt;/div&gt;&lt;div&gt;Listener&lt;/div&gt;&lt;/div&gt;" style="whiteSpace=wrap;html=1;aspect=fixed;sketch=1;hachureGap=4;jiggle=2;curveFitting=1;fontFamily=Architects Daughter;fontSource=https%3A%2F%2Ffonts.googleapis.com%2Fcss%3Ffamily%3DArchitects%2BDaughter;verticalAlign=middle;align=center;" parent="1" vertex="1">
          <mxGeometry x="760" y="450" width="80" height="80" as="geometry" />
        </mxCell>
        <mxCell id="koEGJMNdDWVCIMMdpYI--29" value="&lt;div style=&quot;&quot;&gt;&lt;div&gt;Consumer&lt;br&gt;&amp;lt;&lt;span style=&quot;background-color: initial;&quot;&gt;FluxSink&amp;lt;&amp;gt;&lt;/span&gt;&lt;span style=&quot;background-color: initial;&quot;&gt;&amp;gt;&lt;/span&gt;&lt;/div&gt;&lt;/div&gt;" style="whiteSpace=wrap;html=1;aspect=fixed;sketch=1;hachureGap=4;jiggle=2;curveFitting=1;fontFamily=Architects Daughter;fontSource=https%3A%2F%2Ffonts.googleapis.com%2Fcss%3Ffamily%3DArchitects%2BDaughter;verticalAlign=middle;align=center;" parent="1" vertex="1">
          <mxGeometry x="860" y="450" width="80" height="80" as="geometry" />
        </mxCell>
        <mxCell id="koEGJMNdDWVCIMMdpYI--35" style="edgeStyle=orthogonalEdgeStyle;rounded=0;sketch=1;hachureGap=4;jiggle=2;curveFitting=1;orthogonalLoop=1;jettySize=auto;html=1;fontFamily=Architects Daughter;fontSource=https%3A%2F%2Ffonts.googleapis.com%2Fcss%3Ffamily%3DArchitects%2BDaughter;" parent="1" source="koEGJMNdDWVCIMMdpYI--34" target="koEGJMNdDWVCIMMdpYI--26" edge="1">
          <mxGeometry relative="1" as="geometry" />
        </mxCell>
        <mxCell id="koEGJMNdDWVCIMMdpYI--36" value="Uses" style="edgeLabel;html=1;align=center;verticalAlign=middle;resizable=0;points=[];sketch=1;hachureGap=4;jiggle=2;curveFitting=1;fontFamily=Architects Daughter;fontSource=https%3A%2F%2Ffonts.googleapis.com%2Fcss%3Ffamily%3DArchitects%2BDaughter;" parent="koEGJMNdDWVCIMMdpYI--35" vertex="1" connectable="0">
          <mxGeometry x="0.11" relative="1" as="geometry">
            <mxPoint as="offset" />
          </mxGeometry>
        </mxCell>
        <mxCell id="koEGJMNdDWVCIMMdpYI--34" value="&lt;div style=&quot;&quot;&gt;&lt;span style=&quot;background-color: initial;&quot;&gt;WebSocket&lt;br&gt;Handler&lt;/span&gt;&lt;/div&gt;" style="whiteSpace=wrap;html=1;aspect=fixed;sketch=1;hachureGap=4;jiggle=2;curveFitting=1;fontFamily=Architects Daughter;fontSource=https%3A%2F%2Ffonts.googleapis.com%2Fcss%3Ffamily%3DArchitects%2BDaughter;verticalAlign=middle;align=center;" parent="1" vertex="1">
          <mxGeometry x="800" y="120" width="80" height="80" as="geometry" />
        </mxCell>
        <mxCell id="qvaol77_UjaoGRIFrJA_-12" style="edgeStyle=orthogonalEdgeStyle;rounded=0;sketch=1;hachureGap=4;jiggle=2;curveFitting=1;orthogonalLoop=1;jettySize=auto;html=1;fontFamily=Architects Daughter;fontSource=https%3A%2F%2Ffonts.googleapis.com%2Fcss%3Ffamily%3DArchitects%2BDaughter;" edge="1" parent="1" source="qvaol77_UjaoGRIFrJA_-1" target="qvaol77_UjaoGRIFrJA_-10">
          <mxGeometry relative="1" as="geometry" />
        </mxCell>
        <mxCell id="qvaol77_UjaoGRIFrJA_-1" value="Jpa&lt;br&gt;Event&lt;br&gt;Forwarder" style="whiteSpace=wrap;html=1;aspect=fixed;sketch=1;hachureGap=4;jiggle=2;curveFitting=1;fontFamily=Architects Daughter;fontSource=https://fonts.googleapis.com/css?family=Architects+Daughter;" vertex="1" parent="1">
          <mxGeometry x="310" y="700" width="80" height="80" as="geometry" />
        </mxCell>
        <mxCell id="qvaol77_UjaoGRIFrJA_-3" value="" style="group" vertex="1" connectable="0" parent="1">
          <mxGeometry x="60" y="701" width="80" height="80" as="geometry" />
        </mxCell>
        <mxCell id="qvaol77_UjaoGRIFrJA_-4" value="Person" style="whiteSpace=wrap;html=1;aspect=fixed;sketch=1;hachureGap=4;jiggle=2;curveFitting=1;fontFamily=Architects Daughter;fontSource=https://fonts.googleapis.com/css?family=Architects+Daughter;" vertex="1" parent="qvaol77_UjaoGRIFrJA_-3">
          <mxGeometry width="80" height="80" as="geometry" />
        </mxCell>
        <mxCell id="qvaol77_UjaoGRIFrJA_-5" value="&lt;&lt;entity&gt;&gt;" style="text;whiteSpace=wrap;fontFamily=Architects Daughter;fontSource=https://fonts.googleapis.com/css?family=Architects+Daughter;verticalAlign=middle;align=center;" vertex="1" parent="qvaol77_UjaoGRIFrJA_-3">
          <mxGeometry x="10" width="60" height="20" as="geometry" />
        </mxCell>
        <mxCell id="qvaol77_UjaoGRIFrJA_-6" style="edgeStyle=orthogonalEdgeStyle;rounded=0;sketch=1;hachureGap=4;jiggle=2;curveFitting=1;orthogonalLoop=1;jettySize=auto;html=1;entryX=0;entryY=0.5;entryDx=0;entryDy=0;fontFamily=Architects Daughter;fontSource=https://fonts.googleapis.com/css?family=Architects+Daughter;" edge="1" parent="1" source="qvaol77_UjaoGRIFrJA_-7" target="qvaol77_UjaoGRIFrJA_-1">
          <mxGeometry relative="1" as="geometry" />
        </mxCell>
        <mxCell id="qvaol77_UjaoGRIFrJA_-7" value="@Entity&lt;br&gt;Listeners" style="html=1;align=center;verticalAlign=middle;dashed=0;whiteSpace=wrap;sketch=1;hachureGap=4;jiggle=2;curveFitting=1;fontFamily=Architects Daughter;fontSource=https://fonts.googleapis.com/css?family=Architects+Daughter;" vertex="1" parent="1">
          <mxGeometry x="207" y="723" width="60" height="35" as="geometry" />
        </mxCell>
        <mxCell id="qvaol77_UjaoGRIFrJA_-8" style="edgeStyle=orthogonalEdgeStyle;rounded=0;sketch=1;hachureGap=4;jiggle=2;curveFitting=1;orthogonalLoop=1;jettySize=auto;html=1;entryX=0;entryY=0.5;entryDx=0;entryDy=0;fontFamily=Architects Daughter;fontSource=https://fonts.googleapis.com/css?family=Architects+Daughter;" edge="1" parent="1" source="qvaol77_UjaoGRIFrJA_-4" target="qvaol77_UjaoGRIFrJA_-7">
          <mxGeometry relative="1" as="geometry" />
        </mxCell>
        <mxCell id="qvaol77_UjaoGRIFrJA_-9" value="" style="group" vertex="1" connectable="0" parent="1">
          <mxGeometry x="530" y="700" width="80" height="80" as="geometry" />
        </mxCell>
        <mxCell id="qvaol77_UjaoGRIFrJA_-10" value="Application&lt;br&gt;Event&lt;br&gt;Publisher" style="whiteSpace=wrap;html=1;aspect=fixed;sketch=1;hachureGap=4;jiggle=2;curveFitting=1;fontFamily=Architects Daughter;fontSource=https://fonts.googleapis.com/css?family=Architects+Daughter;" vertex="1" parent="qvaol77_UjaoGRIFrJA_-9">
          <mxGeometry width="80" height="80" as="geometry" />
        </mxCell>
        <mxCell id="qvaol77_UjaoGRIFrJA_-11" value="&lt;&lt;spring&gt;&gt;" style="text;whiteSpace=wrap;fontFamily=Architects Daughter;fontSource=https://fonts.googleapis.com/css?family=Architects+Daughter;verticalAlign=middle;align=center;" vertex="1" parent="qvaol77_UjaoGRIFrJA_-9">
          <mxGeometry x="10" width="60" height="20" as="geometry" />
        </mxCell>
        <mxCell id="qvaol77_UjaoGRIFrJA_-13" value="&lt;span style=&quot;text-align: left;&quot;&gt;Persistence&lt;br&gt;Event&lt;/span&gt;" style="whiteSpace=wrap;html=1;aspect=fixed;sketch=1;hachureGap=4;jiggle=2;curveFitting=1;fontFamily=Architects Daughter;fontSource=https://fonts.googleapis.com/css?family=Architects+Daughter;" vertex="1" parent="1">
          <mxGeometry x="730" y="700" width="80" height="80" as="geometry" />
        </mxCell>
        <mxCell id="qvaol77_UjaoGRIFrJA_-14" style="edgeStyle=orthogonalEdgeStyle;rounded=0;sketch=1;hachureGap=4;jiggle=2;curveFitting=1;orthogonalLoop=1;jettySize=auto;html=1;fontFamily=Architects Daughter;fontSource=https%3A%2F%2Ffonts.googleapis.com%2Fcss%3Ffamily%3DArchitects%2BDaughter;" edge="1" parent="1" source="qvaol77_UjaoGRIFrJA_-10" target="qvaol77_UjaoGRIFrJA_-13">
          <mxGeometry relative="1" as="geometry" />
        </mxCell>
        <mxCell id="qvaol77_UjaoGRIFrJA_-15" value="&lt;h1 style=&quot;text-align: center; margin-top: 0px;&quot;&gt;&lt;font color=&quot;#336600&quot;&gt;Flow&lt;/font&gt;&lt;/h1&gt;&lt;p&gt;Entity Listener captures interactions relating to Person and publishes these as PersistenceEvents via the ApplicationEventPublisher&lt;/p&gt;" style="text;html=1;whiteSpace=wrap;overflow=hidden;rounded=0;fontFamily=Architects Daughter;fontSource=https%3A%2F%2Ffonts.googleapis.com%2Fcss%3Ffamily%3DArchitects%2BDaughter;" vertex="1" parent="1">
          <mxGeometry x="167" y="781" width="470" height="90" as="geometry" />
        </mxCell>
        <mxCell id="qvaol77_UjaoGRIFrJA_-16" value="" style="shape=crossbar;whiteSpace=wrap;html=1;rounded=1;sketch=1;hachureGap=4;jiggle=2;curveFitting=1;fontFamily=Architects Daughter;fontSource=https%3A%2F%2Ffonts.googleapis.com%2Fcss%3Ffamily%3DArchitects%2BDaughter;" vertex="1" parent="1">
          <mxGeometry x="47" y="807" width="783" height="20" as="geometry" />
        </mxCell>
      </root>
    </mxGraphModel>
  </diagram>
  <diagram id="RgQp0YGXdtF2BHhCV8e6" name="ticker-api-event-trigger">
    <mxGraphModel dx="1420" dy="830" grid="1" gridSize="10" guides="1" tooltips="1" connect="1" arrows="1" fold="1" page="1" pageScale="1" pageWidth="1169" pageHeight="827" math="0" shadow="0">
      <root>
        <mxCell id="0" />
        <mxCell id="1" parent="0" />
        <mxCell id="9N-8jTpq_383rpSK-dZU-27" value="" style="shape=partialRectangle;whiteSpace=wrap;html=1;bottom=0;right=0;fillColor=none;sketch=1;hachureGap=4;jiggle=2;curveFitting=1;fontFamily=Architects Daughter;fontSource=https%3A%2F%2Ffonts.googleapis.com%2Fcss%3Ffamily%3DArchitects%2BDaughter;dashed=1;disableMultiStrokeFill=1;disableMultiStroke=1;" parent="1" vertex="1">
          <mxGeometry x="450" y="45" width="350" height="112.5" as="geometry" />
        </mxCell>
        <mxCell id="9N-8jTpq_383rpSK-dZU-28" value="" style="shape=partialRectangle;whiteSpace=wrap;html=1;top=0;left=0;fillColor=none;sketch=1;hachureGap=4;jiggle=2;curveFitting=1;fontFamily=Architects Daughter;fontSource=https%3A%2F%2Ffonts.googleapis.com%2Fcss%3Ffamily%3DArchitects%2BDaughter;dashed=1;disableMultiStrokeFill=1;disableMultiStroke=1;" parent="1" vertex="1">
          <mxGeometry x="467" y="53.5" width="360" height="110" as="geometry" />
        </mxCell>
        <mxCell id="9N-8jTpq_383rpSK-dZU-12" style="edgeStyle=orthogonalEdgeStyle;rounded=0;sketch=1;hachureGap=4;jiggle=2;curveFitting=1;orthogonalLoop=1;jettySize=auto;html=1;entryX=0;entryY=0.5;entryDx=0;entryDy=0;fontFamily=Architects Daughter;fontSource=https%3A%2F%2Ffonts.googleapis.com%2Fcss%3Ffamily%3DArchitects%2BDaughter;" parent="1" source="9N-8jTpq_383rpSK-dZU-11" target="9N-8jTpq_383rpSK-dZU-8" edge="1">
          <mxGeometry relative="1" as="geometry" />
        </mxCell>
        <mxCell id="9N-8jTpq_383rpSK-dZU-1" value="API&lt;br&gt;Controller" style="whiteSpace=wrap;html=1;aspect=fixed;sketch=1;hachureGap=4;jiggle=2;curveFitting=1;fontFamily=Architects Daughter;fontSource=https%3A%2F%2Ffonts.googleapis.com%2Fcss%3Ffamily%3DArchitects%2BDaughter;" parent="1" vertex="1">
          <mxGeometry x="200" y="67.5" width="80" height="80" as="geometry" />
        </mxCell>
        <mxCell id="9N-8jTpq_383rpSK-dZU-4" value="" style="fontStyle=0;labelPosition=right;verticalLabelPosition=middle;align=left;verticalAlign=middle;spacingLeft=2;sketch=1;hachureGap=4;jiggle=2;curveFitting=1;fontFamily=Architects Daughter;fontSource=https%3A%2F%2Ffonts.googleapis.com%2Fcss%3Ffamily%3DArchitects%2BDaughter;" parent="1" vertex="1">
          <mxGeometry x="170" y="92.5" width="30" height="30" as="geometry" />
        </mxCell>
        <mxCell id="9N-8jTpq_383rpSK-dZU-6" value="&lt;span style=&quot;color: rgb(0, 0, 0); font-family: &amp;quot;Architects Daughter&amp;quot;; font-size: 12px; font-style: normal; font-variant-ligatures: normal; font-variant-caps: normal; font-weight: 400; letter-spacing: normal; orphans: 2; text-indent: 0px; text-transform: none; widows: 2; word-spacing: 0px; -webkit-text-stroke-width: 0px; white-space: nowrap; background-color: rgb(251, 251, 251); text-decoration-thickness: initial; text-decoration-style: initial; text-decoration-color: initial; float: none; display: inline !important;&quot;&gt;PUT&lt;/span&gt;" style="text;whiteSpace=wrap;html=1;fontFamily=Architects Daughter;fontSource=https%3A%2F%2Ffonts.googleapis.com%2Fcss%3Ffamily%3DArchitects%2BDaughter;verticalAlign=middle;align=center;" parent="1" vertex="1">
          <mxGeometry x="170" y="100" width="30" height="15" as="geometry" />
        </mxCell>
        <mxCell id="9N-8jTpq_383rpSK-dZU-23" style="edgeStyle=orthogonalEdgeStyle;rounded=0;sketch=1;hachureGap=4;jiggle=2;curveFitting=1;orthogonalLoop=1;jettySize=auto;html=1;fontFamily=Architects Daughter;fontSource=https%3A%2F%2Ffonts.googleapis.com%2Fcss%3Ffamily%3DArchitects%2BDaughter;exitX=0.25;exitY=1;exitDx=0;exitDy=0;" parent="1" source="9N-8jTpq_383rpSK-dZU-8" edge="1">
          <mxGeometry relative="1" as="geometry">
            <mxPoint x="524" y="263.5" as="targetPoint" />
            <Array as="points">
              <mxPoint x="490" y="263.5" />
            </Array>
          </mxGeometry>
        </mxCell>
        <mxCell id="9N-8jTpq_383rpSK-dZU-8" value="&lt;div&gt;Tick&lt;/div&gt;&lt;div&gt;Event&lt;/div&gt;&lt;div&gt;Listener&lt;/div&gt;" style="whiteSpace=wrap;html=1;aspect=fixed;sketch=1;hachureGap=4;jiggle=2;curveFitting=1;fontFamily=Architects Daughter;fontSource=https%3A%2F%2Ffonts.googleapis.com%2Fcss%3Ffamily%3DArchitects%2BDaughter;" parent="1" vertex="1">
          <mxGeometry x="470" y="67.5" width="80" height="80" as="geometry" />
        </mxCell>
        <mxCell id="9N-8jTpq_383rpSK-dZU-13" value="" style="edgeStyle=orthogonalEdgeStyle;rounded=0;sketch=1;hachureGap=4;jiggle=2;curveFitting=1;orthogonalLoop=1;jettySize=auto;html=1;entryX=0;entryY=0.5;entryDx=0;entryDy=0;fontFamily=Architects Daughter;fontSource=https%3A%2F%2Ffonts.googleapis.com%2Fcss%3Ffamily%3DArchitects%2BDaughter;" parent="1" source="9N-8jTpq_383rpSK-dZU-1" target="9N-8jTpq_383rpSK-dZU-11" edge="1">
          <mxGeometry relative="1" as="geometry">
            <mxPoint x="280" y="107.5" as="sourcePoint" />
            <mxPoint x="390" y="107.5" as="targetPoint" />
          </mxGeometry>
        </mxCell>
        <mxCell id="9N-8jTpq_383rpSK-dZU-11" value="TickEvent" style="html=1;outlineConnect=0;whiteSpace=wrap;fillColor=#EBEBEB;shape=mxgraph.archimate3.event;sketch=1;hachureGap=4;jiggle=2;curveFitting=1;fontFamily=Architects Daughter;fontSource=https%3A%2F%2Ffonts.googleapis.com%2Fcss%3Ffamily%3DArchitects%2BDaughter;" parent="1" vertex="1">
          <mxGeometry x="310" y="93.5" width="90" height="27.5" as="geometry" />
        </mxCell>
        <mxCell id="9N-8jTpq_383rpSK-dZU-25" value="" style="group" parent="1" vertex="1" connectable="0">
          <mxGeometry x="524" y="247.5" width="176" height="45" as="geometry" />
        </mxCell>
        <mxCell id="9N-8jTpq_383rpSK-dZU-22" value="" style="group" parent="9N-8jTpq_383rpSK-dZU-25" vertex="1" connectable="0">
          <mxGeometry width="176" height="32" as="geometry" />
        </mxCell>
        <mxCell id="9N-8jTpq_383rpSK-dZU-21" value="" style="html=1;shadow=0;dashed=0;align=center;verticalAlign=middle;shape=mxgraph.arrows2.arrow;dy=0;dx=10;notch=10;sketch=1;hachureGap=4;jiggle=2;curveFitting=1;fontFamily=Architects Daughter;fontSource=https%3A%2F%2Ffonts.googleapis.com%2Fcss%3Ffamily%3DArchitects%2BDaughter;" parent="9N-8jTpq_383rpSK-dZU-22" vertex="1">
          <mxGeometry width="176" height="32" as="geometry" />
        </mxCell>
        <mxCell id="9N-8jTpq_383rpSK-dZU-16" value="" style="shape=message;html=1;html=1;outlineConnect=0;labelPosition=center;verticalLabelPosition=bottom;align=center;verticalAlign=top;sketch=1;hachureGap=4;jiggle=2;curveFitting=1;fontFamily=Architects Daughter;fontSource=https%3A%2F%2Ffonts.googleapis.com%2Fcss%3Ffamily%3DArchitects%2BDaughter;" parent="9N-8jTpq_383rpSK-dZU-22" vertex="1">
          <mxGeometry x="13" y="5" width="30" height="20" as="geometry" />
        </mxCell>
        <mxCell id="9N-8jTpq_383rpSK-dZU-17" value="" style="shape=message;html=1;html=1;outlineConnect=0;labelPosition=center;verticalLabelPosition=bottom;align=center;verticalAlign=top;sketch=1;hachureGap=4;jiggle=2;curveFitting=1;fontFamily=Architects Daughter;fontSource=https%3A%2F%2Ffonts.googleapis.com%2Fcss%3Ffamily%3DArchitects%2BDaughter;" parent="9N-8jTpq_383rpSK-dZU-22" vertex="1">
          <mxGeometry x="53" y="5" width="30" height="20" as="geometry" />
        </mxCell>
        <mxCell id="9N-8jTpq_383rpSK-dZU-18" value="" style="shape=message;html=1;html=1;outlineConnect=0;labelPosition=center;verticalLabelPosition=bottom;align=center;verticalAlign=top;sketch=1;hachureGap=4;jiggle=2;curveFitting=1;fontFamily=Architects Daughter;fontSource=https%3A%2F%2Ffonts.googleapis.com%2Fcss%3Ffamily%3DArchitects%2BDaughter;" parent="9N-8jTpq_383rpSK-dZU-22" vertex="1">
          <mxGeometry x="93" y="5" width="30" height="20" as="geometry" />
        </mxCell>
        <mxCell id="9N-8jTpq_383rpSK-dZU-19" value="" style="shape=message;html=1;html=1;outlineConnect=0;labelPosition=center;verticalLabelPosition=bottom;align=center;verticalAlign=top;sketch=1;hachureGap=4;jiggle=2;curveFitting=1;fontFamily=Architects Daughter;fontSource=https%3A%2F%2Ffonts.googleapis.com%2Fcss%3Ffamily%3DArchitects%2BDaughter;" parent="9N-8jTpq_383rpSK-dZU-22" vertex="1">
          <mxGeometry x="133" y="5" width="30" height="20" as="geometry" />
        </mxCell>
        <mxCell id="9N-8jTpq_383rpSK-dZU-24" value="&lt;span style=&quot;color: rgb(0, 0, 0); font-family: &amp;quot;Architects Daughter&amp;quot;; font-size: 12px; font-style: normal; font-variant-ligatures: normal; font-variant-caps: normal; font-weight: 400; letter-spacing: normal; orphans: 2; text-indent: 0px; text-transform: none; widows: 2; word-spacing: 0px; -webkit-text-stroke-width: 0px; white-space: normal; text-decoration-thickness: initial; text-decoration-style: initial; text-decoration-color: initial; float: none; display: inline !important;&quot;&gt;queue&lt;/span&gt;" style="text;whiteSpace=wrap;html=1;fontFamily=Architects Daughter;fontSource=https%3A%2F%2Ffonts.googleapis.com%2Fcss%3Ffamily%3DArchitects%2BDaughter;verticalAlign=middle;align=center;fillColor=none;" parent="9N-8jTpq_383rpSK-dZU-25" vertex="1">
          <mxGeometry x="63" y="31" width="35" height="14" as="geometry" />
        </mxCell>
        <mxCell id="9N-8jTpq_383rpSK-dZU-26" value="&lt;div&gt;Tick&lt;/div&gt;&lt;div&gt;Event&lt;/div&gt;&lt;div&gt;Publisher&lt;/div&gt;" style="whiteSpace=wrap;html=1;aspect=fixed;sketch=1;hachureGap=4;jiggle=2;curveFitting=1;fontFamily=Architects Daughter;fontSource=https%3A%2F%2Ffonts.googleapis.com%2Fcss%3Ffamily%3DArchitects%2BDaughter;" parent="1" vertex="1">
          <mxGeometry x="725" y="67.5" width="80" height="80" as="geometry" />
        </mxCell>
        <mxCell id="9N-8jTpq_383rpSK-dZU-29" style="edgeStyle=orthogonalEdgeStyle;rounded=0;sketch=1;hachureGap=4;jiggle=2;curveFitting=1;orthogonalLoop=1;jettySize=auto;html=1;entryX=0.25;entryY=1;entryDx=0;entryDy=0;fontFamily=Architects Daughter;fontSource=https%3A%2F%2Ffonts.googleapis.com%2Fcss%3Ffamily%3DArchitects%2BDaughter;exitX=1;exitY=0.5;exitDx=0;exitDy=0;exitPerimeter=0;" parent="1" source="9N-8jTpq_383rpSK-dZU-21" target="9N-8jTpq_383rpSK-dZU-26" edge="1">
          <mxGeometry relative="1" as="geometry" />
        </mxCell>
        <mxCell id="9N-8jTpq_383rpSK-dZU-30" value="&lt;div style=&quot;forced-color-adjust: none; color: rgb(0, 0, 0); font-family: &amp;quot;Architects Daughter&amp;quot;; font-size: 12px; font-style: normal; font-variant-ligatures: normal; font-variant-caps: normal; font-weight: 400; letter-spacing: normal; orphans: 2; text-align: center; text-indent: 0px; text-transform: none; widows: 2; word-spacing: 0px; -webkit-text-stroke-width: 0px; white-space: normal; background-color: rgb(251, 251, 251); text-decoration-thickness: initial; text-decoration-style: initial; text-decoration-color: initial;&quot;&gt;Tick&lt;span style=&quot;background-color: light-dark(rgb(251, 251, 251), rgb(251, 251, 251)); color: light-dark(rgb(0, 0, 0), rgb(0, 0, 0));&quot;&gt;Event&lt;/span&gt;&lt;span style=&quot;background-color: light-dark(rgb(251, 251, 251), rgb(251, 251, 251)); color: light-dark(rgb(0, 0, 0), rgb(0, 0, 0));&quot;&gt;Forwarder&lt;/span&gt;&lt;/div&gt;" style="text;whiteSpace=wrap;html=1;fontFamily=Architects Daughter;fontSource=https%3A%2F%2Ffonts.googleapis.com%2Fcss%3Ffamily%3DArchitects%2BDaughter;" parent="1" vertex="1">
          <mxGeometry x="555" y="30" width="140" height="27.5" as="geometry" />
        </mxCell>
        <mxCell id="9N-8jTpq_383rpSK-dZU-33" value="&lt;font style=&quot;font-size: 12px;&quot;&gt;Event Viewer UI&lt;/font&gt;" style="strokeWidth=1;shadow=0;dashed=0;align=center;html=1;shape=mxgraph.mockup.containers.window;align=left;verticalAlign=top;spacingLeft=8;strokeColor2=#008cff;strokeColor3=#c4c4c4;fontColor=#666666;mainText=;fontSize=17;labelBackgroundColor=none;whiteSpace=wrap;sketch=1;hachureGap=4;jiggle=2;curveFitting=1;fontFamily=Architects Daughter;fontSource=https%3A%2F%2Ffonts.googleapis.com%2Fcss%3Ffamily%3DArchitects%2BDaughter;disableMultiStroke=1;disableMultiStrokeFill=1;" parent="1" vertex="1">
          <mxGeometry x="638" y="857.5" width="190" height="85" as="geometry" />
        </mxCell>
        <mxCell id="9N-8jTpq_383rpSK-dZU-34" style="edgeStyle=orthogonalEdgeStyle;rounded=0;sketch=1;hachureGap=4;jiggle=2;curveFitting=1;orthogonalLoop=1;jettySize=auto;html=1;fontFamily=Architects Daughter;fontSource=https%3A%2F%2Ffonts.googleapis.com%2Fcss%3Ffamily%3DArchitects%2BDaughter;disableMultiStroke=1;entryX=0;entryY=0.5;entryDx=0;entryDy=0;exitX=1;exitY=0.5;exitDx=0;exitDy=0;" parent="1" source="9N-8jTpq_383rpSK-dZU-26" target="9N-8jTpq_383rpSK-dZU-52" edge="1">
          <mxGeometry relative="1" as="geometry">
            <mxPoint x="900" y="107.5" as="targetPoint" />
            <Array as="points">
              <mxPoint x="850" y="107.5" />
              <mxPoint x="850" y="377.5" />
              <mxPoint x="120" y="377.5" />
              <mxPoint x="120" y="587.5" />
              <mxPoint x="141" y="587.5" />
            </Array>
          </mxGeometry>
        </mxCell>
        <mxCell id="9N-8jTpq_383rpSK-dZU-36" style="edgeStyle=orthogonalEdgeStyle;rounded=0;sketch=1;hachureGap=4;jiggle=2;curveFitting=1;orthogonalLoop=1;jettySize=auto;html=1;fontFamily=Architects Daughter;fontSource=https%3A%2F%2Ffonts.googleapis.com%2Fcss%3Ffamily%3DArchitects%2BDaughter;disableMultiStroke=1;exitX=0.5;exitY=1;exitDx=0;exitDy=0;" parent="1" source="9N-8jTpq_383rpSK-dZU-56" target="9N-8jTpq_383rpSK-dZU-33" edge="1">
          <mxGeometry relative="1" as="geometry">
            <mxPoint x="990" y="697.5" as="sourcePoint" />
            <mxPoint x="540" y="280.5" as="targetPoint" />
            <Array as="points">
              <mxPoint x="678" y="740" />
              <mxPoint x="733" y="740" />
            </Array>
          </mxGeometry>
        </mxCell>
        <mxCell id="9N-8jTpq_383rpSK-dZU-37" value="&lt;font style=&quot;font-size: 12px;&quot;&gt;Event Viewer UI&lt;/font&gt;" style="strokeWidth=1;shadow=0;dashed=0;align=center;html=1;shape=mxgraph.mockup.containers.window;align=left;verticalAlign=top;spacingLeft=8;strokeColor2=#008cff;strokeColor3=#c4c4c4;fontColor=#666666;mainText=;fontSize=17;labelBackgroundColor=none;whiteSpace=wrap;sketch=1;hachureGap=4;jiggle=2;curveFitting=1;fontFamily=Architects Daughter;fontSource=https%3A%2F%2Ffonts.googleapis.com%2Fcss%3Ffamily%3DArchitects%2BDaughter;disableMultiStroke=1;disableMultiStrokeFill=1;" parent="1" vertex="1">
          <mxGeometry x="360" y="847.5" width="190" height="85" as="geometry" />
        </mxCell>
        <mxCell id="9N-8jTpq_383rpSK-dZU-40" value="" style="fontStyle=0;labelPosition=right;verticalLabelPosition=middle;align=left;verticalAlign=middle;spacingLeft=2;sketch=1;hachureGap=4;jiggle=2;curveFitting=1;fontFamily=Architects Daughter;fontSource=https%3A%2F%2Ffonts.googleapis.com%2Fcss%3Ffamily%3DArchitects%2BDaughter;" parent="1" vertex="1">
          <mxGeometry x="527" y="582" width="69" height="30" as="geometry" />
        </mxCell>
        <mxCell id="9N-8jTpq_383rpSK-dZU-41" value="&lt;span style=&quot;color: rgb(0, 0, 0); font-family: &amp;quot;Architects Daughter&amp;quot;; font-size: 12px; font-style: normal; font-variant-ligatures: normal; font-variant-caps: normal; font-weight: 400; letter-spacing: normal; orphans: 2; text-indent: 0px; text-transform: none; widows: 2; word-spacing: 0px; -webkit-text-stroke-width: 0px; white-space: nowrap; text-decoration-thickness: initial; text-decoration-style: initial; text-decoration-color: initial; float: none; display: inline !important;&quot;&gt;subscribed&lt;/span&gt;" style="text;whiteSpace=wrap;html=1;fontFamily=Architects Daughter;fontSource=https%3A%2F%2Ffonts.googleapis.com%2Fcss%3Ffamily%3DArchitects%2BDaughter;verticalAlign=middle;align=center;" parent="1" vertex="1">
          <mxGeometry x="532" y="583.5" width="60" height="15" as="geometry" />
        </mxCell>
        <mxCell id="9N-8jTpq_383rpSK-dZU-39" value="Flux" style="whiteSpace=wrap;html=1;aspect=fixed;sketch=1;hachureGap=4;jiggle=2;curveFitting=1;fontFamily=Architects Daughter;fontSource=https%3A%2F%2Ffonts.googleapis.com%2Fcss%3Ffamily%3DArchitects%2BDaughter;" parent="1" vertex="1">
          <mxGeometry x="446" y="557" width="80" height="80" as="geometry" />
        </mxCell>
        <mxCell id="9N-8jTpq_383rpSK-dZU-42" value="&lt;font style=&quot;font-size: 12px;&quot;&gt;Event Viewer UI&lt;/font&gt;" style="strokeWidth=1;shadow=0;dashed=0;align=center;html=1;shape=mxgraph.mockup.containers.window;align=left;verticalAlign=top;spacingLeft=8;strokeColor2=#008cff;strokeColor3=#c4c4c4;fontColor=#666666;mainText=;fontSize=17;labelBackgroundColor=none;whiteSpace=wrap;sketch=1;hachureGap=4;jiggle=2;curveFitting=1;fontFamily=Architects Daughter;fontSource=https%3A%2F%2Ffonts.googleapis.com%2Fcss%3Ffamily%3DArchitects%2BDaughter;disableMultiStroke=1;disableMultiStrokeFill=1;" parent="1" vertex="1">
          <mxGeometry x="100" y="847.5" width="190" height="85" as="geometry" />
        </mxCell>
        <mxCell id="9N-8jTpq_383rpSK-dZU-43" style="edgeStyle=orthogonalEdgeStyle;rounded=0;sketch=1;hachureGap=4;jiggle=2;curveFitting=1;orthogonalLoop=1;jettySize=auto;html=1;fontFamily=Architects Daughter;fontSource=https%3A%2F%2Ffonts.googleapis.com%2Fcss%3Ffamily%3DArchitects%2BDaughter;disableMultiStroke=1;exitX=0.5;exitY=1;exitDx=0;exitDy=0;" parent="1" source="9N-8jTpq_383rpSK-dZU-56" target="9N-8jTpq_383rpSK-dZU-42" edge="1">
          <mxGeometry relative="1" as="geometry">
            <mxPoint x="180" y="707.5" as="sourcePoint" />
            <mxPoint x="518" y="1091.5" as="targetPoint" />
          </mxGeometry>
        </mxCell>
        <mxCell id="9N-8jTpq_383rpSK-dZU-47" value="&lt;span style=&quot;color: rgb(0, 0, 0); font-family: &amp;quot;Architects Daughter&amp;quot;; font-style: normal; font-variant-ligatures: normal; font-variant-caps: normal; font-weight: 400; letter-spacing: normal; orphans: 2; text-indent: 0px; text-transform: none; widows: 2; word-spacing: 0px; -webkit-text-stroke-width: 0px; white-space: nowrap; text-decoration-thickness: initial; text-decoration-style: initial; text-decoration-color: initial; float: none; display: inline !important;&quot;&gt;url&lt;/span&gt;" style="text;whiteSpace=wrap;html=1;fontFamily=Architects Daughter;fontSource=https%3A%2F%2Ffonts.googleapis.com%2Fcss%3Ffamily%3DArchitects%2BDaughter;verticalAlign=middle;align=center;fontSize=16;" parent="1" vertex="1">
          <mxGeometry x="546.5" y="595.5" width="30" height="16.5" as="geometry" />
        </mxCell>
        <mxCell id="9N-8jTpq_383rpSK-dZU-49" value="Handler&lt;br&gt;Mapping" style="whiteSpace=wrap;html=1;aspect=fixed;sketch=1;hachureGap=4;jiggle=2;curveFitting=1;fontFamily=Architects Daughter;fontSource=https%3A%2F%2Ffonts.googleapis.com%2Fcss%3Ffamily%3DArchitects%2BDaughter;" parent="1" vertex="1">
          <mxGeometry x="301" y="558.25" width="80" height="80" as="geometry" />
        </mxCell>
        <mxCell id="9N-8jTpq_383rpSK-dZU-55" style="edgeStyle=orthogonalEdgeStyle;rounded=0;sketch=1;hachureGap=4;jiggle=2;curveFitting=1;orthogonalLoop=1;jettySize=auto;html=1;fontFamily=Architects Daughter;fontSource=https%3A%2F%2Ffonts.googleapis.com%2Fcss%3Ffamily%3DArchitects%2BDaughter;" parent="1" source="9N-8jTpq_383rpSK-dZU-52" target="9N-8jTpq_383rpSK-dZU-49" edge="1">
          <mxGeometry relative="1" as="geometry" />
        </mxCell>
        <mxCell id="9N-8jTpq_383rpSK-dZU-52" value="Websocket&lt;br&gt;Handler" style="whiteSpace=wrap;html=1;aspect=fixed;sketch=1;hachureGap=4;jiggle=2;curveFitting=1;fontFamily=Architects Daughter;fontSource=https%3A%2F%2Ffonts.googleapis.com%2Fcss%3Ffamily%3DArchitects%2BDaughter;" parent="1" vertex="1">
          <mxGeometry x="141" y="555.75" width="80" height="80" as="geometry" />
        </mxCell>
        <mxCell id="9N-8jTpq_383rpSK-dZU-54" value="" style="edgeStyle=orthogonalEdgeStyle;rounded=0;sketch=1;hachureGap=4;jiggle=2;curveFitting=1;orthogonalLoop=1;jettySize=auto;html=1;fontFamily=Architects Daughter;fontSource=https%3A%2F%2Ffonts.googleapis.com%2Fcss%3Ffamily%3DArchitects%2BDaughter;disableMultiStroke=1;exitX=0.5;exitY=1;exitDx=0;exitDy=0;entryX=0.494;entryY=-0.037;entryDx=0;entryDy=0;entryPerimeter=0;" parent="1" source="9N-8jTpq_383rpSK-dZU-56" target="9N-8jTpq_383rpSK-dZU-37" edge="1">
          <mxGeometry relative="1" as="geometry">
            <mxPoint x="573" y="598.5" as="sourcePoint" />
            <mxPoint x="980" y="617.5" as="targetPoint" />
            <Array as="points" />
          </mxGeometry>
        </mxCell>
        <mxCell id="9N-8jTpq_383rpSK-dZU-57" value="" style="edgeStyle=orthogonalEdgeStyle;rounded=0;sketch=1;hachureGap=4;jiggle=2;curveFitting=1;orthogonalLoop=1;jettySize=auto;html=1;fontFamily=Architects Daughter;fontSource=https%3A%2F%2Ffonts.googleapis.com%2Fcss%3Ffamily%3DArchitects%2BDaughter;entryX=0;entryY=0.5;entryDx=0;entryDy=0;" parent="1" source="9N-8jTpq_383rpSK-dZU-49" target="9N-8jTpq_383rpSK-dZU-39" edge="1">
          <mxGeometry relative="1" as="geometry">
            <mxPoint x="381" y="598.5" as="sourcePoint" />
            <mxPoint x="601" y="595.5" as="targetPoint" />
          </mxGeometry>
        </mxCell>
        <mxCell id="9N-8jTpq_383rpSK-dZU-58" value="WebSocketHandlerAdapter.plays the important role of upgrading the HTTP connection to a WebSocket one and then calls the WebSocketHandler#handle method." style="text;whiteSpace=wrap;html=1;fontFamily=Architects Daughter;fontSource=https%3A%2F%2Ffonts.googleapis.com%2Fcss%3Ffamily%3DArchitects%2BDaughter;" parent="1" vertex="1">
          <mxGeometry x="750" y="417.5" width="229" height="80" as="geometry" />
        </mxCell>
        <mxCell id="9N-8jTpq_383rpSK-dZU-59" value="" style="endArrow=none;html=1;rounded=0;sketch=1;hachureGap=4;jiggle=2;curveFitting=1;fontFamily=Architects Daughter;fontSource=https%3A%2F%2Ffonts.googleapis.com%2Fcss%3Ffamily%3DArchitects%2BDaughter;exitX=1;exitY=0;exitDx=0;exitDy=0;entryX=0.25;entryY=1;entryDx=0;entryDy=0;" parent="1" source="9N-8jTpq_383rpSK-dZU-56" target="9N-8jTpq_383rpSK-dZU-58" edge="1">
          <mxGeometry width="50" height="50" relative="1" as="geometry">
            <mxPoint x="566" y="553.5" as="sourcePoint" />
            <mxPoint x="616" y="503.5" as="targetPoint" />
          </mxGeometry>
        </mxCell>
        <mxCell id="9N-8jTpq_383rpSK-dZU-60" value="" style="edgeStyle=orthogonalEdgeStyle;rounded=0;sketch=1;hachureGap=4;jiggle=2;curveFitting=1;orthogonalLoop=1;jettySize=auto;html=1;entryX=-0.012;entryY=0.592;entryDx=0;entryDy=0;fontFamily=Architects Daughter;fontSource=https%3A%2F%2Ffonts.googleapis.com%2Fcss%3Ffamily%3DArchitects%2BDaughter;disableMultiStroke=1;exitX=1;exitY=0.5;exitDx=0;exitDy=0;entryPerimeter=0;" parent="1" source="9N-8jTpq_383rpSK-dZU-40" target="9N-8jTpq_383rpSK-dZU-56" edge="1">
          <mxGeometry relative="1" as="geometry">
            <mxPoint x="596" y="597.5" as="sourcePoint" />
            <mxPoint x="887" y="593.5" as="targetPoint" />
            <Array as="points" />
          </mxGeometry>
        </mxCell>
        <mxCell id="9N-8jTpq_383rpSK-dZU-56" value="Websocket&lt;br&gt;Handler&lt;br&gt;Adapter" style="whiteSpace=wrap;html=1;aspect=fixed;sketch=1;hachureGap=4;jiggle=2;curveFitting=1;fontFamily=Architects Daughter;fontSource=https://fonts.googleapis.com/css?family=Architects+Daughter;" parent="1" vertex="1">
          <mxGeometry x="638" y="551" width="80" height="80" as="geometry" />
        </mxCell>
        <mxCell id="aVhsx4itOtd-jSzYnk_L-2" value="WebSocketHandlerAdapter only needed if not using WebFlux config" style="text;whiteSpace=wrap;fontFamily=Architects Daughter;fontSource=https%3A%2F%2Ffonts.googleapis.com%2Fcss%3Ffamily%3DArchitects%2BDaughter;fontStyle=1;fontSize=14;" parent="1" vertex="1">
          <mxGeometry x="805" y="480" width="220" height="50" as="geometry" />
        </mxCell>
      </root>
    </mxGraphModel>
  </diagram>
  <diagram id="MzJKekjpJilV7tWweaNu" name="WebSocketConfig-explained">
    <mxGraphModel dx="1420" dy="3" grid="1" gridSize="10" guides="1" tooltips="1" connect="1" arrows="1" fold="0" page="1" pageScale="1" pageWidth="1169" pageHeight="827" math="0" shadow="0">
      <root>
        <mxCell id="0" />
        <mxCell id="1" parent="0" />
        <mxCell id="4LhO0FYTYpKC7dLyDTdA-4" value="" style="shape=image;verticalLabelPosition=bottom;labelBackgroundColor=default;verticalAlign=top;aspect=fixed;imageAspect=0;image=data:image/png,iVBORw0KGgoAAAANSUhEUgAAA0cAAAOxCAYAAAA+cdyHAAAAAXNSR0IArs4c6QAAAARnQU1BAACxjwv8YQUAAAAJcEhZcwAADsMAAA7DAcdvqGQAAP+lSURBVHhe7P3fry3Ldd+Lrb9HT/nhKPF0ogvkIVBekhfxwQ/GvQLp+SDkKdgIluzY58Q5THQvbuLeSAgYOSRvAOXIK1qGjhH7LFGSscgjU5a1RebI0jpbgDYZ8jCktri2GF+Skq7ta7BTo350j6quqv4xe/5cnw9Qe6/uqho1qqpn9/jO6tl91QLAZP7kT/6k/dGPfkQikUgkEolEusCEOAKYAeKIRCKRSCQS6XIT4ghgBogjEolEIpFIpMtNA3H0//ov/jvF9KX/y8+0P3rzypcEeHogjkgkEolEIpEuNw3E0fv/+X+3/ff/4T9m09d+9T9r/9n/+W+0f/7//ciXBnhaII5IJBKJRCKRLjcNxNHt//G/1/43//4/ZtM3vvz329//f/5n7fv/p7/RvikJpG9/vv3Zn/18+22/afnys/Yq2fflZ1ftz34+KhXx7c//bCX/2+3nf/aqvbry6dmX/f751NuZjvSn8yft/0KCTfFP/FzL7lzWbvuYfdkVxBGJRCKRSCTS5aaBOPrHn/3vt3/x3/zHKP0v/t4/bv+z/+L99v/z1V9qX93//faFEUi/+p9vfI0UES4/22q94YL8Z20vYYZlUmqiJRVW3/7855XtecwWRwPx9+X2mRcwHabM55frNYe0E43ZAckJ3AtAhGaNsXwBcUQikUgkEol0uWkQDf7y//6vtT/6q/82Sj/9v/q/2aT3SbkSIl76xRwRD8/aZ3rfhOC7LFrGhdUcdhVHs+tP5ZgC5ULFkVASQFOEkYA4IpFIJBKJRLrcNIgI/6v/3f+g/a//4r+NUhBHep+UKyK30QUlJIG2/K336b8N+pa0IDSc6Piyun2uF0SSF69E9WhbuVv58u30f+t2BuWlL35b0rMvTxNqJZ8GfQx5UTvOvvbTbMXj8vl+PKUtNbTRtrPxebvSZcvLPCTtDPuYtr2gPwmRvZwPsi+q6wS27Uau/EykribdriHi6Ic//CGJRCKRSCQS6QLTICr8/Fs/3f7gx/8hSkEc6X1SrogNsF0w2wXCss8HvDpgj4P5XmxIPR382m0dMIcgWe2zQXtvzNXx2/pvTedfEpCX/DIV1KqKCtoLjPrU9dEJnq5o1I4rGwRFbNMLJb8d+x1vu/YK/kr/+4IT2/Y2/Xa1PwptL6LzQY23oH3TlPZPIAiiOcJIQByRSCQSiUQiXW4aRIb/6O//D9s3P/wPXfrW9//CCqP/6bP/e7RfypXpg9svP9PBsvytA18XQFuRo5LEu8MAOi9EbEBuA/kkoLaEOrk8h23H5MUrFWW/TAUlHMp2HTWffNsqM9ouCpSMTSUSxsRRPKZJP0N7c9qe2h9FvD/vgy7TH0NCwecFSP25II5IJBKJRCKRLjcNosP/6//2f9R+/7/+D1168SePVhz9L9/6x9F+KVfDBbdyC1cvaGygbvZNERfDwLq0ShNs1AJ3+b/czpWp97NRftkvUyESDtKnnABw1Hxybeu60XZRoGT6skgciW+qrG7vYOJogg+RL5XyMwnCaK5AQhyRSCQSiUQiXW4aRIbN3/nr7ev/379vv/T7327/y9t/3f7P/87/w4qj/8M//h27PyQpV0UCdhEdcaRugtn+NixBgvfcrVESQOtbwOy2LWcC5Gc6IO7FQmqrr1NvxwbqEmir9krlbTkdkNt6sSCRfobtmk9d255oO2lH54nNvp4TDNpm356MTUkcxSLL1gvtjbS9pD9Sb+hHxQeDrBg9k9Q1Vy8/lVQQzRFIiCMSiUQikUiky02DqPC/vN603/3Bv29/6//9HSuK/mfXv9z+nf/qK+03Xv+F3R+SlKsTB+aWnJAIwb3Z75JehfAPD5Ckg2ARXl15bS+xFQXOcV4I2nUAH+w6e3m/9P44aFdl404XfYraNkTbFYESt2fEgnogQ5wXPyUw117w62efPVPtxX2M6y3rT14cub/zPhjsfPSCVaiWn4DUy1Han4I4IpFIJBKJRLrcNIgIf+l/8zfa77z5d6NJysFpkIqSU+dY/o4JoCkCCXFEIpFIJBKJdLlpEA2+8+x/3H778d+NJikHp0Bmhe6kcStP5+NvDOKIRCKRSCQS6XLTQBy9/b/+n0xOcBz0rWWSzmXVyP5eSXw+V2VkQByRSCQSiUQiXW4av48IADoQRyQSiUQikUiXmxBHADNAHJFIJBKJRCJdbkIcAcwAcUQikUgkEol0uQlxBDADxBGJRCKRSCTS5SbEEcAMRByRSCQSiUQikS4zXV1d/3E7lvbJv/t3/87/1bZ/9qOfkEgkEolEIpFIJNJRkhVHIlBq/+8TxBGJRCKRSCQSiUQ6hXQ1Joy0eNkH2n7OQRKJRCKRSCQSiUQ6RLr8laOPfq19fvWp9vkvfTefTzqh9Kr9Bz/dv9z2r/3Sq0yZFdNH/7D9a6adv/VPMnnZ5PybXv7IaXb/9pkqc3tSfpJIJBKJRHrKaaWVo8f2vrlur6+v25sHv2si2n7OwZ0T4uh80j/Ztlc//Q/bfz3IWypKRuohjg6XinNrEuKIRCKRSCTSiaQVVo4e2pvrpr1/dAIJcURamv71L/319urnP8jk7UkczU5nJo5OKJXnlkQikUgkEul00oq/OVpBHHkh88s//7x9y/xv08//nnf2u+0HP+33+RQLnjT/WfvBR2Z/Io5+9+d13RGb/0T5EVLwx9sN++eIr1/5+f72oqurbfsrIc9/gx7yQhAugeVf+6V/2P4t2f/T/7D9B77+eJDugvm+LUnj7f3Zjz4wbW3bfyABrc/L3QY1rDfMm1LPBs5qv0vOz3zeX2//gcxtsJtJY/X0HOTGMT9HsTgKbXT1K+Mi9v6WmcM+X81DJcV+aJv1ORrrXy3l+27SguOlNrdpWwM/ZbUpqqf6WDvOVN25fSeRSCQSifS004q/OVpPHL119bz9XXHQi5NfzgQ4f/xLz0yeF0CdyPH1dFLiKAijnD1Jsc3fa39ZiR6XF+zHeTU/02SDwdw36DbYU0G/2nYBpgSUEoS6QFD2DQLCkfQrP5+3P9x27XR+2kAzBLQuEO4De9nu7Uj/sgFptT2XbD8PunKUzy/OkSpvy0S3iY2Piy5fHKdasmOm50H5mRnPJeNW7Ht1/hJfouPFpfLcSsr5GY9felve6PghjkgkEolEIi1IJ7ly1K/C5ARKv1pTWh2KUrLCkwqYos2aOMqtKKmy5ZQEfCrlgscQAPZ5ff254kjK60Cx1p5rRwW3Oii3f5tAOEp9n6xd2ZfYrrdXLuPS/CDfpbF6E4LyKLnyuf6NjctoMF9KPsjvkxZHWoDk+jJ33JYdn9Xjxafy3EqaMA+JOCodZyQSiUQikUi7pJNcOepEht72giQWK9PF0fNf+jUrdt766V9r/zjk1Wya7bDSFFInrGasFMVpWfDZ5/X1Zd9kcSSBZWK71l412E2C1GIKQb1vo96eS7kyLs0N8kMaqzchKI9SKC9lknoj47JMHCW+RKIjmaNsX+aOW7nvi48Xn8pzKynvp9jvRWFhTpLjjEQikUgkEmmXdNIrR5FYiQRJuI0uCJlpt9WFv7vfDdVs2rK9UMrZ7H8PNTW5IDAbyNmAMg2E3XYfWPbBq+yLxJEPEoeBsKmTC9or7dWDXcmbGHDretX2XKoF0BIoF8Vgse8j9SqCIu+HKm/913Xr4zIqjnJ9SMbIiQU9D2qObH21bVNedNiUHbNlx2f9eHFptjgSG1NEuKRMe6F/c1ZXSSQSiUQikVZ6Wp17jLdOU0VSThyFlZp4dSZ+eMIv/1IqXtxtcH1dLXJSwWXyrbCp20xXjiLxNfC1IKQGyQegJnBzKQ1ww/4+EJ0ijmwZU+9v5YLdzmZst9TeaLBrt5XNLogdthf5U2zPpWoAHbUZ18333adsvdy46PqlOXL7u3JpAF4cl3FxVOqDE0QuuYdyBF+cGOvaisZkrH+1MSv13aSlx4tJ+bmt+6n77lI8Dzpv0I8wF0VBRiKRSCQSiTRMK64cLUPbT4XMUZNdVcqIr9mrRSTSPlIiSC4tWSEW90/E0vSVICegWDkikUgkEok0J634m6NlnKo4Sn9/dFLCjUR6cuLIrZQNV7qGKayKIYxIJBKJRCLNTVYcjaV9cqriKL3lThLCiHQ66cLFUebWOcQOiUQikUikfSd7W91Y2if7tg8AAAAAADAFxBEAAAAAAIABcQQAAAAAAGBAHAEAAAAAABjWEUeP921zHd5x1LT3j37/BCbZBwAAAAAA2DMriKPH9r65acM7Xx/vm/a6uTd7pzFuHwAAAAAAYP+sf1vdw017fd2LpTFm2wcAAAAAANgDq4sju3J0M1UaIY4AAAAAAOA0WFcczVw1EmbZBwAAAAAA2BOriSO7YjRTGAlT7QMAAAAAAOyTVcTRUmEkTLEPAAAAAACwb3YXR9FjvPs09WdHo/YBAAAAAAAOwOoPZJjLvu0DAAAAAABMAXEEAAAAAABgQBwBAAAAAAAYEEcAAAAAAAAGxBEAAAAAAIABcQQAAAAAAGDYuzj6yU9+0n7zO6/b337x0P76V75m/5dt2S9k7d89b9+6+lT7ueZ7fgdcDq/aZnPVXl25tGle+f174lXTbkw72zu/PYrzb3r5IzO7f3tkqS9n3YczO14AAACgyiri6OFGv+Ooae8f3X4RQF/5vY/br7z4uP3k9Q/aNz/8C/u/bMt+yc/aPxlx9L32w82n2re2L/w27Mzdtr3aNCakTFkaZI7UQxytyNKxXnuOlvGq2XSiXKdIoK95vMixfrVpO/MHnSsAAABYwuorR4/3TXvd3Leij15+87vtb/zuQ/v9H/7VIMl+yZ9r/7AgjtbGBqjZ6HCpKFlbzKxt75I4lTnalbt2e7U1/65BuW9yrG82Jnl19KrZttttvw0AAACnx37E0c2D/fv9+6+3f/itP2s/+cGPB0n2S35s34uRK5f0ytHLrdnePm8/J3mb5+2tL3crQcmr9+3+W5Mf6kaCxq9EhdTbde3J9pvmmc9/3r40OdKeruPSs/bDiXHN3VZ/O60CMf/tccgLQZUNpJrGBG1m/6ZpG19/PKB0wVnflqTx9kKA2Khv03PfoA/rGZK8KfXy39o7P/N56hv3AmP19BzkxjE/R3GwG9ro6lfGRextzRz2+dMC8NgPbbM+R2P9K7LgmFg61jvN0dJjcJS8OBobz3iexo8X+XvT3JnPsqyUmnLmb7fP+7q0f5W82MfEpl3JivMn+SL4uoP9AAAAF8ZK4uihvQm31flVI+Hzv/bb7cd/+m/bv/m3/+4gyX7Jz9r3YicVR1a4qDy7T0SQ3xeETRBDWjh1tnReEEdGVN1K/qDdZStHNkDJRRE2AElvs3HbLqiSgEsCNxe0RIHURO62efvDbddO56cNfkLAlwaPst3bkf5lg6Rqew7bz3zlhasLY/Xy+cU5UuVtmegWwPFx0eWL41TDjpmeB+VnZjzH+59S60PSXnRMCMvGelm9mp/i2pw+p6S2NXlflxwvcqzLflkxamTVyP4dPtPL+ze574NjSR07Mredr3VfLIgjAAB4Iqz/QIaHGyOSboxcattf/c3fb7/+6nX7je//aJBkv+Rn7ZfEUSeE3ApOKo768i/aW7/tVoS8aLL0ef1Klc7XLBFHmcDCkxMGIdDp8/r6fSA1jRCMBWrtuXZUQKQDKfu3CfSi1PfJ2pV9ie16e45cGcdYAF1iaeCdn6NQPte/sXGZHLSm+MCzTzqg1UFrri8zx63ah8oxYVky1sKCeguPwWmk46rJ+brseOmOBzWO4rf9TO/Qv2rfq8eS6oMWRyO+AAAAPCXWF0d2Fck9lOHhG99t//m//DftJ3/+40GS/ZKftb+rOFLbk8RRUfyckTiSYCexXWvPtVMIhHXgVCMEYr6NenuOXBnHWABdYkHgXZmjvryUSeqNjMsycZT4oufB5qk5yvZl5rhV+1A5JixLxlpYUG/hMTiNdFw1OV+TOYoI5aVMXC97PIi/snON/g3yEj+T+RN/nPCRpMpN9QUAAOAJsJ+VI39rnTyN7rf+1R+1v/k7f9T+8SeP7Xcef2T/l23ZX3xa3Y7iyAki//ug5Ml3Ud5UcbR5v33j94zjgqVsMGODlTR4cduTxJEPhoamTZ1ccFNpz7VTCoSHgV4RXa/anqMsjqR7ld+OFPs+Uq8LXv2mpTJHurz1X9etj8uoOMr1IRkjF8DqeVBzZOurbUuuf57smNX6UDsmHPPH2jG/3sJjMFA5Xgb9jMj54vbNPV6yx4P4ZXfu2L+AzrN/F44lyauK4hFf/HiW5xAAAOAyWEEcqd8bJb85EkQA/cm3X7e/9TsP7T/9F1+z/8u27Bdi+25Vp38Agkvy+6Ap4iitE+gftpDmTVgZih7mEETVGD6YMsGESyqw8UGGS30gM0Uc2TKmXhzEpG3FdkvtuXaUX2kAZreVzS6wGrYX+VNsz1ETR3Gbcd183z3Zerlx0fVLc+T2d+XSoLA4LlK04J+n1AcXxLrkHsoRfHFBa9dWNCZj/Su3V+7DyDEhLBprw5J6RT+H9dI+Vo+XtJ+WsT6k+WPHy128PyD5Yeei/tX7Xj6W4jyX0rlWeeq4toT8QYcAAAAuiz3cVjePVexnVpoAzp9cEA+wACva4mNJxNL0lSAnylg5AgCASwdxBHCyII5gJQbiyK1KTlkICqtwCCMAAHgKII4AThbEEazF8HY8xA4AAMCQyxBHAAAAAAAAO4I4AgAAAAAAMCCOAAAAAAAADKcpjpJ3E8ElEf/2Ye+/e/CPIJ7+BGLn39k8sXh2/54Ilz7vAAAAsBdWFUeP941919HNg98xgaz9kxFHE96DBPOQp2al71CxLA1OR+ohjk6Adcc0PD0tTZHQXnneq+8I2gtndhwCAABcCOuJo4eb9rq5aW+aFcTRyYA4Whsb2GYjvqXB4NpBJEHp+uxrTNd8ml/dRxFHhz0mOA4BAACOwUri6KG9uW7a+8fH9n4nceTFyJVLeuXo5dZsb5/bR3a/tXne3vpytxI8+Ed535r8UDcSNH4lKqTermtPtt80z3z+8/alyZH2dB2XnrUfTrwLLP6mWQVw/hvtkBeCHxEN7o32Zv+maRtffzw4ckFU35ak8fZCYNmob+Fz37wP6xmSvCn18t/2Oz/zeZt27I67sXp6DnLjmJ+jOCgNbXT1K+NiA2gzh33+tMA99kPbrM/RWP+K1OYoWdWTNro2i30v+zk6t7VjaZS8OBobl3i8p8271MnZOsqYCfa9RXmfAAAAYDmriKOHm+u2uX80f+0qjjyZ9xY5sWKEi8qz+0QE+X1B2AQxpIVTZ0vnBXFkRNWt5A/aXbZyZIOvfCRlAqU0MHTbLiCSQE2CJhcoyb55waK0nbc/3HbtdH5GL4lMg07Z7u2UAsV6ew7bz3zlhd+Uj9XL5xfnSJW3ZaLAd3xcdPniONWwY6bnQfmZGc/x/qfU+hD3Jy47Vq90LAllHxeNUUfqk2bNeff7pI8hdfl6HATtU+qfLit/GzvBlxljZkEcAQAA7IXdxZHcTtepoT2Lo04IuRWcVBz15V+0t37brQh50WTp8/qVKp2vWSKO0mCpJycMQnDY5/X154ojKa/N19pz7ahgTAfl9u8kGFR9snZlX2K73p4jV8YxN8gPjNXL5ZfnKJTP9W9sXNK+TsYHun0qBde5vswctwl9iFYwguFqvcqxZCn7WDqWppGOj2bFeTfU5vbQYwYAAAD7Y0dx5MSQPIRhkJp7X6ZO1v6u4khtTxJHRfFzRuJIAuzEdq09104hOBNbyTfnWUJQ79uot+fIlXEsDQbH6i0Lkrd3UiapNzIutQC6TOJLFCQnc5Tty8xxG5tbad/mi13lV7Ve5ViyTPAxOZamkY6PJtdmMtYRobyUGfpandtjjRkAAACsznoPZLCcxsqRE0T+90HJk++ivKniaPN++8bvGccFNdkgzwZAaSDstieJIx9ADk2bOrkgrNJePTjLB4hZdL1qe46yOJLuqd9qpBT7PlIvG2RW5kiXt/7ruvVxGRVHuT4kYyQ2iitHtr7atlSC6OyYjc2t2DP+3Bm/omOqVi/xUx8TnvoceTL18n0IJO1GrDnvzv+8D8IRxsyPy+iYAgAAwCxOTBy5VZ3+AQguye+DpoijtE6gf9hCmjdhZSh6mEMQVWP4IMwELy6poMcHNS71QfEUcWTLmHpxsJW2FdsttefaqQRnPkDs6nZB37C9yJ9ie46aOIrbjOvm++7J1suNi65fmiO3vyuXBqHFcZGiBf88pT44QeSSeyhH8MUF111b0ZiM9a/cXq0PFt/n6fXGA/24bnmO0jar8562a9nPvOs5iut5DjZmnpCXHxgAAABYyMriaD6r2M+sNAGcP7ngH0BwYo6VIwAAgHVBHAGcLIgjGBJW0xBGAAAA64M4AjhZEEcAAAAAh+QyxBEAAAAAAMCOII4AAAAAAAAMiCMAAAAAAADDaYqj5N1EcEnEj1Le+4/K/SOPpz/xOHmk86kzu3+XxIGPpV3JPa77lLj0z8q5cerHCwDAhbKCOHLvNrq+VmnGi46y9k9GHE14DxLMQ94Hk75Xx7I00Bqphzg6AfY0psVj6UQ5YrAbnnCXpkhQrvxZGX031OqU/Tm8LyuAOAIAOAqriaM5L37VjNs/JoijtbFBWjaaWhpArx147ymQf9LsZ0zLx9KJchLB7ppPQKzP69hLkden7M/hfVkBxBEAwFE4MXHkxciVS3rl6OXWbG+f20d2v7V53t76crdy5fCP8r41+aFuJGj8SlRIvV3Xnmy/aZ75/OftS5Mj7ek6Lj1rP5z4NXX8TaW6wPlvZ0NeuGBLoLdpGhO4mP2bpm18/fELugsI+rYkjbcXgqRGfaOc+xZ5WM+Q5E2pl//m2vmZz9u0Y3dJjdXTc5Abx/wcxQFWaKOrXxkXG4CZOezzpwU2sR/aZn2OxvpXpDZHyUqMtNG1Wex72c/Rua0dSwXyNqcc864/wzkqBNVqZao8RyWbnsSX3fz0LBiznrw40v0bjIMh7n+oX/+s2D5kbB3jOCv5Yrn040UQ35I6AACQZw+31TXt/aPPmkDWfua9RU6sGOGi8uw+EUF+XxA2QQxp4dTZ0nlBHBlRdSv5g3aXrRzZC2PuKmQvbmlg6LbdxV0uaBIAuIu+7JsX+EjbefvDbddO56e9eIYLahpAyXZvx16IM92rt+ew/cxXzgcco4zVy+cX50iVt2WiIG58XHT54jjVsGOm50H5mRnP8f6n1PoQ9ycuO1avdCwJZR8XjZEneyyNHIOlOZL/3Wet72fxWI3mqGzT2VL9G8xtaTxrNuO/55O2q1nzs+L3yXERUpcf9zX2qTYu8rex0w/ErOMs68sTOF4siCMAgMms/kCGx/vGCKSbdupCUtZ+SRx1Qsit4KTiqC//or31225FyIsmS5/Xr1TpfM0ScRRftDS5i2e4iPV5fX3ZN0ccSXltvtaea0ddbPWF2P5tLrZR6vtk7cq+xHa9PUeujGNukB8Yq5fLL89RKJ/r39i4DAKSqfjApU+lgCjXl5njNqEP4ZiL5qpar3IsWco+lo6lKeSOpbFjsDRHUs/228zFZuM+R90+oThHZZu2jgpYjcF+XHY4lnYZM2M5OaY0K35WDLU+SN4hj7PavF/68QIAAPNYXRwZddQ2M1aPsvZ3FUdqe5I4KoqfMxJHcmFNbNfac+0UAo30Il0iBAC+jXp7jlwZx8wgv2Os3rKAb3snZZJ6I+OyLEBJfIkCvmSOsn2ZOW5jcyvt23yxq/yq1qscS5YJPibH0hRyx9LYMVicI2nfZLxqtm1zZ/w3f8efldIcjdjUYzbjMzbpWFowZqZSckxpcvOU9D0ilJcyQ3+rfTjwcVby5UkdLwAAMInVxdHDzXV73dy3U++sy9rfURw5QeR/H5Q8+S7KmyqONu+3b/yecdwFOhuw2ItdetF02/1Fur+wyr5IHPlgaGja1MldOCvtuXZKgYbkTbzY6nrV9hy5YCQgF/iiGCz2faReNmCqzJEub/3XdevjMhqg5PqQjJHYKK4c2fpq21IOCLPtjfTB2TP+SMAXHVO1eomf+pjw1OfIk6mX74Mjeyylx1xmfLN9kHKbbbvdSp/NGGzN3yFoz9iYtBIQ1fPHXFdvx2MpYNuYPmau3aR8R+5Y8n7nO9iXt37Edet9kLpmbA50nE2bo+F2td45HS/+mBj9DAIAwB5+czRDGAmxfbeq0z8AwSX5fdAUcZTWCfQPW0jzJqwMRQ9zCKJqjHBhC0ldwP1FyqX+AjpFHNkypl58EUzbiu2W2nPtVAINu61sdgHMsL3In2J7jpo4ituM6+b77snWy42Lrl+aI7e/K5cGFcVxkaIF/zylPrjgySX3UI44IOraisZkrH/l9mp9sPg+T683HrTGdctzlLZZm/fisVQ5Bstz5MY6zLNrt+9DeY5qNnv/JbkVlnScervTjqXdxsz1M5mbjM24fpof6rv9Xbnks6LHLK7nOdhx5nzJj4fhoo8XT6hbLQQAAML6t9XNZBX7mZUmgPMnF8gCAMzFCVn9ZRsAAORBHAGcLIgjANiNsBqFMAIAmAbiCOBkQRwBAAAAHJLLEEcAAAAAAAA7gjgCAAAAAAAwII4AAAAAAAAMiCMAAAAAAADDeuLo4WbRu44m2wcAAAAAANgjq4ijx/tm9stfA1PsAwAAAAAA7JsVxNFDe3PdtPdLlJFh3D4AAAAAAMD+2V0cPd63TXPfPsjqkb+trpmhlEbtAwAAAAAAHIB1xFEkiOatJI3aBwAAAAAAOACrrRxpLfRwc93ePPiNEUbtAwAAAAAAHIAVfnP02N43SgzZlSRWjgAAAAAA4LxYQRwZ/K114TdHU1eNhEn2AQAAAAAA9sw64mgH9m0fAAAAAABgCogjAAAAAAAAA+IIAAAAAADAgDgCAAAAAAAwII4AAAAAAAAMiCMAAAAAAADDaYqju+ftW1efaj/XfM/vgKXcba/aqyuXtnd+Z8Srttn0ZTbNK79/Aq+adlO0CwAAAABwXuwujh5uuvcb6TT1XUdZ+ycjjr7Xfrj5VPvW9oXfPlecAMqKmLtte7VpTIk8r5pNWVjNFEdia5b4AgAAAAA4IHtYOXpob66b9v7Rb44w3/4huXxxZMVPSd1Y4bRttyVhNRPEEQAAAACcMquLo8f7pr2eumxkiO17MXLlkl45erk129vn7eckb/O8vfXlbiVof/W+3X9r8kPdSND4laiQeruuPdl+0zzz+c/blyZH2tN1XHrWfjgltvcrKrnb2eQ2t22j87dtly1iRNWTNElMJO0N6wzFUVgRipPyxfy1vdq0zau0bnwbnqSpwqkqjipjVh2XWt7SeRC83al9AwAAAIDzZ2VxNG/VSMja92InFUdWuKg8u09EkN8XhE0QQ1o4dbZ0XhBHRlTdSv6g3QUrRzYgF1GR37a/AVK3sdkg3foSxIjdLRnV2900vY0S81eOxKYTGeW69bwhRXFUHbPauIzl5cSe3yrOgwdxBAAAAPDkWFUczV01ErL2S+KoE0JuBScVR335F+2t33YrQl40Wfq8fqVK52vmi6Oc2NCBd1nILBdH3SpQMZKfKY6k7W7f/sVRfcwWiqNk1cilWBxN9RsAAAAAngbriaPH+7aZuWokZO3vKo7U9iRxVBQ/hxRHLi8XyE/Gr3YMRdIcceTK9n6oNBBrhxBH9XEp5o2Iy9o8AAAAAMDTZDVx9HBzPXvVSMja31EcOUHkfx+UPPkuypsqjjbvt2/8nlEm3FaXDcql3NhKkRc/1aDetpf8fqYiYnLCJKYmgAp5BT9L4igdo2i7Ni7VMZNVpfJYjYoj34esvwAAAABwkawjjhauGgmxfbeq0z8AwSX5fdAUcZTWCfQPW0jzJqwMRQ9zCKJqhLCCY5MK+g21oDxeBZEUixwrZMz+uP5wpafPH+bF+d5mVSXMF0d5P/v9WV9GxkzX0eNSHTMrslSeElKj4ijUrRYCAAAAgEti5QcyzGcV+5mVprPDioNYDEkAf9orFzXhtBK1cdnrmLm+sXIEAAAA8HRAHJ0Kg0C/flvYSZARJ6tTG5c9jVlY4UIYAQAAADwtEEcnw/AWuJMMzpNb1fYv3mrjciZjBgAAAABnwWWIIwAAAAAAgB1BHAEAAAAAABgQRwAAAAAAAIbTFEfJu4lgOfpR1/nfB8W/25n1mx3/+6OTfmgEAAAAAMBE1hFHDzft9fV1n2a8DDZr/2TE0YT3IJ0FTgBlRYw88a3y8tnSO4ssM8WR2DqHByZoQenSGk/kq8wBAAAAAJwEK4ijh/bm+sb8G5Dt6S+EHbd/TC5fHFnxU4rYrXDattuVgvpzEkfrixjEEQAAAMCps4I4emzvm+u2CWpIVpGae7N3GrF9L0auXNIrRy+3Znv73D6y+63N8/bWl7uVYNM/yvvW5Ie6kaDxK1Eh9XZde7L9pnnm85+3L02OtKfruPSs/XBKbF953LUNvBudr1Yl7Ht7+nqSJomJpL1hnWFgHlaE4pS+M2jTNq/Sum5b15sa8FfFUe0R4bVxqeUtnIeaOEpXldJycb6zmR9rGVtXZ4mf1ma04ufmJRpfPzalvgAAAABAzGq/OXq4mX9LnZC1n3lvkRMrRrioPLtPRJDfF4RNEENaOHW2dF4QR0ZU3Ur+oN0FK0c20E0D337bBs8qqO0D8SBG7G7JqN7upultlCivWtggO5MhNl2gXa5bzxtSFEfVMauNy1heTuz5reI8+LxOjMTlIqyfsagqrsKVxmqt4yXxxYI4AgAAAJjFaitHQRRZkbR45chTEkedEHIrOKk46su/aG/9tlsR8qLJ0uf1K1U6XzNfHOXERhp454PVWqBfp1uZKEbBM8WRtN3t2784qo/ZmAAq5Fmx4MVNl2LRUfK7lmfbiGwGQZL4MiA/VsuPF5cXxrM0tgAAAAAwnd3F0eN921ynvzm6bqcuIGXt7yqO1PYkcVQUP4cURy4vF8hPJgTugwbmiCNXtvdDpYFYO4Q4qo9LMS8SUUPG5iGfV1utObw4su3bPkrbyaoRAAAAAMxmJXGkHsCQbo+Qtb+jOHKCyP8+KHnyXZQ3VRxt3m/f+D2jJLdFpdvFYLcLdCt48VMMloUoYA/MEUcpNQFUyCv4WRJH6RhF27VxqY6ZCIbyWC0SR4mfUq5fOXJjURtLKT/of63vhpqfwt3WlG3MeOcK+XlgRQkAAABgGqv85ujxvoke5T3nZ0exfbeq0z8AwSX5fdAUcZTWCfQPW0jzJqwMRQ9zCKJqhLCCY5MKfA1jQXlfT1IscqyQMfvj+j4oV/X6/GFenO9tlhyyzBdHeT/7/VlfRsZM19HjUh0zKzRUnhJSY/NQywv2Nk2TrNik4x3PX+yP6uPC48VSEKKW0F7VAAAAAAAEVnsgw1JWsZ9ZaTo7bJAbB9MSGJ/2t/414bQStXE5yzFbGRmD4uqZmx9WjgAAAACmgTg6FQaBfv22sJMgI05WpzYu5zhmq1Lub1ilQxgBAAAATAdxdDKkt2SdaGCb3Kq2fyFSG5czGbM9EG7vQ/wAAAAArMdliCMAAAAAAIAdQRwBAAAAAAAYEEcAAAAAAACG0xRHybuJ4Ej43xet+7ui+HdCl/ObGdevp/MwiCfIXj4PAAAAcEqsI44ebtR7jm7aGa85yts/GXE04T1Il8w+gsHqo6fPmVMTR/vw51wE4FI/R+odTBy5pxCGLxAknf6YAwAAXAa7i6PH+7bRgkiEUnPfPvrNMUbtH5UnLo72wPhLZ88VxNHpsCdxdDBEHKlH1B/ikfkAAABg2V0ciRi60WtFD+3NddPeT1RHsX0vRq5c0itHL7dme/vcPrL7rc3z9taXu5WIwT/K+9bkh7qRoPErUSH1dl17sv2meebzn7cvTY60p+u49Kz9cMqSR+Vx1/II5m2j89MgqK8nadJtZ0l7fR0XZDX+nTepvZov4VHRkuJgsW6z1Ifw3p04xe1N8UVS8Edsbkwd+y37pmkbX67zNzsPhQBYr2gtmr/YbujvoJ0CcR/VMVH0pTwP+bHetN00lWz6uYvbqM2fslmhNH+1PtTzDIU+jPlZO5b0fpfy9Xr/PQvmqI6r15tRx6YwcnyG/XHeBF8G8w8AAPD0WEccXfcrR4/3jdleKo48mfcWObFihIvKs/tEBPl9QdgEMaSFU2dL5wVxZETVreQP2l2wcmQDlzQQTYIsFejItgtGJHhR9dKAqEJvI0VsmvZC5mRfAjkhkdi0AVUI5Mb7YIPQjLPjvnhsH1x7LqCVv51PIYh3QZ/sUwGm3Xa+ie20TOfX4vnrxyotM4Ytn+ts1RfX5/w8CKVVkPK4uM3eTj9OgZLNGaj5c22X+lDJG5mjyX5Gvghj9TL5VV/G5qiEr9cl3TfJ0zZkW+crov5N8MXu23F+AQAAzpxVfnPkBJH7zVFzf7/DypGnJI46IeRWcFJx1Jd/0d76bbci5EWTpc/rV6p0vma+OMoF/30AHf8dkwQ5EqhMDLCdSFCBT0caSMXBXdmXQC5YTGwOArB6H3LjI1R98UFbn1x7va2+XdlnA3rrl64jKSlj7G42G9tu2Jfzb9r8ubGy7eQLFEjGTFH3pTYPQiHQr4xLwLab7UfB5hiF+av3oZw3NkdVP4u+CGP9G+bvNkclcvX8HI3N36KxBgAAgMA6D2TQpL9BGiFrf1dxpLYniaOi+DmkOHJ52YBnKiEw6hpIAqIkuKv54sgFi/Uga6wPufERyr5Ie8qOaq+31ZeRfUH4FMWl5Jl6r5pt29wZe+bv0P7y+QtjJb6UyuRI+qeo+1Kfh94fvxmojYvHjqERjcN5KtisUp6/eh/KeWNzVPaz5osw1r9h/m5zVCKpZ9v1flfnr9a/pb4AAAA8LVYWR4/tfSOrR1Mfx7AfceQEkf99UPLkuyhvqjjavN++8XtGsUFHGqD028XgWsqNrRR58VMO3gy1gMjW77fLgX4gFyxWgqwJfcgFk0J1XJLxm7RyZPfVxnrbbrfiq+nj1vwdgs+kvVz7WZt6rGydTLns/Ll6uTGp+zIe7Iqvbiw0lXERuuDb+ZXWz9v05PqXGb9dV45Sm4NtQ9bPqi+Oav/0HAeqvozPUXbMqvUq81ft33Rfyv0HAAC4fFYQR04QhdvqomczTCC271Z1+gcguCS/D5oijtI6gf5hC2nehJWh6GEOQVSN4IMMl4ZBWykwdcGMTnHwYsWA2R/X98G1qtfnu0Cqz5vqy9CmJFe2HmRN6kOm0anj4h7A4GzWxZEtYHxTvnTCzY1LKOfGVfm5aP6SwDkTaObnT0jHe4ovE4LdqP+qbmlcbFvDclGwXLJpKPWvNH/1Poz0rzJHloKfZV882Xq1z4NhhznKj5k7PvM2DZGPJqkvJJaNtSfYHR6gAAAAT4b1b6ubySr2MytNZ4cNsOJgRQKd3b7FTQKifbOXPgDAYXAikM8rAAA8ZRBHp8JAWLhvj3f7EvfY4miNPgDAvgkrWAgjAAB46iCOTobhrTu7ByoHFkd76QMAAAAAwGG4DHEEAAAAAACwI4gjAAAAAAAAA+IIAAAAAADAcJriKHk3ERwJ/2jfdR+oEP8u6XJ+k+T6xcMnLpi9fB4OTeXzdy79u4h5AACAU2WGOOrfZzR4l9Hjfdv49xxdXzftjHfAKvuKkxFHE96DdMnsIwiRJ9qNvCj2PDk1cbQPf85FAC71c6TegYNy/c6i7LucllD7/J2M6DiteQAAgKfFRHH00N5Y0eMEUiyOJE/ts0LpxuydhrN/qjxxcbQH7CODLzKqOTXhsA9/Tq2PJZb6eSr9c37s43NyHp+/cznOAADgEpl5W11GHD3ctNfNvclxPN43+dWlArF9L0auXNIrRy+3Znv73D6y+63N8/bWl7uVC6h/lPetyQ91I0HjV6JC6u269mT7TfPM5z9vX5ocaU/XcelZ++GUb2/9N5vhW199kZdvg7eNzleP2rbvCerrSZp021nSXl/HPcq78e8wSe3VfNHfWsdBSt1mqQ/hPSpxitub4ouk4I/Y3Jg68i4l+Ta88eU6f7PzUAi89Dfqi+Yvthv6O2inQNxHdUwUfSnPQ36s1cpDyaafu7iN2vxNW80ozV+tD/U8Q6EPY37WjiW936V8vd5/z4I5qmLtqWMgZbVjIv8ZG/SveF5y7XXFE7/F5pLPtN7v0gHmYXDsAwDAU2VncWTFkN/xcHNthdK9+b+ZeG9dbN+TeW+REytGuKg8u09EkN8XhE0QQ1o4dbZ0XhBHRlTdSv6g3QUrR/YCnQaiycVd3dZiAwjri1zAVT0drI/Q20gRm6a9kDnZl0BOSCQ2bVARgp7xPtjgJ+PsuC8eFYC5QEr+dj5JwCP7soGb3Xa+ie20TOfX4vnrxyotM4Ytn+ts1RfX5/w8CKVv38vj4jZ7O/04BUo2Z6Dmz7Vd6kMlb2SOJvsZ+SKM1cvkV30Zm6M89lgsHT87tlf6/Dly/c8cH51vkqfsJ+NZ/qwkJPXyfmj2MA92X61NAAB4KqwmjqwwUiJpL+KoE0JuBScVR335F+2t33YrQl40Wfq8fqVK52vmi6Nc8KGDgmKAYC/gpSCkjm1TX/w7kuAlCSrKvgRKwVIpIBrvQyk4q/riA5c+ufZ6W327ss8G9NYvXUdSUsbY3Ww2tt2wL+fftPlzY2XbyRcokIyZou5LbR6EQoBZGZeAbTfbj4LNMQrzV+9DOW9sjqp+Fn0Rxvo3zN9tjvJYm4XP/q7t5er35PovNkuf6Xp75c+K4QzmAQAAnibr3FZ3rcVQ7ndJZWL7nl3FkdqeJI6K4ueQ4sjl9cFCPmCuEgKOroEkKEiCimrwYikFS+VAY6wPpeCs7EsSnKn2elt9GdkXhE9RXEqeqfeq2bbNnbFn/g7tL5+/MFbiS6lMjqR/irov9Xno/fGbgdq4eOwYGtE4nKeCzSrl+av3oZw3NkdlP2u+CGP9G+bvNkcF7Oc4X27X9nL1e/L9F/v5z3S9vXhONGcyDwAA8CTZXRx1D2sImyKWdnwgw47iyAki//ug5Ml3Ud5UcbR5v33j94xiL7zphb/fLgYMUm4kaDWVbYBSDhoM0YU/CQqSoKscvARyQUol0JjQh1JwVh2XZPxCH3pbfbAl+9ytYLKvNtbbdrsVX00ft+ZvIwZstaS9XPtZm3qsbJ1Muez8uXrZgLXqy3jAJ766sdBUxkXoxJPzK62ft+nJ9S8zfv0xWOtDJS+xOdg2ZP2s+uKo9k/PcaDqy/gcZcdsj8fEbHEkNoqfaWkvtO19Vu3JWGabSvpwSvNQbhMAAJ4KE8WReyKde1R3nzqRtNqjvN2qTv8ABJfk90FTxFFaJ9A/bCHNm7AyFD3MIYiqEfyF1iV1wTYUAwaDCxJ0ygQ2Zn9cPwQlferzJSjQeVN9GdqU5MrWA41Jfcg0OnVc3AMYnM26OLIFjG/Kly7Ic+MSyrlxVX4umr8kYMsEW/n5E9LxnuLLhIAv6r+qWxoX29awXBQwlmwaSv0rzV+9DyP9q8yRpeBn2RdPtl7t82DYYY7Kx4Q7RrN2d21v0Fi9f3rMXOptBv8lpeNZ/qzENk9hHrr2Sg4DAMCTYebK0fqsYj+z0nR22At7fMGWAGK3bzKToGDf7KUPAHA0nsxn2gkvzlUAAIA4OhUGQYj75ni3LzKPLY7W6AMAHI0n8JkOq18IIwAAEBBHJ8PwlpHdL9YHFkd76QMAHA8+0wAA8LS4DHEEAAAAAACwI4gjAAAAAAAAA+IIAAAAAADAcJriKHk3ERwJ/3jbdX98Hf+G4XJ+v+D6dbgfqh/692R7ZC/H2ZFIHhOtH1l91v27pDkCAACoMEMcuRfARu836qjl1entK05GHE14D9Ils4+ASJ5+NfKi2PMEcVRmZGwOFXgPjr09zFkijhwrtmOfHqfe4XOosUMcAQDAE2GiOJKXwMrLXZ0IigVQLW8cZ/9UeeLiaA/kX0J5CSCOyhx6bApcgDiSz89m07/o+FWzbbdb9eJjAAAA2ImZt9XVBNAa4siLkSuX9MrRy63Z3j63j+x+a/O8vfXlbiXg8I/yvjX5oW4kaPxKVEi9XdeebL9pnvn85+1LkyPt6TouPWs/nBKD+G9Zc7fTyG0220bnq0DKfivc15M0KehJ2uvruAC6id5i39ur+VK+Hahus9QH/Sb9PsXtTfFFUvDHBor27fpmvwl6G1+u8zc7D4VAVQfOi+Yvthv6O2gnYhdfvDhS4z3pWDHUxnqs72F/mifE+c5mft77lQ9dR9uz9SIh48p2faz4WUSPqyUe/3L/Ro75xJdoPC2FeV5wnLlj/s4c69IPY9f87fY5f5b1Yfw8EfbHfVh2Lujw+YNxAQAAOCInJo48mfcWObFihIvKs/tEBPl9QdgEMaSFU2dL5wVxZETVreQP2l2wcmQDnvS2lyQYVAGaDYKsLxJoqHqDQK5MbyNFbJr2QuZkXwK5oC6xaQOcEAyO98EGvRlnx33x2D7owFv+dj5J4NUHirJPB6m9b2I7LdP5tXj++rFKy9So+qL2Ofo+uL/VPKR+Vyj3odZegpoHwdoMvgwoiIOO0nGm29a+zfBTkwnWi8F51D+xr/o3OOaVjWRcHKX+lftQmiM5Ntz/Ikq23b5IdARqfYiOl1peYP1zgStfGH8AAIAjcV7iqBNCbgUnFUd9+Rftrd92K0JeNFn6vH6lSudr5oujPrDt6YPP+O+YCcFEAdumDlI6xKYOwOIAp+xLYEJQNwjA6n3IjY9Q9cUHUX1y7fW2+na7QNH6petISsoYu3KLkpgI+3L+TZs/N1a2nXyBLDVfzB/FPrg+l+e2RrEP1fYMhXlwvqhyA8Z8y+eLn3YcDNG8jPlZYnA8Ju1W+6fGWh/zqU2d15Hp30gfSnPU7VftdMeLMLUPkU9TjqXcvsq42Lzk2Jl4PgMAADgmlymO1PYkcVQUP4cURy4vFyhNJgRGXQP1oKfmi2NuQDTeh9z4CGVfkiArCQqdrb5MFyjWgjHJM/Xst+93xp75O7S/fP7CWIkvpTIZKr7YvGJAWZ/bGsU+jLaXn4dB3oAx3wr50ob1R/KV/aqfFQb1dLtj/VNjrfNSm1G9QKZ/I30ozVF2v9iyO2f0YdD3Ul4gt68yLgbxdafzGQAAwBG4SHHkBJH/fVDy5Lsob6o42rzfvvF7RrEBQhqg9NvFwFTKjQV8EgSNBd61gMjWj4OXqq25AdGEPswWR5nxm7RyZPfVxlp+yC6+mj5uzd8h+E7ay7WftanHytbJlMvNX82XWh9sXnluLYXjpdyHkTErzEPoe25eA1K+W90YkDvOBNlv2hTRGB1XtXHx5Pou+yI76ZyV+peMtS3rt6N6fhzSedDtdNT7UJqj7H7pl+yc04foeKnlBUp9UOXScZl4PisfFwAAAIdnojiSJ9K5R3Xr5IRQLW8cZz/gVnX6ByC4JL8PmiKO0jqB/mELad6ElaHoYQ5BVI3gL/ou9cGKUAp6BBfM6BQHKFYMmP1x/RCQ9anPdwFYnzfVl6FNSa5sJSAyTOpDptGp4+IewOBs1sWRLWB8U750wZobl1DOjavyc9H8JcFjJvDLz9+ILyN96PYnfgr59mp9MBTbc/XCfj0PjvSYiec9tht8rR1nHj+OA38rfgrZvoutqFw8Z+X+1Y/50JZrT5cd6d/IWA/6nPjbIf3yO+t9UG1Fx0str9aH+rhoX1xSZYXQ/2FHAQAAjsbMlaP1WcV+ZqXp7LBBYBw8SHCx27eqSfCyb/bSBwDYndq5YA/niUnnAie8OD8AAMApgTg6FQbBhPs2d7cvVY8tjtboAwDszrHFUXwuCKttCCMAADg1EEcnw/D2ld0DhwOLo730AQB258DiiHMBAACcKZchjgAAAAAAAHYEcQQAAAAAAGBAHAEAAAAAABhOUxwl7yaCI+EftbvuAxXi3yJczu8QXL8O9/CJQ/+ebI/s5TjLcYAxqzzO+iQeTLLyWB+6f0cdz1Of26Uc7PMHAHAezBBH7iWv2XcYPd63TfeOo6a9f/T7J9DbV5yMOJrwHqRLZh8XTXmKVfJOmssAcVRmZGwOFpwdXhw5Dnhs+LEMQfvgHUJ7GeuZ/RucA+aOT6b8zjYnsO+5tU/4U++YOtTn4lDtAACcCRPFkbzoVUSPE0ixOJJ9N6aE37pv2uvm3uydhrN/qjxxcbQH7CN8L/IqvIdgrMoFiaODceHiyLY9fBnw/pnZP8RRFjk3bjb9S6xfNdt2u1UvtQYAgIMw87a6nDhKeLhpr697sTRGbN+LkSuX9MrRy63Z3j63j+x+a/O8vfXlbuWi5B/lfWvyQ91I0PiVqJB6u6492X7TPPP5z9uXJkfa03VcetZ+OOU65b+Jy91yIbdibBudry629pvDvp6kSRfGpL2+jgsGG/UGf22v5kv5lpG6zVIfwntN4hS3N8UXScEfG0yYOvbt/iYwany5zt/sPBSCGR1cLZq/2G7o76CdiF188YG+Gu9Jx4qhNtZjfQ/70zwhznc28/PeB/C6jrZn60XBrivb9bHiZ5n6mJX7N3LMJ75E42kpzPOi46yCtVcWR7WxLn+ORvpumdk/fXxb4vrjfc+0N8Fm8CPy5YTm1s3DnRl/6Yexa/52+5w/y/pQ71/pmBirZ8fb76/lD8YFAOAMWF0c2ZWjqnqKie17Mu8tcmLFCBeVZ/eJCPL7grAJYkgLp86WzgviyIiqW8kftLtg5SgNUJJtezFSF3F7obS+yMVI1Rtc7Mv0NlLEpmkvZE72JZC78Cc27UUwBAzjfbBBb8bZcV88tg99MOHadj7JxbkPJmSfDmR638R2Wqbza/H89WOVlqlR9UXtc/R9cH+reUj9rlDuQ629BDUPgrUZfBlQCCA7SseZblv7NsPPCCmn/IyO3YSof7V6Lq/zPRkXR6l/5T6U56iO+0zEdWOGvox/jlTfs8fZzP4Nzgtx/fG+Z9qzc2LqJSmu5znRuZUxd/+LKNl2+9w8JNT6EM1RLS9Q6kNtXJSNwXwa/HzENgEAzoN1xdHMVSMhtu8piaNOCLkVnFQc9eVftLd+260IedFk6fP6lSqdr5kvjmygkVwR9MV9eKEPTLjgFHDBjbqQdYhNfZEeBiF5XwITLvyDi3S9D7nxEaq++Attn1x7va2+3S6YsH7pOpKSMsau3MYiJsK+nH/T5s+NlW0nXyBLzRfzR7EPrs/lua1R7EO1PUNhHpwvqtyAMd/y+eKnHQdDNC9jfhapHbuGav8K9aSOPsZTm5ZM/0b6UP08TMCOl9gcnEOGvvRjm/kcpX3PztXM/qVjltQf73umvRGbNj/y5fTmttuv2unnwTC1D5FPC+cvrRf1XfLU520w9gAA581q4siuGF3PE0ZCbN+zqzhS25PEUVH8HFIcubzcxXQy4eLZNVC/MNZ8ccy9aI73ITc+QtmX5EKcBA7FoK52wZY8U89+Q3tn7Jm/Q/vL5y+MlfhSKpOh4ovNKwYd9bmtUezDaHv5eRjkDRjzrZAvbVh/JF/Zr/pZIxmzWh8GeYV6qS9RvUCmfyN9KB9ncxC/UztDX6qfI7tP9yc3VzP7N8iL64/3fUp7usx5zG12v9iyO2f0YdD3Ul4gt68yLgbxdadrFQDACbOKOFoqjITYvmdHceQEkf99UPLkuyhvqjjavN++8XtGsReR9CLWbxcv/FKuckG1yIVyLPCuXTRt/fgCV7U196I5oQ858SFUxyUZv9CH8aCuNtbyY2fx1fRxa/4OwXfSXq79rE09VrZOplxu/mq+1Ppg88pzaykcL+U+jIxZYR5C33PzGpDy3TfgA3LHmSD7TZsiGqPjqjYunmzfkzGzffLb1f5NrefHQZe15PpX70N5jjyFuY1I+uQY+jJLHOWOs7n9S/3S42kY7XuuPfErOkZUmaS9U53b7H7pl+yc04dojnaZP1UuHZeJ16ryZx4A4HSZKI7kaXXhUd19siIpeox3kjcBZz/gVnX6ByC4JL8PmiKO0jqB/mELad6ElaHoYQ5BVI3gLwwuqSDAULvwuwueTvFFzAYxZn9cP1y0+9Tnu4t0nzfVl6FNSa5s5aJpmNSHTKNTx8X9cNzZrAd1toDxTfnSXdDduIRyblyVn4vmLwkwMsFBfv5GfBnpQ7c/8VPIt1frg6HYnqsX9ut5cKTHTDzvsd3ga+048/hxHPhb8VMoj3U6tv12uX/1eqEt154uO9K/kbEuzpEh27/ouHWpzy/7Ym3ZguJ7+jmqHWfL+6fHbJXzkvQ9OgZc2WDn9Oc29rdD+uV31vug2orGc+n81cdF++KSKiuE/g87CgBw8sxcOVqfVexnVprODhvYxBcYuQDp4Ho+yQVu3+ylDwBwPA58DoEF1OZoD/M36TzvhBfnfgA4RxBHp8LggiMXtdw3jHM4tjhaow8AcDwOfA6BBdTmaA/zN3KeD6ttCCMAOFcQRyfD8BaH3S8uhw5s9tEHADgeiKPT58DiiPM8AFw4lyGOAAAAAAAAdgRxBAAAAAAAYEAcAQAAAAAAGE5THCXvJoIj4R/Huu4DFeL71S/nXnXXr8M9fOKCfguyl+PsUBx63pdynN8fnt2cVh5ZfZ7HJwAAzGWGOHIvgM29w+jhRr/jqGnvH33GBHr7ipMRRxPeg3TJ7CNolScdJe+kuQwQR2VGxubJiqP5dSVYH5SXz9SokZHjxc9BEAK7v59mD+MyOHfs0kaBRBw59tAOAACcLBPFkbwEVkSPE0i1F7w+3jftdXNvpNQ0nP1T5YmLoz3Qv3Dy0jh0AHVB4uis2aVv8+tm3xu2qziygiB+Eevu7GFcEEcAAHAAZt5WN1Ec1QokxPa9GLlySa8cvdya7e1z+8jutzbP21tf7lYuWP5R3rcmP9SNBI1fiQqpt+vak+03zTOf/7x9aXKkPV3HpWfth1MCiORbWH1Rtd/8NjpfXYjl4q/qSZp021nSXl/HBUSNesu7tlfzpXw7Sd1mqQ/xG/FDitub4ouk4I/YdG+KN/tN0NT4cp2/2XmYEHgtmr/YbujvoJ2IXXzxwa4a70nHiqE21mN9D/vTPCHOdzbz894H4rqOtmfrRYGwK9v1seJnlaReNGYjNnP9M5Xq816wOTYuJaTeYJ7lGOgNF/pQOV5snUrbpzIu+nNhiduI/dB+jpyzEl+iz4Ol8DmtjIv4UvyMCX4eBjYBAODorCSOZGXJ31Y3Y9VIiO17Mu8tcmLFCBeVZ/eJCPL7grAJYkgLp86WzgviyIiqW8kftLtg5SgNNJJtewFXF3h7EbW+yAVc1RsEAmV6Gyli07QXMif7EsgFBYlNe5EPF/7xPtjgJ+PsuC8e2wfXnguk5G/nkwQ8ffAo+3RA0vsmttMynV+L568fq7RMjaovap+j74P7W81D6neFch9q7SWoeRCszeDLgEJw2VE6znTb2rcZfib0fU2YMu/5ipV5H/NzbFyGZI9v8zkbO+bd3+XjxX2WUv8NpzQuXlCkKd+8+BnaSPo+OGcpG1G9QOn4LPch7bNsR/V9X7K+AwDAUVl95ah9uDEi6cbIpWnE9j0lcdQJIbeCk4qjvvyL9tZvuxUhL5osfV6/UqXzNfPFUR/Y9ugL4+Ai2ZEECBlhUaILbAaG0wt4fJEv+xKYEBQMgpB6H3LjI1R9GQRFrr3eVt+u7LOBovVL15GUlDF2N5uNbTfsy/k3bf7cWNl28gWy1HwxfxT74PpcntsaxT5U2zMU5sH5osoNGPMtny9+2nEwRPMy5mcFa0fKJ43V573Wv8q8j/o5fc46ZA6kgvl/uzXJ/Lnm8dKNj//cntS4SN+j80lSrnp8qr7b9v12alPndWT8GelD+TwBAACnzvriqPt9kt8cIbbv2VUcqe1J4qgofg4pjlxe7kI7mRAcdA3UA6LxC3guSKkEGoaxPuTGRyj7kgRgqr3eVl9G9gWxURSXkmfqvWq2bXNn7Jm/Q/vL5y+MlfhSKpOh4ovNK/XB9rk8tzWKfRhtLz8Pg7wBY74V8qUN64/kK/tVPyciNtRnpT7vtf5V5n3Uz+lz1iE2TQV7vLwybdq/Jxzztg9Tj5e+Lyc1LoN6ulziy+D4VH3XeanNqF4g489IH8rnCQAAOHX2s3K06wMZdhRHThD53wclT76L8qaKo8377Ru/ZxR7cU0v0v128aIp5aoBg0EuyGOBd3RxT4ICW7/fHr+A54KUSqAxoQ+5YEuojksyfpNWjuy+2ljLN+/iq+mjfAMfgu+kvVz7WZt6rGydTLnc/NV8qfXB5pXn1lI4Xsp9GBmzwjyEvufmNSDlwyrQkNxxJsh+06aIxui4qo2LZ+5nJelfvF3rn/Ld1tFtjvtZHZdcH2Rfd7zIpvstjSuz4/ES0H0/pXGxfdfHQdpG72d8fCZ9t2Vz8+77MxgX1U5HvQ/Sfq1/bvxrnwkAADgWE8WR+k2RSk4kJXk7/ebIrer0D0BwSX4fNEUcpXUC/cMW0rwJK0PRwxyCqBrBX/hcUoGFoXbRdBd0neKLtBUDZn9cP1zQ+9Tnuwt4nzfVl6FNSa5sJdAwTOpDptGp4+IewOBs1sWRLWCDss6XLrBy4xLKuXFVfi6avySAygQ/+fkb8WWkD93+xE8h316tD4Zie65e2K/nwZEeM/G8x3aDr7XjzOPHceBvxU8h3/faZ8VQmfdh3dC/kXkf8TM/Lo5sH3z5+HhRZYrtVY6XqN8uneS4iI2oXNxG+fiUvqvj0drut8MYSnIrXXEfQl5fxmYmPpqkfKt+xoRQt1oIAACOwcyVo/VZxX5mpenssMGDuoAb5AKrg+v5JEHBvtlLHwAALg0nvDg3AgCcHoijU2EgLNw3vbt9sXhscbRGHwAALoewUoUwAgA4TRBHJ8PwFo7dL54HFkd76QMAAAAAwGG4DHEEAAAAAACwI4gjAAAAAAAAA+IIAAAAAADAcJriKHk3ERwJ/7jZdR+oEP8u6XJ+k+T6dbiHTxz692R7ZC/H2aE49Lwv5Ti/P+RhLAAAcG7MEEfuBbD9+42GPN431fwcvX3FyYijCe9BumT2EbQO3lVyKSCOyoyMzZMVR/PrZt+fI5+pUSMjx0t4705IO0/GHsbFPg1TvWfprI8bAAA4VSaKI3nRa9PePzqBlBU/DzftdXPT3pTyCzj7p8oTF0d7wD7G9iKjmV2CwSVckDg6a/YgAipk3xu2qziyIiN9ueuurD8ucu7YbPqXPL9qtu12q176DAAAsAIzb6sriaMJ4qlAbN+LkSuX9MrRy63Z3j63j+x+a/O8vfXlbuUC6h/lfWvyQ91I0PiVqJB6u6492X7TPPP5z9uXJkfa03VcetZ+OOU6nHwLqy/y9pvfRuergMV+M9rXkzTpwp+019dxAVGj3gCv7dV8kbxQJw5S6jZLfdBvoe9T3N4UXyQFf2ywZN+Eb/Zvmrbx5Tp/s/NQCNrE77CitWj+Yruhv4N2InbxxQe7arwnHSuG2liP9T3sT/OEON/ZzM97H4jrOtqerZesMErZro8VP6sk9aIxG7GZ65+pVJ/3gs2xcSkh9QbzLMdAb7jQh8rxYutU2j6RcXF9vzOfczkujH3zdzQeNT+TvNq867y4b4lNNZYhTfJF8HUH+wEA4OisIo4ebq7b5v7R/LWrOPJk3lvkxIoRLirP7hMR5PcFYRPEkBZOnS2dF8SREVW3kj9od8HKkb0oqkAj2bYXWxX0yba7QErwourJxTMJDkv0NlLEpmkvZE72JZAL3hOb9iIfAqLxPtjgJ+PsuC8e2wcdeMvfzicJTPpgSfYFv4TeN7Gdlun8Wjx//VilZWpUfVH7HH0f3N9qHlK/K5T7UGsvQc2DYG0GXwbkjiNN6TjTbWvfZviZ0Pc1Ycq85ytW5n3Mz7FxGZI9vs3nbOyYd3+Xjxf3WUr9N5zQuIiPsk9WjBpZNbJ/j3/e7VZp3g21vAjb99BG4nN0rhvrn8GeN+fNPQAAHIbdxZHcTtft2LM46oSQW8FJxVFf/kV767fdipAXTZY+r1+p0vma+eKoD2x79MW3fCGuXWzrdIHNwHB6kY6DjvGgIBekJDYnBwyO3PgIVV98INEn115vq2+3C5asX7qOpKSMsSu36YiJsC/n37T5c2Nl28kXyFLzxfxR7IPrc3luaxT7UG3PUJgH54sqN2DMt3y++GnHwRDNy5ifFawdKZ80Vp/3Wv8q8z7q5/Q565A5kArm/+02EQgrHC/d+PjP7SmNS9eurd+fA8b77srZfalRQy3Pjndks3DMS7lwrhvtHwAAnDI7iiO3LQ9hGKTm3pepE9v37CqO1PYkcVQUP4cURy5vp4tpuJB3DdQDopovjlyQkthUgYow1ofc+AhlX5IgJAmMnK2+jOwLYqMoLiXP1LPfQN8Ze+bv0P7y+QtjJb6UymSo+GLzigK5Prc1in0YbS8/D4O8AWO+FfKlDeuP5Cv7VT8nIjbUZ6U+77X+VeZ91M/pc9YhNk0Fe7y8Mm3avycc87YPU4+Xvi+nNC7Z49aPx7hNj5RT8x4xyEv6N/VcN9UXAAA4SVb6zVHgNFaOnCDyvw9KnnwX5U0VR5v32zd+zyj2AppeUPvtYmDaBYIV/MU7Wz8QXcCTgMjWjy/uVVvZICWxqdub0IdcsCVUxyUZv0krR3Zfbazlm3fx1fRRvoEPwXfSXq79rE09VrZOplxu/mq+1Ppg88pzaykcL+U+jIxZYR5C37MBp0fKu3nJkTvOBNlv2hTRGB1XtXHxzP2sJP2Lt2v9U77bOrrNcT+r45Lrg+zrjhfZdL//c2V2PF4Cuu8nNC7Z41b6YXdOOCYC1p9a3/PHRHTMS17xXDfBFz+35c8EAAAci4niSB64MFwdGoqgXcWRW9XpH4Dgkvw+aIo4SusE+octpHkTVoaihzkEUTWCv/C5pAILQ/YC73EXX53iC7gVA2Z/XN8HKKpen+8u0n3eVF+GNiW5skmQlQQak/qQaXTquLgHMDibdXFkC9igrPOlC2bcuIRyblyVn4vmTwWDQib4yc/fiC8jfej2J34K+fZqfTAU23P1wn49D470mInnPbYbfK0dZx4/jgN/K34K+b7XPiuGyrwP64b+jcz7iJ/5cXFk++DLx8eLKlNsr3K8RP126fTGJbEXELthZ9Fm6qO2U8sT8/3+9JjXeS6pY35q/wYdAgCAYzNz5Wh9VrGfWWk6O2zwEAeUcvHVwfV8JCCKbe6VvfQBAODE2Plc50QZ50YAgNMDcXQqDC627pve3b5YPLY4WqMPAAAnxg7nurDahzACADhNEEcnw/D2jt0vngcWR3vpAwDAqcG5DgDgUrkMcQQAAAAAALAjiCMAAAAAAAAD4ggAAAAAAMBw2uLozT9rP/PWP2q/6jcjcnl233/afrZ/4yscg73Mw5+2v/K5/7T9T4xdSZ/58E/9/nPH9etwx+zX28+WPlPnxll/3g8973C5HPozfabHbhIzfPW2v54cvC+5+AUAToYZ4si9w2j4fqN+f5dmvOiotz/kkw//XjEIzuadTLD0xAOffczDy3/U/ief+2ftJ37zckAclRkZmycrjp74+eUsmD9HEqwPyst57/brfqPEyGfaf06CEBi3N8Yejt3B+X0Px3hWkOyhHemLGefqF3hZX5awB/8BYKo4kpfANu39Y+4lr/Nf/Kpx9nPICf/vtb/yxm9G1PJOAU5YayNiePeL+ily6GPlgsTRWbNL3zi/nD7z50jE0SCg3lUc2SB87WvlHo7dCxJHX7014/3StFX7Mg9xBHDSzLyt7oDiqHZRyOSVlsjdCtM/MxcPk2dOVr/iy7ky7qLyKxJ4+7rRxcmewPJ27bd8xm6f7050NohXdVyaeHFa0J7Ff1OlU/Vbq0DSXl+nPi41X0rzMDrWhT7kxzNub4ovkoI/9WPCkJ2HCRf1RfMX2w39HbQTsYsvPpBS4x3NQ4XaWI/1PexP84Q439kc+xzpOtqerZcEJVK262PFzypJvWjMRmzm+jc67wWbY+NSZWEfxP/cvO8y1iWboxT7kAgEWy5s1849I+elpeOi6rg0PkdSL2pbkM9puNYVfal8pm2dStuV/gkHO3b1ucsStxH7of2cN3/D46xwLq2MS/3YNf7YfojdZNwrvizp3+hxtrgPBn8sDcYF4Imwmjjqb6uTFSafNYHYfiBzYukYy4s/0O4EIh98Ocm4E0t/EXL74ouPt63/FpJtezJTJ3N7sunaLZxwayxuT/qg6g0uMmVinzWVcTHU+y7k+p/YtCffcEIe74Odx0QQC+O+eGwfXHvjx4S+UPS+ie20TOfX4vnrxyotU6PqS6UP7m81D6nfFcp9qLWXoOZBsDYz8+oY+xyVjjPdtvZthp8JfV8Tpsx7tn+1eR/zc2xc8hT7MNJe6l9vJ/VL21lqs87kPkTHmeSpeYjmqJI3ZW6LfZg/R9lzkDkXjp2X6v0L57vYV8uU/h3q2PXBeJqy42f9LMzt4LqibET1Ajl/6n2ozns3X3o+hSm+eGr9S+aofJzt0AfBz8fQLsDTYAVxFPN43xiBdNNOXUiK7Xvkg5meyAO1vMyJIg4Y3ckhexGy9PX7ej36BDI4mUSUTlhllrcXn/Tq4xNj29Qn3o7yuAj1vgu5/ic2BxeAeh9y4yNUffEn+D659npbfbuyzx4T1i9dR1JSxtj9jBHo0m7Yl/Nv2vy5sbLtZPpXouZLrQ9jc1uj2Idqe4bCPAzmfcCYb/l88dOOgyGalzE/K1g7Uj6Zo/q81/pXmfdRP6fPmabUh7H2ysfu8rGu2axR7EN6XNv29XFWOubLefW5HevDgjmSz4m0Z/7/7K1J3oe1PtPd2Plza71/Bz52pe/ROT8pVz2HqL7reU9tRsdEIOPPSB/K857YEjuh/TFfpvZv4G9hPBf3AQCE1cWRUUdtM2P1KLbvqH1w516Q+gtAf7LvLjiVE0/9wjHfjzF2aU/ycifAyYQTc9d+/YRc77uQ63/lImYY60NufISyL/18W1R71WMivYhpJM/U++TDf+TuKTd/h/aXz18YK/GlVCZDxZdqH0bmtkaxD6Pt5edhkDdgzLdCvrRh/ZF8Zb/q50TEhvqs1Oe91r/KvI/6OX3OsiR9GGuvfOwaFo511eYU0j6kx/XgOCsd8+W85Z9pYcEcSZ9Me/Yz/cb4Zf+ecF6q9i9Fyk7pn5Q74LE7qKfLJb7U5lbnpTajeoGMPyN9KM67tR+uYSF5v6u+zOjfwN+p4xmz8+cP4MJZXRw93Fy31829KTmN2L5BTgylD3UtzzI8UfQXgP4E1F1w0hOPnFDCtj1BpSesfnvs5CL5ro2JLG1vdEwMtl8jJ0PbXuGErMfFMH5izZ2wE5u6vQl9yF3Iheq4JOMX+jB+TNTGWr7VFV9NH+Xb3RAQJu3l2s+PmRorWydTLjd/NV9qfRiZW0vheCn3YWTMCvMQ+p6b14CUL3+OcseZIPtNm4MfRdfGxTP3s5L0L96u9U/5buvoNsf9rI7L3D6MtFeed2HZWNdtGhb1IRn3KC/8bYiO+UpedW7H+zB7jmRf95mW+u63Jq5MbTxr/UvQfaj278DHru27Pn7SNuJxL86fLZubv/SYCKh2Oup9KM177hrVXVdqvszpX2Zu88fZsj50+OOzePwCXDgTxZE8rU7/rsglJ5KS3xzNEEaCs9+T/6A7ynnhZBMn+fBPCYT7Ov0JyuJPELm80ZOLPeEV7JZY2J7k9fUkxSdPOwZmf1x/OGZ9fn1cyr6U52FwktcXMcOkPmQu1FPH5TMfygMYnM36MWGI5s6k7qLtxiWUc+Oq/Fw0f8nFOXNRys/fiC8jfej2Z47NfHv1sS63V54HR3rMxPOe/xzVjjOPH8eBvxU/hXzfa58VQ2Xey/0bmfcRP/Pj4ljUh5H5i20lLBjrMZtL+hDqSIqPs9oxP/J5qMzt6LjMnSNfPv5MqzLF8az0IfLfpajNUzl2xUZULm6jfA6RvqtzhrXdb+tjwq10xX0IeX0Zm1ntQ37ekzEJ2LFxbZZ9GetfnzecI0NuPAf7TZrx+evqZsUxwOUzc+VofSL7yYktopa3mOTEeo6ok29ATnzdhWoRBx6XvfQBAEConc8u4BoAF8yxjk8n9rgGw1PltMTRwblEcSR9GvlWaJQDj8te+gAAINTOZxdwDYAL5vDHZ1jhQhjBUwZxdPYXxuHtAbuf1A49LvvoAwCAgDiCc4XjE+AYPHFxBAAAAAAA4EAcAQAAAAAAGBBHAAAAAAAAhtMUR3fP27euPtV+rvme3wGwJnft9mpr/s1zt71qr65c2uYKvWraTSkvS729QzPaPwAAAIAnygxx1L/PKPsS2IebRe866u0rTkYcfa/9cPOp9q3tC799qrxqmw2B7nSmiJXKmJ6BONICyKW0fY4ZAAAAgJSJ4kheAtu0949OIKXi6PG+mf3y14Czf6ogji6THcXRbI4jjuq+c8wAAAAApMy8rS4njoJw8pszie17MXLlkl45erk129vn7eckb/O8vfXlbiW4e/W+3X9r8kPdSND4laiQeruuPdl+0zzz+c9beb2OtKfruPSs/fCVq1nDBqaNW10YfGvvVx3CN/o6OE2/7U8D1zjf2XzVbNS+kDZtE/wcaa/o5wg5XyxL26vUK+NER6PGYNN1PBEk1n7Y9nl320y9QF486H4PfEz6MPCl1N4e5sjWqxbM9a8yZt73vryUTfoxKAMAAABwXuwujh7vTXB63z7I6pG/ra6ZoZRi+x4vdlJxZIWLyrP7RAT5fUHYBDGkhVNnS+cFcWRE1a3kD9pdtnJkA+hNY8LPftsFjEnwabeVkNFEwby3WYw6C6sA1kYqlPrtsp91ir4sbm/GuES4AL3zJWovsWnzwnatXqC2slIWTvnySXtWRGhfyn0vj1kdW0/aDEnZcMwUR4LyW+wPBCXiCAAAAM6cdcRRJIjmrSTF9j0lcdQJIbeCk4qjvvyL9tZvuxUhL5osfV6/UqXzNcvFUTZAtMFmErTqoNwHl33SAXRNLOSDdbuqlOzUvk0NtGPKvixub2xciqTCQo9DLdCv1Qvkx9RRGW/xfVCp4stI35fN0ZR6uT7UxsxR7iMAAADA+bPaypHWQg83w98llYjte3YVR2p7kjgqip+VxZGIn8E3+AEJTJUgGATzFyyOquNSIwnmo3GoBfq1eoH8mDpqeYYgcrsCFV9G+r5sjqbUy/WhNmYOmePNZjjPAAAAAJfACr85SvbZlaTjrhw5QeR/H5Q8+S7KmyqONu+3b/yeKZQDUwk+C3k2EI1XDPqVIxfI1gJSKT+4zSmxmWujGuP6ID8uU/FlcXuVcQlkfUmCeVsmbEteaNv7HOWV6gVqAqiW57F9L7Q3yCvbWjZHE+pl+1AbM4O0ZYWcyyvdVjfYDwAAAHAmTBRHcqucf0y3SrEgyuyfgLMfcKs6/QMQXJLfB00RR2mdQP+whTRvwspQ9DCHIKrqVANTGxhL0OmTWjWQemH/pmnigLoLVkPSeYbIrhIoPmAd7DeMBdDhFqphmYovS9urjIuQ98UJi1J7oY6keDxr9dK+ueTanZfX+1oTR4aRY6I4ZobSHJXr1frQ25MUjZmdVzVO3udICIV+1BwGAAAAOGFmrhytzyr2MytN8BRIRAccGSe8WDkCAACAcwVxBGcM4uhUCCtOCCMAAAA4ZxBHcMYgjgAAAABgPS5DHAEAAAAAAOwI4ggAAAAAAMCAOAIAAAAAADAgjgAAAAAAAAwzxJF72evgPUYPN937jXSa+q6j3j4AAAAAAMDxmCiO5CWwTXv/6ARSXfiEsn5zBGcfAAAAAADguMy8rW5cHD3eN+311GUjQ2wfAAAAAADgOKwsjuatGgmxfQAAAAAAgOOwqjiau2okxPYBAAAAAACOw3ri6PG+bWauGgmxfQAAAAAAgOOwmjh6uLmevWokxPYBAAAAAACOw0RxJL8lqjyue+GqkeDsAwAAAAAAHJeZK0frs2/7AAAAAAAAU0AcAQAAAAAAGBBHAAAAAAAABsQRAAAAAACAAXEEAAAAAABgQBwBAAAAAAAYTlMc3T1v37r6VPu55nt+x5nyqmk3V1ft9s5vnxsF/++2V+2V2S/pEH2rtXdoXyznPq8AAAAAkGWGOHIvgI3ebxR4uInfgTTjZbC9fcXJiKPvtR9uPtW+tX3ht2dy8kH0q7bZVPyr+j9St4AWM1dXm7Z55TNGqbW3zJcyu4wLAAAAAJwrE8WRvARWXvLqBFKsfSTvxvwbCGX95gjO/qmyozg6eXYRFXPruvJXixVFrb1d+pFjbXsAAAAAcA7MvK0uJ47cviaoIVlFau7N3mnE9r0YuXJJrxy93Jrt7fP2c5K3ed7e+nK3EsC+et/uvzX5oW4kaPxKVEi9XdeebL9pnvn85+1LkyPt6TouPWs/HF3p8CKgWx2Jg+x45aTPe9Vs2qtNY2r3SNmNX1op1atz126vtuZfj13xcNu2PWXPpX4lZ/x2tZkCQrWdxa/GlNtcII5GbMZjusK4FNtz89Ao22FeLUm9KE+42yb2AAAAAGAfrCCOHA8382+pE2L7Hi92UnFkhYvKs/tEBPl9QdgEMaSFU2dL5wVxZETVreQP2t115WhEQESCQQJofZtZImw0Ub0aZXHkGBM4CwRJgZz467B+qb6n25a5vqTjF4+vFTlF5xeMS7UP0rZqz4qd3jfxpdyWAXEEAAAAcBBWWzkKosiKpMUrR56SOOqEkFvBScVRX/5Fe+u33YqQF02WPq9fqdL5mj2IIx/o9ikOksOqgRUTumKlXpnzEEeDvhqGgmGmL7averwkabGSii/N/HGp96E+D7au+FduEAAAAAAOwO7i6PG+ba7T3xzlV5dyxPY9u4ojtT1JHBXFz9riKAnKU7Ei21ZASD0dvI/UK3I64siJu7zPexFH0l5ppcqOy+mIo44ggMsNAwAAAMAeWUkcqQcwpNsjxPY9O4ojJ4j874OSJ99FeVPF0eb99o3fM48kiLZBcR+US/AcCwYpb/LvgkjyjNYz+MA6jqu1CHC+pPXE1uA3Lh01kVDJy/ri289VSPo32LbM9UX6Xi9fEyGzx6Xah4niSMjl+fEs+wMAAAAAazBRHLnVoOhx3Wp16PG+ye6fgrMfcKs6/QMQXJLfB00RR2mdQP+whTRvwspQ9DCHIKqmMgyinbBxadM0cdAsZIXFeL1wa1Zar7tlq1DPBePBdiqk4uRs1/IcJV9ML6xg6espMRFWTdL9u/gS9c2kaCUprbvruBiKfaiJo6HNwbgFX4YDCgAAAAArMnPlaH1WsZ9ZaToNXOBLTAu74Y4jVo4AAAAA9gviaJ/YlYRkRQJgBmEVDmEEAAAAsH8QR2uT3MrFqhEAAAAAwHlwGeIIAAAAAABgRxBHAAAAAAAABsQRAAAAAACA4TTFUfJuorPF//7obH93VPBfP1ac31QBAAAAwKUwQxy5F8Bm32P0cKPec3TTznjNkbKvOBlxNOE9SDVOXhyNPGq86v/Mx5TbJ/epd/+cu3AEAAAAgItjojiSl8A27f2jE0iROHq8bxstiEQoNfdGSk3D2T9VdhRHJ88u72GaV1ceSb3ZmOTV0atm2263/TYAAAAAwLGZeVtdRhyJGIp3eCHlN0eI7XsxcuWSXjl6uTXb2+f2kd1vbZ63t77crQTn/lHetyY/1I0EjV+JCqm369qT7TfNM5//vH1pcqQ9XcelZ+2Ho7G8Ew3htrP01jN9S5rOs++z2TSmdo+UDeKhVK/OXbvV71myqzVuO7w/J079ys74rXMLxFFz1zZb6aOpa/52+8b65/rQKH8HgsquSk33BQAAAAAgxzri6LpfOXq8b8z2UnHkyby3yIkVI1xUnt0nIsjvC8ImiCEtnDpbOi+IIyOqbiV/0O6uK0cjAkKJFScC1G1nXhRkq0b1apTFkWNM4NTy54sjKSsrRo2sGtm/CytHg3Exoig0ZPP0OBkQRwAAAACwAruLI4MTRO43R839/Q4rR56SOOqEkFvBScVRX/5Fe+u33YqQF02WPq9fqdL5mj2IIx/I96kXK3qlyK7s6IqVemVORxxJ32xZ5UMkjor9S0XivHYBAAAAAKayijiKSH+DNEJs37OrOFLbk8RRUfysLY4k0E8fSpCIF3trndRLV5Eq9YqcoDjSiCCyO2v9QxwBAAAAwGFYWRy5/GbqspEhtu/ZURw5QeR/H5Q8+S7KmyqONu+3b/yeeSSBvA36exHgfmeTBv4m/y6IJM9oPUP21jItOpwvaT29WjWkJkQqeRlfquKo2r9EHFnb+b6X+wEAAAAAMM5EcSQPWQiP6u6TE0lOEMX7puPsB9yqTv8ABJfk90FTxFFaJ9A/bCHNm7AyFD3MIYiqqQwFhAv8Xdo0TbIqYsiKnPF69ja8TL2wv1TPCZNgOxVScXK2a3mOoS8FIRXEkf2ztxX7KeJIt9WLqI7Qh0EDAAAAAADTmblytD6r2M+sNJ0GldUVmEh6W10ON86sHAEAAADALiCO9knuFjCYSV0chVUqhBEAAAAA7AriaG2i29RYNdqdKStHAAAAAAC7cxniCAAAAAAAYEcQRwAAAAAAAAbEEQAAAAAAgOE0xVHybqKzxf/+6Gx/d1TwXz92m99UAQAAAMClMF0cPd63TfeOo6aN3vNayxuhs685GXE04T1INU5eHI08arzqP48pn8ey8dJC1KVjPpyCOQcAAIDLZqI4khe93rTh/a6P90173dybvYJ7QWz38lcrlPqyYzj7p8qO4ujk2SXYJVCex3JxdDpjzJwDAADAZbPstrqHm/Y6CCD5uxNKXjhpsTRCbN+LkSuX9MrRy63Z3j63j+x+a/O8vfXlbiVQ84/yvjX5oW4kaPxKVEi9XdeebL9pnvn85+1LkyPt6TouPWs/HH2djgsg9bf9OphMVwJCnn1fz6YxtXukbHh/T6leneQx2HYlyG2H9wPFadOG1wXp9vJtLQ/2+/ZS33Jtuj40yt/0nUZ5m+W+C1Jn2+g2p+Ut8XNsrGtYX7o2FPYdWmn7amyKfjrmjtloHyrtVcdTGPQFAAAA4DgsEkdWAHn1o/9+uLm2Qune/N9MvLcuZz/33iInVoxwUXl2n4ggvy8ImyCGtHDqbOm8II6MqLqV/EG7u64cjQiIKGCXwFQHzEmgqonq1SgHu44xgVPLny+ObECeq2D9SgPtsO2C/q5e8mLdos2Rvtt6SozaAL5ropSXzolsT/NzyXgJ1pdOVMR+6TakXC8aa356mwvGrNiH6vz59gpjbUEcAQAAwIkwXxzpVSNDEEdWGCmRtBdx1Akht4KTiqO+/Iv21m+7FSEvmix9Xr9SpfM1exBHPhDsUx986gDXflOvK1bqlVkY7HbU8ucG+3GArhn01dAH0LU+lG2O9X0QoCuKedaGngNJof1dxzpPzU+hW9HRhUb9XDZmpT7U52+8DwAAAACnwixx5G6ZS35PZMWSFkPy+6Slt9V5dhVHanuSOCqKn7XFURKYpsGnbNtv2KWeDmBH6hXZNWCv5Y/VTSkH5WcjjkSg6pWbiF3HOs+YsJCx25hjZSCkq34uG7NSHxBHAAAAcClMFkdZYWSRBzKoJ9QlK0tjBPsRO4ojJ4j874OSJ99FeVPF0eb99o3fM48kmLTBZh+YStA4vPXK5N+Zcjq4Ha1nyN6apANh50taT2ylv+HpqQX0lbysL779XIWkf/F2LWCv2Bzpey1gL+eJzVpeyU9HdayzY1bzxdCJINe/+La6Ur3lYyZk+1Cdv5E+CL7v5eMQAAAA4DBME0fRo7r71K0OrfYob7eq0z8AwSX5fdAUcZTWCfQPW0jzJqwMRQ9zCKJqKi7A1IGhBIruNicJBps4oBYqQXKtXri9Kq0X9pfquUA22E4D4zg527U8R8mXYV3li++3SyrQNiXqoqNss9b3WsBeDeaj8TKpE7Hj4iiuq/vY+5q2q+fdJW/TjlcqSJTAKPopLBszS6kPxfkbGU8h2KwWAgAAANg/ix7IsCar2M+sNJ0GLggl5gOo4T4nrBwBAADAsUEc7RP7bXryzTsAdISVKoQRAAAAnAKIo7VJbmdi1QgAAAAA4Dy4DHEEAAAAAACwI4gjAAAAAAAAA+IIAAAAAADAcJriKHk30dnif390tr87KvivHy/Nb6oAAAAA4FKYLo6q7zJ6bO+b5N1HE+nsa05GHE14D1KNkxdHI48ar/rPY8rnsWy8iu85OgrMOQAAAFw2E8WRiJ+btn/na9NeN/dmr/DQ3lix5ATSKuLoZNhRHJ08uwS7BMrzWC6OTmeMmXMAAAC4bJbdVvdw015f92LJsYY48mLkyiW9cvRya7a3z+0ju9/aPG9vfblbCdT8o7xvTX6oGwkavxIVUm/XtSfbb5pnPv95+9LkSHu6jkvP2g9HX8fiAkj9bb8OJtOVgJBn3/eyaUztHikb3v9Sqlfnrt3qlQa7EuS2w/tl4rRpw+tmdHv5tpYH+317qW+5Nl0fGuVv+k6cvM1y3wWps210m9Pylvg5NtY1rC9dGwr7Dq20fTU2RT8dc8dstA+V9uaM5+B9R4N+AgAAAOyPReLIrhwNVNCKK0eZ9xY5sWKEi8qz+0QE+X1B2AQxpIVTZ0vnBXFkRNWt5A/a3XXlaERAqODTBaY6YE4CVU1Ur0Y52HWMCZxa/nxxZAPyXAXrVxpoh20X9Hf1khfrFm2O9N3WU2LUBvBdE6W8dE5ke5qfS8ZLsL544WCTFtCqDSnXC4uan97mgjEr9qE6f769ylhXxwRxBAAAAAdkvjjKrhoJBxBHnRByKzipOOrLv2hv/bZbEfKiydLn9StVOl+zB3Hkg70+9cGnDnDtN/W6YqVemYXBbkctf26wHwfomkFfDX3QXOtD2eZY32tBeTHP2tBzICm0v+tY5xkTD92Kji406ueyMSv1oT5/9T5k/QcAAAA4ErPEkV0xus4JI+GExJHaniSOiuJnbXGUBKZp8Cnb9ht2qacD2JF6RXYN2Gv5Y3VTykH52YgjEah65SZi17HOU/NTkLHbmGMlGr9RP5eNWakPu4ijjiD+RwsCAAAA7I/J4qgujITTEUdOEPnfByVPvovypoqjzfvtG79nHkkwaYPNPjCVoHF465XJvzPldHA7Ws/gg8s4ttSBsPMlrSe2Br/z6KgF9JW8rC++/VyFpH/xdi1gr9gc6XstYC/nic1aXslPR3Wss2NW88XQiSDXv/i2ulK95WMmZPtQnb+RPmgyYxbGpXyMAgAAAKzHNHEUPca7T04IydPqSnnjWPsdblWnfwCCS/L7oCniKK0T6B+2kOZNWBmKHuYQRNVUXICpA0MJFO035Dbga+KAWqgEybV64faktF5321KhngtIg+00MI6Ts13Lc5R8GdZVvvh+u6QCbVOiLjrKNmt9rwXs1WA+Gi+TOhE7Lo7iurqPva9pu3reXfI27XilgkSJiKKfwrIxs5T6UJy/2ngOj6VBudBecUIAAAAA1mPRAxnWZBX7mZWm08AFf8R1AEtxnyFWjgAAAOAQII72if02PfnmHQAmEVaxEEYAAABwKBBHa5PczsSqEQAAAADAeXAZ4ggAAAAAAGBHEEcAAAAAAAAGxBEAAAAAAIABcQQAAAAAAGCYLo6idx017f2j222p5Y3Q2QcAAAAAADgiE8XRY3vf3LThva6P90173dybvXarkjeOsw8AAAAAAHBclt1W93DTXl/3giiilpchax8AAAAAAODALBJHdnXoJi9/ank5cvYBAAAAAAAOzXxxtOKqkTCwDwAAAAAAcARmiSO7KlQQP7W8Gto+AAAAAADAsZgsjvYhjIRgHwAAAAAA4JhME0fRo7r7ZH9aVMubgLUPAAAAAABwZBY9kGFN9m0fAAAAAABgCogjAAAAAAAAA+IIAAAAAADAgDgCAAAAAAAwII4AAAAAAAAMiCMAAAAAAADDSYqj1x+83X7mM5+x6e0PXvu9++R1+8Hbrr1Bm68/aN82+979yG+fKufiJwAAAADAiTJdHEXvM2ra+0e3W3i40e84ivPG6Ox7rDB6+wMjV+yWFS064P/o3V7EfOYzb7eraKeP3lVtJpyM6BiORQTiCAAAAABgJyaKo8f2vrlpw3tdH++b9rq5N3uH1PJyOPuBj9p3P/Ou+VchQb+N+P3qzh6ifyvITl5VjIgjAAAAAADYiWW31T3ctNfXvVjSWHF0k8vJo+2LSLG3tMlKjl8devcjI5hkVceujCTCSeNXTvp6fr8XXB9kbtXTt+/1qW9Dr1INRInyMSRnNxF4id9i890PtK/59iSFNvN+9qtmVT8XjAsAAAAAwFNkkTgaCqCH9ibcVjdj1UjQ9j96VwJ+Cdrlf1kp8dtGHH0kQXz11jd1i120LfZM8B9UgRU1sciqrxzlVmyCj2FT35bnREdXPCOOdD+sWMo1ndTL+6HJ5O84LgAAAAAAT4n54qiyamQZy0/Q9j942wTnEsBb8RBEhvl/RBzlxE0vOupiRTi0OCo2NViN0n7OF0e7jgsAAAAAwFNiljiyK0ajwkdWkaY/lEHbt7fPiUCQ6F2LpLC/ELwfXhw5+72IUUJppL2yOJJ66SqP9hNxBAAAAACwTyaLo2nCyCArRwsfyBCJo7AaE7Z98J8VMTawr90+VhcBs8WR2LDCLYcWOd5n1V5RHCV9cOIr9lP2lX8XVPBzh3EBAAAAAHhKTBNH0WO8++R+dqR+byRph98c2dvqbNBuhIH5+10rLFRwH/JyKzZ2ZSmz39api4C8OArCJk6hmBMvOvU2rT2//+0PPojaL4ojg7aZ1rNY30OZ0Me6n7uMCwAAAADAU2LRAxnWRNuvCYeTwgqOWEjUV3UAAAAAAODUOSlxZEWHvl3NbJ+kWBqII7eidRbCDgAAAAAAspyWODLoW9LS1ZnTYXgrG6tGAAAAAADnzcmJIwAAAAAAgGOAOAIAAAAAADAgjgAAAAAAAAyXIY5evd9+7upT7eea7/kdmu+1H24+1b5l8iVly9w9L+etygRfTp67dnu1Nf8eildts7lqt4drcEecv1dXLm2aV36/4VXTbsy+k+/LEfy82/oxO5+JBgAAgAtkujiK3nXUtPeZlxm5F8WG9x9No7O/C1Vx5KmVOZg48kzxd89IMDqIQ++2E4LTEXHkA+sgDnYPdncRR/W6XUBu06bVOmYxMoabxrSc4WTE0ciYHtpP294hBTcAAABAnoni6LG9b27aoHmsCEpf9vpwY/bdtDfNGYqjQ3Mi4iha1RB2FUc2yF1JZHTsQxy5/ftYpXjVbM5g9WOXMd0DNUEJAAAAcECW3VYnQui6F0tmR3tjV5NERO0gjrxouN26lRybti+ivE5Q+NWeWwnwQp6pJ/9H9QJZQTJ2m1uc/9bVs/bDSRHcSL0JvkiK8n1/u6T7V8srIEF8VRwlK0B9IO3FkZT1eZ2dMXFUtOmIV3KCAIsDeSs+dN2CzVAuTt43W2f66lfa90bZDn3Pt9e3ofuW9tuOe1Qv2E2EaOK3Xf1rtK/59iRNGhdD1c8F4zIJxBEAAACcCIvEkV05Ugro4ea6bex9duuIo7eunrcvZTsngCriKFsvkBUknqpY8TYnM6FezRfPm+aZsRFE1Yv2VvqXFT21vDK9OFIBuAlSs0G53Q4BtPxtAuA+2jYBcx9cd8F3Guwm5dJtG5QPonGhF0e2TGS35qeQXyGxPlZvfSv5mfTdihrdvred7YeQ8yfxORIKSf+sL/12Oh6ynW06qZf3Q5PJ33Fcqkj5sjMAAAAAB2O+OEpXjWS7U0PriKNeNLjA326neTXhpOsFaoIkl1crX2NKvUIZJ4hEWIUUxFG8qhSJvmpehRCQmv+3W5PMn51gsoGvCXajpAPh8UA7FUk50dAH84lAiHD2ra1hIxU/hYpvBXE07mdZrAi5+j05f5K+zxRHxaasQNHjMj5nPcP8Xcclj9QzvpUdAQAAADgos8SRe+CCvp3OiSH3kIYkNfe+TB1tfyAa9HaaVxNHOfGR2xeYW77GlHq5Mr4/YV+8chTwq0Q2pStTtbwMXhy9arYmMDdBqv3bi6MoQE9JAuFqoO2CX8kbD67r4mh719vqqPopFHyzwiEfvB9eHDn7eXFXb68sjpLxHPhZmzNhmL8fceSojxkAAADA4ZgsjobCKMe6K0eRQIjy+tWSnDjKCouaaMnmHfi2uuhWwGAjFUeOl9tleRFWWMiqkRMXd1v3m5E+2K0F3irwrQgNFyT7IF3/LUTbLhjPB8gqULd1tF81Px0SwA9//1Jpr+rnuAiYLY7ERlWIJmOk2iuKo6QPTnzFfubHJVDwc4dxqTIqcgEAAAAOwzRxFD3Gu09DEbTWb476pG8Tc4G/39+4slocZetl8vp8vdqS5glp/gTRYSnUq/qS3B5n+xfaG/pZ9lHnVbAB7PCBAl1A7PO7FY3oVi+1XwfMVijpvCTAjvJVPUsI/kMKwXUSqHsbXWBf9NMT5es2p/YjrVMXAXlxlPbNpVDMiRedepthXiRtmiZqvyiODNpmWs+SHZe6n7uMSxWxizgCAACAE2DRAxnWJLKfW1EBuGSs4IiFRH1V5wJBHAEAAMCJgDgCOCYDceRWtEorQhfJ3JUmAAAAgD2BOAI4KsNb2Z7UqpGnu33wSalCAAAAODVOSxwBAAAAAAAcCcQRAAAAAACAAXEEAAAAAABgQBztQvLiVvDsaVz0o9zf2r7wew2rthc/Up25BYBjUHtU/3SSx+zvneTVCydP/JvP6Pee/nUHJ9+Xk/DzCNdN6TdPOYU9MV0cRe86atr7R7c7vNsoegfSjBcddfbPkdVFgD/B6MB/ryxtb6TeHsRR9sW+gX2IsQUPB5GHCpz/wxT+0gQLX2mvNt/OXnReNS9MEGHybXqh3nUkPJpALOS51F+wS3nD/VdXH7tg7u7jZH/a3rqcy/zV3ou1nHMLakuU+3FOj8hP35eWFUrypMvRCRsRRz6w7o6lnQ+AXY6jet34uNfvWduB2msETkYcjYzpKYm4Az9Uyx4TJ9FxuDQmiiMRQDdtkDyP90173dybvXZr9otfNc4+OC5EHO0Bt2r0vH3pt/fOkxVHXqxsu28/Ou62SrikIioImUy9at6rb5sLuxZRPU6IhfbKfq3FOYmj9eOBSxFHJTFwRv2zwW7ch6yw21Uc2XZWEhkd+xBHbv8+guBUhJ4m53TsHvqJw3J8r30MAyy9re7hpr2+DmLpjMWR/yDfbt3Kg01dwO8EgHzI3aqFDs69OPB1+hNB2K+DeL9v8377Jqmn60a3jHVJrZR4X0Pe5JOPX1Xpku9fvb2lfpbGJZDaLawEZciLo0p7E+a222/SwNe1xVHyDW10obPvOurzJHV2ankVmzaAbnT+xNWFkljx+zfNX/od0nwQLzXhMiJqrHDKrwhZMdatYB1ZHJ3Q/NXEkeQFe6lNIc53Nm2AqOq4pAKOBX5am9E38i7AK45vQtoPHcDm+mD2muND7/epq1cPoiKbyUrCdF9qeerz50WNztfjIvvTccoem96OpThHXhyp4zA+/iqBZe2YN+T7Fwfy4djq6hZsVo9BW0eNX8pI3xtlO/Q9317fhu5b2m877lG9YNePtSs18Fts1j7T2t6kcTFU/VwwLuOMXMOz182R620hRrHU8jx2jAadN/h5ymUBjLFIHNmVo04NpbfV6VvuxsnZPxid4PBBt/8g3toPk/tAf84E17fyQc596HP7IhsGX6bbVgxvFfMnkcEJ4EV7q9tJ2yji6uVOKI5SezHT/fRUT5DzVn96YarThBOy3xfaq92Wl83L9qGOnKSzFxl7kUqDzbCdBG1yQu+Cs7E8HTDEZe1FUwV59sI8eryIayJ4hmIlXsVxdCtJfmXI2vciyq4UibCp5cmu6DY9l5yffmXKi6GSXwOSgCCkaX0/j/nTAZFNqlyE9TMJwIoDUfh2utr3mp9J3xNfygxXCdK+ax/T7WKgJO1nxyltT4u4mi/L/QwBbzjWYp+TcfP0x6Y6bszxNNhn0Tbkb+VnMn/Bl8ExNGXedQc73LhIli0T2a35KfR1NdbH6jFe8jPpu3z+kmMwHvuUnD+Jz7XPtPWl307HIz1GOpJ6eT80mfwdxyXPhGv4hOtmfL2txShj8YtnMF4e26/auAGUmS+OolWjIVY4VfJTBvYPyeCDrEXI0hNBLBzsicCuGjmGwf4E0ZF+e+LTeOAe+uDSUEwV2jMs8jOQG5cFYkNTva1uSnuJoKz3z7DA3z6AicldgPsL49jFtpBnLwjmAhelvmzxwjtCfOtcT7yKI/S31TWDOv0qz9CeXgGq/L5JCymbhj6tzbnMX3VufUDQpxA0JL4MqASmxb6P+6kFQG5sBwwCHeV3bswyvk2dQ0s0X47Oxqgvy/wU+1lfLGKnEOhJHfP/dmuS+bMb01x73Vyn9irzLPX8WNTnXfV1gLOf9tlS9VOo+JbMUWDcT9X3wZzl6/fk/En6Hh0/9fZ6vzIUP7dCflx6hvm7jkuWKdfEQpny9bYWo4zFL4Ha8QiwjFniaJLwsQ9umL56pO0fnPSDHG2PCACheiKQQN7Z6PJ9gB62Xbnp4mh8paiE/wbGJi0w6u3N9jOQG5fCWE1lVXE02j/DAn/lgjQ1MNMXSvk7HyxU8jJBnaZ6IS5SEiuZ/eo2u4EA8nnSfi0vFkoJasVp8qqRkA3Apo3FucxfOS8JEqKgZyyAqASmI30v+Wnbt31MgrEKg/Zs0Ojryt/FxgTpQ76P4ue0ue3HoebLcj/LPjoKY+Vtvmq2pq4pY//2x6vkFY+l1F5+nh1SttB3Qz/XUq7Uh2C/t9VR9VMo+KbHNmHcT1UvIwJy9Xvy/oj9/Oe93l75s5KM58DP2pwJw/xdxyXLlGtirsyU620xRhFqeUIyfgArMFkcTV0Reri5Vg9rGCfYPwrJBzn+0C4XR+HDfNtIvvowRyLH28+JDrXSZPHtVH2ZgBMYE9pb6mcgOy7BTkHgjLAPcVTun6E4t2W6YCXFXnzSi5/flr9LAUMtz14QyhfM8oW4hhMr+ndFgVjkJGJJ3zrXbXsxU8tTAisluo2vUm5NzmX+inmJn1KuDypdAFUOBF35Qf9rfTeMHWd3W1PWBPTZdm3QG9e3QV0YM58fb9eCuFKQVA4uo/YMdsz8ds2X5X4mgemAQh/E5kZWjVwbd1v3mxHXp9qxlLRX803PbXXea8eSGmtbR/tV89ORPQZr7VX9TPpu8+K+23ksOpQ5bsRGmOcBeu68z6q94mcl6YM9BhM/8+MSKPi5w7i44yT1d8I1PHfdnHK99QxjlJ5iXs5/wfehPG4AZaaJo+gx3n1yPztKfnM0QxgJ1v6x8B9k+eCG5D7Agv8QZwWJ/iYjVzd8kE2K6ocTgy9vxVPyYfcnEpdU3sDX/AkkZuin9tGSbW+pn2PjkuZP6YMjL44q7dXEUa1/mWPClknHLYO90JqTsU7dxcWfqF1SFy2DuxjqFF9QS3nuoqDy1EW7eCGu4YVMlLrVIi+IBvsdw98O9atFxbxce34VKb6Nr3L73Yqcy/yN5QV7m6aJgyBj3QVsIek8Q+SP6uNI36vHWTbIcoTxjvNcAO3acgJABzfpeKaBT5TfGdY207xkTCJnar4s9FPGoxhcO6Ru2q8wN2H/YOyKx1La99K8uhR3vzzvg3HrjqUkUPc2uv5UjnlL6Ric3I+0Tvp5i4/5vDhK++ZSKJbOrf4c6XNI+vmTeoOmPNrm8HNryI5L3c+dx0Xb6ihcw6vXzVo8UYtRank9+Tk0hDErDTpAhUUPZFiTfduvkgbQAIfGXsDiC1MXHNXy4DRg/urIGIyIgTJJoH1Uar6s7GcmWIUTgc/0iSFCTws/jftcMjewBMQR4giOyeBi674htYFWLQ9OA+avwvz+2tvwQiyTCUQPSc2XfftZ/DYcjsuT/0yfFiJMc5+TsPKFMIKlII4QR3BUhrdG9Cf0Wh6cBsxfDhu0LOmvDT7DeJW+ET4QNV8O4KeMIUH3qcE5+WSQzyAfENgTT1scAQAAAAAAeBBHAAAAAAAABsQRAAAAAACAAXEEAAAAAABgmC6OoncdNe19+jKjh5tF7zrq7AMAAAAAAByRieJIXvR609p3vsrWfRMJoHR7Ds4+AAAAAADAcVl2W51dJQpi6aG9ya0kTSRrHwAAAAAA4MAsEkd2pejGryPJ7XbNffsg+/xtdc0MpZSzDwAAAAAAcGjmi6No1cjgf4vUC6J5K0kD+wAAAAAAAEdgljiyK0ZaGAl+5UhroYeb6zYsLI2h7QMAAAAAAByLyeIoK4ws8rAGJYbsShIrRwAAAAAAcF5ME0fRY7z7FAuizP4JWPsAAAAAAABHZtEDGdZk3/YBAAAAAACmgDgCAAAAAAAwII4AAAAAAAAMiCMAAAAAAAAD4ggAAAAAAMCAOAIAAAAAADDsXRz95Cc/ab/5ndftb794aH/9K1+z/8u27Bd2tb8Grz94u/3MZz5j09sfvPZ7AQAAAADgKTFdHEXvMlIveX246d5vpJO860gE0Fd+7+P2Ky8+bj95/YP2zQ//wv4v27Jf8jv7R8IKo7c/aJ0ket1+8PZn2nc/kr8/at/1gikktx8AAAAAAC6RieLosb1vbtr+na9Ne93cm705HtobL55efvO77W/87kP7/R/+1SDJfsl39o+FCKB3zb+K1x+0b1sVlOR99K4RSElZAAAAAAC4GJbdVmdXi3qxpLHCSZaNDO/ff739w2/9WfvJD348SLJf8rP2D4SsGtnb6KzwCatDRhTZlaSMOOpWmAwiogqrSh+92++P85zND7iNDwAAAADg5FgkjrQAiulXjYTP/9pvtx//6b9t/+bf/ruDJPslP2f/UHz07tvtB69FsMj/ckud3+7EkRY5kucrpsLJbut8hRVRoay3GdQSq1EAAAAAACfDfHE0cdVI+NXf/P32669et9/4/o8GSfZL/sD+wRAxZISJiJdopcj8n1s5siLHC6Bk1WggntRKlEtaHKU21TYAAAAAAByNWeLIip+CMDKZbaMf1GB4+MZ323/+L/9N+8mf/3iQZL/ka/uHxYsgETKykqNFUk4cWTHlBVB6i12E1FNCKRJAiCMAAAAAgFNlsjiqCiPDw811tGokyNPofutf/VH7m7/zR+0ff/LYfufxR/Z/2Zb9x31aXSKOguAJ21UhI3mFp9fZcr04cr8/QhwBAAAAAJw608RR9Bjv+HHdlsyqUUAE0J98+3X7W7/z0P7Tf/E1+79sy37B2j8K/rY6K1iMgDF/v/u2CJkgbPz+LqnVIMEKG5WvVpL0Axne/uADJYgQRwAAAAAAp8qiBzKsyb7t1xARk139AQAAAACAJ8eTFkeD3w6ZbcQSAAAAAMDT5GmLI4O866i7NY5b3AAAAAAAnixPXhwBAAAAAAAIiCMAAAAAAAAD4ggAAAAAAMCAOFrCq/fbz119qv1c8z2/Q/O99sPNp9q3TL6kbJm75+U8gAJ326t2e+c3hFdNu9k07Su/ORexd3VlUmQUAAAA4OkyXRxF7zpK3mn0cBO9/yh9GWyNzv45URVHnlqZlcVRF+R2adseL9x91TabJIh/Muyv76+aTVbE2Llf0qAIq6MeJwAAAACnx0Rx9NjeNzdt/87Xpr1u7s1e4aG9ue7z3Hb+hbA5nP0zY1dxtDKDFYWjgjhave9VIXPXbq82bTN3+ehu217tsOoEAAAAcIksu63OrhQFQSTC6bptghqSvE44jZO1fyi8gLndupUcm7YvorxO3PjVnluJUEOeqSf/R/UCWXE0dstdnP/W1bP2wwnRa1EcSQB8pfMkkL5qNyGStkF3WG0a2ohXpEJwLjZUoK4Cd7u6oey5pAL3Snu2D43On7iqUbJ5QX2X/M7vDKVVpSqIIwAAAIABi8SRXTlKbp17uJl/S52Qs38wvIB56+p5+1K2cwKoIo6y9QJZceSpCidvcwZxIG+SDnqtSHDBdhxkJ4G+3e6DeWszG3CXBYKjsHpiy6ViIWlP+S3b4/F+vQ+X0fekTzkGfkxAxmZ8gAEAAACeFPPFUbRqJLiVoyCKrEg6s5WjXqS8aG/D9gRxlK0XmCuOauVHGBMS3aqGLmQDarMvSiEIrwXkywRCbnVD+z3WhyzVPjjOv+9Jm1lqPqdI2WQ8AAAAAMAySxzZFaNrLYwM9kEN6W+OrtupC0ja/sFJBYneTvNq4ignbHL7AnPLjzBFHG02SYBeva3q1ARCgQm3hp1/35M2s9R8zpPzCQAAAOCpM1kcZYWRYMWRegBDuj1CsH8UEkHypnlmBJD/nU+U1/8WKCeOonqBmtjJ5u12W10xzu2EgAvc41vLSvVc2XzwrANxXy4J3sWfwW9krJBQAXyyvUgcVftguIi+6zYLDETaBCYISwAAAICnxjRxFD3Gu09hdcgJp+H+KVj7x8KLFBE9IenfDb3cqv2NK6vFUbZeJq/Pd7ff5fOENH/6AxniW8R8oCwB8CAoV8G73+7qRcFyCP5D6oNvu+rg92+axgTvSWAe2VXtW38y+w3LxJGh1IcL6ntWcCkWrQIhjgAAAAAGLHogw5rs236V2uoOwKlgBVciwjomrCzlQBwBAAAADEAcIY7gDCitDtlVwyVLblXBBQAAAPA0QRwhjuBMGNx+J6s/S4SRp7tFcAcbAAAAAJfE0xZHAAAAAAAAHsQRAAAAAACAAXEEAAAAAABgQBwBnDnut0MrPlxh9Yc1yKPRFzxRbzUWPtHvzBn8Rk3mlScUAgAAVJkujqJ3HSUveX24Ue85yrwotkJnH0bwL4ndvvDbx8M+Ia17Z4+kYz71zL2T6KKfKRC9I8mkpLOri6MFj/nuHu6QJPt+pmM/GS9qP32HlUlHFQz7OX5Xf7ohAADAE2GiOHps75te9NiXvjb3Zq/dMKJJCSIRSiFvAs4+jHNa4uh04qsLF0dWGB1WWJQC60nkhNUCsbUq0n7Xn1NbRRJ/Vp7fqhh9mqtoAAAAU1l2W51dKfKCSP6+0WtFD+1NurJUIWv/YnECRx4d/qZ51r51ZcTO1fP2pc8NjxZ3+/tHjL/c9vv69Kz9UAKc9HHkd89t/q2NjCrt+Xq3W1feponCqyiObCCv8yQQ86sHgg3a/Lf1UTlHvCIVgrskeFSBX361QgV+lfZsHxqdn7bR1+v8H8GNi16ZiIPQbP+ygWwfwNaESt//YbA7zxeTVBuurt9IyPZBkfPX7Wvyvnjhou3q8a61N9YHnRcfg0O/BVtH2XDj2/ta88Vkqry+vXQ8+m332dB1bCr1QYvLCWNWO2Zzc2QZfH4BAACeHovEkV05CoJICyWDzUMcFfBixQiSWxEzkbB50d52fxsikSMUVo6miKNce/7vIJacePKCa4Q4SDQpDdx84BgHaYnIsdtJ4JmNysriyFFYObLlVBCebNv2lN+yHWzov6fTC5GcndRmty1+WT9UP6I+hiBa9cVy1zZ2R67/NV98nqoQ+xbPi6bYB4XsSwNz2VcaFydA8mKi3F6tD2lePD6hvT6lx6TbtuUKx4cw7IO20yPlasJF97cn34dojApj5vqQn7+OwWfIgzgCAABYII4SMSQ4QeR+c9Tc37NyVMQLHL1aFPCiJk2d6NlBHGXbq9arkwaKKSF4i4I+G5CFgDSkEMTVAro+YLUMArs4+A3kgk7td60PWf9HiQNYt+37lOt774j725RptlvnU9in8YHr8Pa03NiN+aLHL6k/yPfU+tCh2ukQ+3qsnW9hW+YhO8619mp9GOlfKk4GmHHemD5E41zte278A+l4xH0Xsv7IXCfzrMsVx8wi/mTmL6LmMwAAwNNmljhyIigWRgPS3yCNoO1fPgWBI4yKkx3EUa69PYsjG2DGUWAmsA/UgrUk2BsEv8OAU9hFHHUEQTJa0JANyv222CnZkGDcdPzOCKO77u+Sb5lxGrRrqPgyGBfbR1VWtnPzVOtDYKYvJjMjpjyV9mp9qPcvf6xonPDY+lU5T63vuT4H0rzIFyHf/+Gxq/2ujJkl+bxkyRxHAAAAYJksjiYJI/vgBlk9mvo4BsRRR7jNLZdn8XU377dv/B5LJHJ8mWOKIwkAbXDtArr+W3EJyEr1XNl8AKoDOV8uCf7En8G37zYwVQFgsj1JHAm54NcGuUn9rt8evT0IinskEN7IipE4Jm2ZwLcUbNugOeeLb+dV07i8ii/WRuSXGU9VNg7MzdhHZfN+daTtChVfrP2SzUp7tT5EeXbudP8q7RmcMHK5d1t17FR8cTYLQkP3NfgS2cnXjfpgsH5N7EPVn0DumBb8WA4+SwAAAE+IaeIoeox3n9zPjpwgivdNx9p/MlTEihAEUpeS3wB5AZPm6Qc23DbOxr7FkQ1Iu+QDLRtcqcDMB4RdsNUFiD6pANBkeuETUh+82WDR798YATAIDiO7aVCb2W8oi6PUj2G54I/eb/epHel2OmZhTJwt3x/fD1dt6Ec8Xh7V98hm0RcJnoNNWSExYkwPTDSW8TiX+hBI2xWqvmjxkKHcnuqD1Bc7hf7JalzUXpfnkrPp62hfbNm+/9W+J3azfootGdukv5Hdrg/J3Kvxs21VxkwQm+ncaHLzZAlzn8sDAAB4Iix6IMOa7Ns+AJRwQTix8IVhRU4sbHtEsJVWltzxUBNWAAAAlw7iCOAJMf12MThnSqtDdqUqs9+Wv0IYAQAAII4AnhLRLWClFQS4BEQIRTpI5p5lQgAAgCqIIwAAAAAAAAPiCAAAAAAAwIA4AgAAAAAAMDx5cRR+iMy9+AAAAAAAT5vJ4ujhRr/jqGmj97xG70FK8kYI9o9L7fG2AAAAAADwFFi0cvR437TXzX3rNNBDe6Nf/mqF0o3ZO42c/WMweLITAAAAAAA8KZaLo6CGHm6UUPJ5WiyNkLN/DBBHAAAAAABPmxniyK0Q2VvnUjHklZC99c7k3Zv/m4n31vX2j4uII16ACAAAAADwdFn2QAZZLfK3zgVxZIWREknnJo4E93AGfnsEAAAAAPAUWSaO7CqSf/CCFUpaDD2298153lbHyhEAAAAAwNNl+cpR9EAG9YQ6tao0haz9I8BvjgAAAAAAnjYTxZH6vVHymyPL2T/KG3EEAAAAAPDUWXhb3Xrs2/5UEEcAAAAAAE8bxJGFl8ACAAAAADx1nrw4ck+ou2qvWDYCAAAAAHjSsHIEAAAAAABgQBwBAAAAAAAYEEcAAAAAAAAGxBEAAAAAAIBhsjh6uFHvORq8y+ixvW9c3s3Ut796gn0AAAAAAIBjsmjl6PG+US+ClRfEilhyAglxBAAAAAAA58hycTRQQYgjAAAAAAA4X2aII1kh8rfVdatGGsQRAAAAAACcL8seyPBwY0TSjZFLGsQRAAAAAACcL8vEUfc7I79pQRwBAAAAAMD5snzlaHBrHeIIAAAAAADOl4niSP3eaPCboyTPp6kiydkHAAAAAAA4Lgtvq1uPfdsHAAAAAACYAuIIAAAAAADAgDgCAAAAAAAwII4AAAAAAAAMiCMAAAAAAAAD4ggAAAAAAMCwd3H0k5/8pP3md163v/3iof31r3zN/i/bsl/Y1f4avP7g7fYzn/mMTW9/8NrvBQAAAACAp8RkcfRwo99j1LT3+g2wj/dtk8kTAfSV3/u4/cqLj9tPXv+gffPDv7D/y7bsl/xg/1hYYfT2B62TRK/bD97+TPvuR/L3R+27XjCF5PYDAAAAAMAlsmjl6PG+US+CfWzvm5s2vPNV57385nfb3/jdh/b7P/yrQZL9kp+zfzhEAL1r/lW8/qB926qgJO+jd41ASsoCAAAAAMDFsFwc3QQ5lPBw015fO7H0/v3X2z/81p+1n/zgx4Mk+yU/Z/9QyKqRvY3OCp+wOmREkV1JyoijboXJICKqsKr00bv9/jjP2fyA2/gAAAAAAE6OGeLoob0Jt851q0ZDtHD6/K/9dvvxn/7b9m/+7b87SLJf8nv7h+ejd99uP3gtgkX+l1vq/HYnjrTIkTxfMRVOdlvnK6yICmW9zaCWWI0CAAAAADgZlj2QQa0ORST7f/U3f7/9+qvX7Te+/6NBkv2Sn7V/EEQMGWEi4iVaKTL/51aOrMjxAihZNRqIJ7US5ZIWR6lNtQ0AAAAAAEdjmTiyq0jxQxnsilEimB6+8d32n//Lf9N+8uc/HiTZL/l5+4fAiyARMrKSo0VSThxZMeUFUHqLXYTUU0IpEkCIIwAAAACAU2X5ypG6tS4njAR5Gt1v/as/an/zd/6o/eNPHtvvPP7I/i/bsv+4T6tLxFEQPGG7KmQkr/D0OluuF0fu90eIIwAAAACAU2eiOFK/N0p/cxQ9xrtP4XkNIoD+5Nuv29/6nYf2n/6Lr9n/ZVv2C87+MfC31VnBYgSM+fvdt0XIBGHj93dJrQYJVtiofLWSpB/I8PYHHyhBhDgCAAAAADhVFt5Wtx77tl9DREx29QcAAAAAAJ4cT1ocDX47ZLYRSwAAAAAAT5OnLY4M8q6j7tY4bnEDAAAAAHiyPHlxBAAAAAAAICCOAAAAAAAADIgjAAAAAAAAA+JoCa/ebz939an2c833/A7N99oPN59q3zL5krJl7p6X806RV027udq2d37zbnvVXl25tA07zxHbr0P04a7dqvHbC8zRbGSMdrd7gLmNeNU2mzOc07M8Pr/afvFn3mn/wG8NkD5tGjMjy+jG4Kw/oAAAl8dkcfRwo99j1LT33YuO6nljBPtnRVUceWpl1hRHd9v2KrpA7yF4SgIbx4rtSB+uNm0TOrHHgDjiUO0cIoBmjmbxqtlEQWlWKEmfRxsemVvvfxACuwfCu8xpoe4lnEP2wog4MliBs6QD2fEAAIBTYNHK0eN9E78IVlHLy5Gzf/LsKo7W5AICGwlUNxuTfOT9qtm2222/ff6cvzi6qDnKjJUEuYO+7CqObDtKUK7CLnNaqIs4KjAujtz8L5jjwZgDAMCpsFwc3Tz4rZhaXo6c/YPhBczt1q3k2LR9EeV14sav9tzKhTzkmXryf1QvkBVHY7fcxflvXT1rPxy7eo4ENvr2FUl9IOKCuka+Qfd5UXBogxldd2Jgk9TT+fbb+UbnO5s28G7u2mYr/TB2zd9un/NnWR/q/dM24z6MjIuMt9+fzc/ibN6puiVfJDFHjn3NkdiNyht0XzrETmi4OGaVubV1KoFzZR6EeEzD3MZzKn5HdQs2Q7k4ed/E9zM/h5T5pP3Sp3+m/eJX/Wbgq++0v/Dp99w77j55r/3sz/xM+ws+ffa9T2yRThxJ2UFejx3bQSdGGIw5AACcCjPE0UN7E26dG6wM1fLq9PaPgBcwb109b1/Kdk4AVcRRtl4gK448VeHkbU4lEwhKyl6rbdARggkJbEzZUNDaifM6G1G9QC6w8YGi33LbfXBogywVENhAxxSW4ML9L4HWtts3CFaFWh9sXmivlhco9aE2LsrG5ACnZjOBOdrzHCX5nr4vku9tmbqDfRZtQ/4u90Hs2s9kepykfU227TzEnfb045HOVd1PITeWBjt+xlaS8s2Ln4W5PeLxWeMP3gmipl8Jev3ep9tfeMcpJskfiCeLlDeiyJezgiq3kpTt2wgyVmOOAwDAUVj2QIaHGyOEbowkylDLy5C1fygGIuVFexu2J4ijbL3AXHFUK19jEPwlAccg8NHBi7qg6wt8anNqYGPL6bYkxYFNLh7o9qt2osB7ah8in2p5gQnBWdT3OFAbjFORmk0Dc+Q5xBylbXqknDRi/t9uE/FXHbMpfXC2bD3vi91OCvVjn/Qhwtm3toaNVOe25NtwjJJyU+dWz0NqM5qjQMafkT6Ujs8aIoSsODLi5rOf/rQVQt0+n29XhoII6khuq7MrTLnb7GrzlSJlTZ/mdgIAAA7GMnFkV4pKD16o5Q3J2z8QqSDR22leTRzlhE1uX2Bu+RrVwCa5aEcByh4Cm4EvMaOBt0Zs2Z0z+jDoeykvkNtXGReD+JoL2urUbM7on85jjvp6Sd/rc5S26fF9sStjr0wZ+7cXR9Uxm9KHgJR1ebuKo+1db6tjZG6Lvg3q6XKJLyd6fFaRFR8jfF6/9077pa8agWP+zq4WhdvnOpG0D3HkyM0/AACcBstXjkq3z9XyMmTtH4pEkLxpnhkB5H/nE+X1vwXKiaOoXqAmdrJ5O9xWVwpsbEDSX7Rd0DghsInqOXt9vUAu0MoEbIpSYJPdL/2SnXP6IHUm5QVKfVDl0nGpBp8lpo61uMkcdduWtedI6va+dkjbG1k1cnXvtu63NK7d2phN6YNHj1MyZvG2n89sg2o8bB3tV81Ph8xNt9oXsH0/73NIFRE1n36n/eI78hujT9ovvWP+/vSn2y8Nfz6UCKCJ4kj3eyqDMQcAgFNhojhSvyka/K6oljeOs38kvEgR0ROS/t3Qy63a37iyWhxl62Xy+nx3+10+T0jz130gw6ZpVDBTCWzspr8NyAYqumwIdOLUBSzWjspTvuUDm1yAZJB++Z31Pqi2dLBZzav1oT4u2heXVNki020yRz5rj3Mk+QOB4Mck7A9jOz5mlT7I+ER5yRhG+brvQtr/eG47O95G15/K3FqifN+m2Djrc8gY7rdD8W10QeS4BzaEBy5I6leUpomjRatAgzEHAIBTYeFtdeuxb/tVaqs7cAYkwVlELW8hNhCNbWYDbVCc4BwlQTzAcuQYToXtBBBHAAAnC+IIcXTGHDvwljaWfJP9lDjNOVr0bT9Agl1VW3IcIdABAE4WxBHi6Iw5cOCduR2IVaMxTneOlt2iBeARIb7DAdTddshBCABwUjxtcQQAAAAAAOBBHAEAAAAAABgQRwAAAAAAAAbEEezG5B8W7+P3JTHpb0i+1bTtT1217ZfN379o/v85sw0XyCszt36ehS9v3bxL+sVz/jmH79fB+nDA9r6wWaGdZN4BUqrXALl28cRAAMgwWRw93Kh3GV037X3mZUaP943Nv3nwOyYQ7D8d/rJtNl9przbfzp6UXzUv2qsrk2/Ti+QRsY9GYIQ8l3oxUMob7r+6+tiJlLuPk/1pexM4EXGUffqY2QwXRgnGEEdHQObAjP23/KawSmCsKQTJq7Xjj6MvhM+Gb2/vIuJQ7QQO2B7iCA6C/+yWrgGLnzYIABfNopUjK4LSl70+3Jh9N+1Ngziq48XKdqgu77ZKuKQiKgiZTL1q3qtvG/GiRVSPE2KhvbJfVU5BHJV8MDtCYL56QA7TUHMQODdxJN8+/5yxFQIr2f7F7TDQgukgjuAgqPNP/piT69KC91QBwEWzXBxFCuihvbGrSY/tPeKoTkms+P2b5i/9Don5g3ipCZcRUWOFU35FyIqxbgVrhjiyYkQ/LlkJkySv76cXR/Y9NC6vf8RyIpxSsaPqDOtKNo/UPlnMJNbEkb4FTpIOXuQ2mC8YARLy4ltiXGCs604SR0k9nS++/KJpQ+eLTSuOTPqCybdBlvk77BOW9qGWV7s1sDoupmzYn80vsKQ9e8tSMrdip2uvMtZ6bqwdnV+pN2XeAeZQfOeZv+6wsATw9JghjkQA+dvqklUjueWusffZIY7GcIJnKFbiVRxHt5LkV4bsSdqLKLtSJMKmlie7otv0XHIne78y5cVQya8hImTUBSMSMunqkP5WztXrLkK2ns4riSNtQzbNBSu6TzzJh9PCTKIOZENKA3CLmUMJfEOwK0H5T5lg2+Lt6Lw0mJ4ijqSeLmcDf3/sWIGggn3Zlvp2pcj/LyIh/J0VHbU++LzQXi0vUOpDbVw6G5KXiJcxdmrPINs2L+1Psh3aScdc6Gx4dBvyd+eft6nLAswm/TIugDgCeLIseyCD3EJ3fWPkkv+7U0OIozHiW+d64lUcob+trhnU6Vd5hvb0ClDl901aSNk09ClLKk70hcX+Ha/wXJUEkLEgL+t0F55dxVHmwjaGqRACdUm1b9/J2wGxlwS/UQCetCdJB95d4GsmvAuEU5s6TzEI9H25tL0QeAcxlNLtV+1E4mhqHwzap1peILevOC4GyesEifilx2kCc9uTsQnjYFeAvIjSfwf0+Eo7dqySMtU5SvuT+FJF6ip7q3weyDuNvJ3hCzYAiFkmjpLb6PoHNajU3PuydfL2L5WSWMnsV7fZDQSQzxNhUcuLhVKCWnGavmpkqImjgXDRLBVHYjYntgILxREcBjMxNXEUBfPm/zTQzwblqc2kXmAQ6Gd80YyKI43Y8oH95D4Y0r6X8gK5fcVxMYivOojs/JrI3Pbsth9TqRvamyKO5G+xHbVn/i7OUZqX+gKwCMQRAMQsXzlKH8hgYeWojhMr+ndFgVjkJGJJ3zrXbXsxU8tTAisluo2vVC53W4EVLuFC4gRO/5sjuciUbkNIRIy1resVbEp7RcElcGE7acwkFsWRmTMJbkNAHQL7EOwWg/KkntjT9QKlQD/dF1gkjub0QepMzAuU+tCVS8clGeu5zGrPI3W+YOpEbSfjkm537fj9us3iHGVs5MYMYBbJl3Ed/vrH71kBnh4TxZH6vZFfFcqsRRgQR1W8kIlSt1rkBdFgv2P426F+taiYl2vPryLFt/HlV7TsD1UzYifsd3mJ6LEXmrDKY1InbJxw6vYngkbb3DRNZDNeOZIUX8h4IMMJYyaqKI4MQUxIkltldCBeC8rtyoSvJ7Z02RA069QF295Ol6d8K4kj7W+H2Q4rI2N96NoyqRMLhlperQ+1cdG+hNSVrbC0PYuMhSrf4feHlPavK+/LdbdK+Ta6umqOavMOsITiAxnCtSz/bR8AXDALb6tbj33bhzMnWmFyDMRQ6Zs/gCNTC95XD+zNB0BEg7YpYmnd32cAXBK1Ow/cXQx88Qbw9EAcwWkzEEduBSq7msU3fHBiHFscSRuDFR0AsNi7EjLXjXAnA8II4GmCOIITJ/wGqU+lC5Zc6NBHcEocVBwZ0tvjWDUCKCBfvHHBAIAMiCMAAAAAAAAD4ggAAAAAAMCAOAIAAAAAADDsXRz95Cc/ab/5ndftb794aH/9K1+z/8u27Bd2tQ8QHrm61u3j+tHhh7gl/dDtRSRP+juqL2uy8jGhGfy2TdqqvourTjfmZz3gAAAAl8FkcfRwo95zdN20992Ljty7jfo8k/yLjkQAfeX3Pm6/8uLj9pPXP2jf/PAv7P+yLfslP9iHMb7Xfrj5VPvW9oXffkL4QDcE7YMgci+BsHsQxGSb8uPeKECeWT9XfmebE0jEkWPFduzTBtWjcvcoWiL21E7pqYhW4CxpLDv+AAAAcCwWrRw93jfqRbDlF7++/OZ329/43Yf2+z/8q0GS/ZKfsw85nqg4ssFj6T0U+wRxtEY7IiY2G5P8BL5qtu1222+fFVUhU3tfSoXBHAMAAMAxWS6OOjVUFkfv33+9/cNv/Vn7yQ9+PEiyX/Jz9i8XJ3A+13yvfdM8a9+6MmLn6nn70ue2r95vP2f3uSTlhJfbfl+fnrUfSkTl64Sy7d1zm39rI7hKe77e7daVt2mK8Bqrl+3Di/a2+7vH+rR5v33jt7OMiKPSbWA2KG8a+04kCT4bX86VkUB22zb+XRaShsF6QSBYfzJtjggZeyuW8aevO0GQTLAZ/Ih8Getf0odJvgilvhtK/XPzcGfGX/ph7Jq/3T7nz7I+1PtXOibG6tnx9vtz+WI3Kp9QWlWqgjgCAAA4KWaIo4f2Jtw2160aCeltdf0td5//td9uP/7Tf9v+zb/9dwdJ9kt+b/8p4MWKERa3IhQiYZMIiEjkCIWVoyniKNdeJ2KcWHLiyQuuGtV6pT70Ik1j604QZDbolGC1GEQOg3lXRwJ0CYhdUNsH5W5fF8hmBVhOILjgut8l277eFCGj8q2YiGxn2ssE65Lieh7bh+Bb0j9rJ87rbET1AjP7LluF/smYu/9FlGy7fVmRUetDNEe1vECpD7VxUTYG85nk58iO5QjSTuwkAAAAHJFlD2R4uDEi6MbIpSF2Vcnn/epv/n779Vev2298/0eDJPslP2v/YvECR68WBbyQSFMvKJaLo2x71XoVavUqfbCrX+K7ry/lu30TKYukYSBsy9odfVAbiyMdxOYC6cw+G/ya9qPkA+ZBMB3XH4qhlEx7IzZtfuSLDvRV/3TQntrMBvQz+24o9a/br9qJxNHUPkQ+LZy/tF7Ud8kbE0e6zRyJjSpS1vQ3N2gAAABwNJaJI7uKpB/KoHi8bxuf9/CN77b//F/+m/aTP//xIMl+yc/bv1QKAkcYFSc7iKNce3sURzkb4Ra6l+Z/uSXvc80L61tnZzIuqBwLhPcijgYBs2KQF9dfXxwlgfgg0C+IgNRmVC8ws++GUXGkEVt254w+DPpeygvk9lXGxSC+5oSfI20zR9KfCfTHKQAAAJwCy1eOolvreuxT7XyePI3ut/7VH7W/+Tt/1P7xJ4/tdx5/ZP+Xbdn/9J5WNy5Wyispvm76G51IrPgynUA5sDiq9UHKbZ63tya9lHL27wntpdiANg1Ah4HwLHEkwfog8C0F1+k+T+pXJvCux8CZ9mriKGnPBfahvaR/2peonrO3c98Ni8TRnD5Ec7TL/Kly6bhUxJ+rq+Y3h7Y3lcEcAwAAwDGZKI7U743GfnOUiCYRQH/y7dftb/3OQ/tP/8XX7P+yLfsFZ/+pUBErQhAXXUp+A+SFSJqnH9hw2zgbRxFHQqkPYb/1JYi4Cb9xsoFv+DbfpT7gDcH9MH9cHOk6Ougt23TZEgCrPBXY2ja7vDiQLoujSnuDwDkO+J2YcMk9fCIE5hURYDd7P7d3uuzyvuf7F/vbIf3yO+t9UG1F47l0/urjon1xSZU1SH53O2CG/pibAeIIAADgpFh4W9167Ns+wJAkSIYTpDZHe5g/K8JHxFB1ZUh8igXxJBBHAAAAJwXiCJ4giKPT59jiSNoYrnqVVofsqtPcVSOhKrgAAADg0CCO4AmCODp9DiyOMrfjlW6hEyEU6SB1m+ASutscd7ABAAAA64A4AgAAAAAAMCCOAAAAAAAADIgjAAAAAAAAw97FkTyy+5vfed3+9ouH9te/8jX7v2w/zUd5H4/uMcX8rgEAAAAAIMtkcWRf7tq966hp79M3wMqLYZN3HYkA+srvfdx+5cXH7Sevf9C++eFf2P9lW/ZLfrAPe4QnYgEAAAAAjLJo5ejxvole9ppuB15+87vtb/zuQ/v9H/7VIMl+yc/Zh5XhXSoAAAAAAKMsF0c3D37rob3JrSQZ3r//evuH3/qz9pMf/HiQZL/k5+zDyiCOAAAAAABGmSGORATFt81ZHu/bxmw/iGDy+Y1XSp//td9uP/7Tf9v+zb/9dwdJ9kt+bx/2xo7vYQEAAAAAeAoseyCD/X3RjZFLBhFHShDplaRf/c3fb7/+6nX7je//aJBkv+Rn7cNKuLf8I4wAAAAAAMZZJo70rXR+5ahbSTLIwxvkrruHb3y3/ef/8t+0n/z5jwdJ9kt+3j6siX0DPwIJAAAAAKDK8pWjThA9tveNE0NuU1aSnHCSp9H91r/6o/Y3f+eP2j/+5LH9zuOP7P+yLft5Wt2B4DdHAAAAAACjTBRH6vdGktIn0/lb60J+J5QMIoD+5Nuv29/6nYf2n/6Lr9n/ZVv2C84+7BXEEQAAAADAKAtvq1uPfdsHA+IIAAAAAGAUxNFTgJfAAgAAAACMgjh6ItiHMvDkOgAAAACAIogjAAAAAAAAA+IIAAAAAADAgDgCAAAAAAAwII4ActiHWFy15/kTrbt2e9AHcLxqm80ZjlXyoJK77ZX7Xd7Zznvb/sE7P9P+ws+49MWv+p3H5JP32s+eii8HpHYsHeU4O6Pzmft97IrnryfyQCI5rvT8fqtp25+6atsvm79/0fz/c2Y7yyuT58vtgrSxq405fGFj2jzWpK40Zodm8jGxd77afvFn3mn/wG8NkM/skZ+wPFkcPdyo9xz5l7z6DLW/T/pdRzWCfbgA5JHhV5u2CUf0IS7Ivo0QbMQPnNghaD+BYCK92FlkjEedGhFH1TFbwi7iqFB38Pj5PQgwOw7pOJ2p0Iv4pP3SpxNB8tV3jGD6dPulT/z2oUTLBYgjLWai89sotWNp7eNsxN4JnM+msro4Wvwqi5XnKL0+2u117NsxSw2ZzRAIi5AoBcISMK8RJJ+TONpVWK01ZruwqA8Tj4n9MyKODPa8e8QT1qKVo8f7Zvgi2A55YawSTyPk7MN5IifozcYkf/Z/1Wzb7bbfXoPoImAv+LVg5bwDXTk5DMZuV3E0OmZL2GWcC3UvRBzZz8S6gz2BoTh6/d6n289+2qT3nDp6/d477Rff6bchhzsWll+ga8fS2sfzHj4fF0JWOExi3RX4O3MtlOuhc8XMV9OYOVvhXJw9jxnMjp8yAfC3zJ+1QFpEzRdWOEU9JXG01pjtwmJxNOGY2D/j4sh9/taOVaazXBwVloZqeTly9uE8cYHgXdtsJaiVk/9dFBzG38DqC7m7CDVyEfN5uYDS1tcBcyXQtxdE1ZZLfVmxtTUXp34Fpb+4aD/ja+qIn/6bQJ12CYyzgbUWR7b/fVvpeN4pfzo7Y+KoaNMRz2EYszgwC2Pf1S3YrM7RiDhafCwlvgy/oS4EmZVxqR1LgvV11jfXyYXDrr7023Lr3Bffcysy7ha69CJTEEfvfbX90jvvta8l3/zt9jlxpG/Hi2/Jc758yZQNeb2gquXFNuOVo3o9t8rV143y/UrUYP8+sHOeHh+Kkc9K8ViyzD/OhNznb8q5Luyf3t68z9Gc81zch97Pvh/D85P9jN25McuViW2apDrq6vqNhLhemGvpu97vU2Kz268+22U/zT65LprzmjVzZ4TRK3+elmzZVejD0Obw/DJn/COMoZ/a+r8N2YBZyviAWjoqt5PJ6oMkXdaKIynr86JViaReLS9t/8vGv5AnKQgw7Wu4XayrW7AZyqWpEzo1PwPSRzVmllp7Yew80p/ObqXvVoApf0OdVfqwCpk7FAQ5f39arjOG4vnaX+PUuT53LrfnhNyH18c2pc/1GswQR7Ii5G+bW2nVSOjtw7kjB7IcrLJi1Miqkf278M15FHj4i1E40m2evvi5/Jyd7oKaDT4LAYjBXogGFzW/YcnVTfy0H1DdB+XzILifTz926iJq7A72WXT7iZ/JeBbHLB33ZNuOWW4w1Vil41r3UyjMkT/5pSnffOVYGsyRshHVC5TmvdyH8WNJmpIxT9sqMS6OuouP344vUHlxJNuyYvQlWTWyfxdWjqL2xBfT3jvemM0Lt+fV8gK5C2hSz14gdXvKhr7QGoZ9nYCd5/g4Kh5LCjtnpc/wyGfFUT7/5PMmHGdFp2ttCZn8ah/cZyX/OXK+lNsqY8c0W/HOXDOk4Vw/3D49Z337Pk9ViH2Lx1CT9iHdzvuatue23Tm54qeMrfxh/pcvUrZ2p/HNHl+1PqQ23XZftNy/KYjA0CsgOnAPK0E2GPdiIF0d0iso8ncnGsw+CdBDntjVgX9HUi5XbyBEPEEc2TKJAKn5KZRWTYp+KtIxE8bGRZfXZcfqdX03PonQ0WV36cNayPnYXUP6a5ZcV8K5vXy+rl0DFPaclLlu+vhAfWRWZ9kDGezvjG6MFIqZu2okZO3DWRJdCPwBLReYTtQMAt5w0MsJXn8A1AXA2hr/ELjg09iMgpn0QtKTXgiH5OomfkYf3OQiJX0tBVZTERvigPl/u03Eph+XeDx1YFMYT0U6ZrlgoB+n2kXY2be2ho1U/BQKczQYv6Tc1GNJz1FqM5q/QMafkT6MH0se63NpDDX9hcaSEUd1gTAUJF0dZSsSR+obPJdCe4kvke1aXqAkjlS9gRgriyN74dUX1T1iPw+Fz3D9sxIoHNuWucdZ7fMn1NoShvnjn/fC58hu+nNHucE84XNbrJfrp/O9u47YbV9m8BlO6mc/44bcWGfGom/TMzgv6XJlP2W83H41ruKDtFntQ2rTtde7mszTHEylVFSIELLiyOT9nA++u33GBb0iEZIO5kvBe7fakQgdLbwCOrjXYiFF7OdsjvkplIRFyc8OUycds7H2pD/Rqk+wPVIvGk9fdoo4Gu3DinTXEHOeltu25Tyvryvl83X9GteTOx8chmXiKLdC9HjfNjNXjYS8fThHhsGBQS4mdmftopWe4N0FIb4A1C6oAVeuL5ba6cn6GpGrm/iZXNTEZn+xXeED7cfOrsTJLRj2b3+RzVyke8bGU9OP2XiwVOpTsN/b6qj6KRR8G9TT5RJfaseSzkttDoISIePPSB/GjyVpSoLJtK0S9QvHTuJII8LDXrQSQTIQK/qitW9x5HztRVq6EuUJYm6KSLLzrD+bLo3NmZ33wpzVPyuB2udu7nFW+/wJtbaEYf74573wOdLYMTLjWW44T6lerp3Bvt63QR/SOSuNqeyv+izjNRzv4Zipca34Kb83ytmSc3m9D8k82G1tK82fTnaFwWxLUC0B9hfM3z9n/u7KSV4qDBQ1cdQhNlTgvqs4knJSJmpH2qj4KZSERYfYyAiM4pjV2jP+i9CUfGm3689IvaXiqKPQh1Xx1xB7R8JXzXnc/F281kTn6/o1oCc93g/H8pWj5NY6+zS7matGQtY+nCXZIDFchOyFoz/IpWzxApBe4Dy2TiVITdsQpI7+1i2Q9TUiF2wkfuqLofxd802w/RprVyHlN7Jq5Ozebd1vAFx98aVka9p4WvSYpeMXbbvxyAcUaYCg/ar56cjOke27Hs+0jYnHki2r5ijtz2BcSvNe7sPYsWT9Gzs2IrRYceJC33KwujiyF6ZehDhxEtpLLmL2IjclLzBTHMnfaqWoSvGCuhaVYz45BgfbltyxFJh7nFV88WQ/Rx2Z9qp9qHyOUnJ5U851g8+4Qe171TTOZlouKmOERcjzbeqysfAwfYrKFvpjkf6n85m0Z4g+20U/k7H0hPmq9iGxOTyX5P0cxZQPAXuE3/+LJqC2wbyIARXQD4SIIgrmTRkJzHUw3yFthDz/dycYkm0RAKXgvhMHvo72q+anoFdzini7kUDJjZlhrD0rikx+Wn/yeKa+GBb1YQx//FU/txp7vpaH+8g525zr3zF/f7rwhVZ0vp4ojkrnHe9n+Xy3OxPFkfq9Ue43RwtXjQRnH86fQiAgB7HfaU/scuK3B3WjLhhygu/zaqsu0cUuXEhUGrRvP1xDu+JL/gTggxBls7ebXOSSD67un0vJhzr4km94iC8fTgC272a7qx71zaTuolkZz7Exi/LTeUjHJvQvmfv0xFX00xPl+zbFRlQubqN+LJXnKIyhJLfSFfch5PVlbGbio0lJwBKNoULaW3IC725HMOmz770XXUjK4igIqTh98as5gWII4sjgBJFLcXtyEdP29IWvllfyRfLqF0bti0shb2gzPw5rMvWzpD8rtWNp+XE2rKuOcyH3ORprr9iH2udoaDM9/gfnKiFqS1Liv6D6EJ33lKF4W8+P+/Io+rxFYxK3l56v089plN+1l/S96JfaFh/Sc56344qrPkg5GSdvJ4xjrr2A+Dn3HFMLrCUoj24DywTpdkVCkgr2pV633yS94mNFjsqLBIH5W+fpekJaN/jSiSPB2+j6VPHTkuRHYkzt135WxchYe96/gRCq1BsTR0v6MEr4vGSOszzuGhDfRjflfD1NHKWfqY7Zfs5n4W1167Fv+3AOJBfic8Re+IcX3/ii5S6Ce/w8A6xMchGLqOUtJLP6JGKp+20UQBEtOC6DScLHBoozrp+5QBvqPJkxO6UYRXzRX9ho3Gd97pcCc0AcwQlwieIoPsmEbwD3+WEGWJ9jiyNp4xArRHCORL/lyXxBdd5MF3vFb9gBJnJqMYpduc0c04fyE3EEJ8AFiCN/Ietuf0AIwUVwYHGUuRWDVSMoEt2qV/qW+VyZd12UYBJ9BBeBurX0WCCOAAAAAAAADIgjAAAAAAAAA+IIAAAAAADAgDiCvfBy+6n2rSufti/83t052H3V/lGR+2+r8JjlM0M/fvkk+mIfDXpsX87z6VmDz1j2UcSeWt4E7I9u5fci5zZIAABwsUwWR/Ylr927jpJ3GslLYfV7kGa8DDbYh8vhTfPMiKJn7Ycr/zg2+0Se8Lz7kOKobnlwijhaQKYv9ulj6v03hxItlyyOqsd8jXF/Sk+9Kj05SKjlVbH9uKSniwEAwCWwaOXo8b5RL4KVF8TemH8Dsj39hbA5+3DeuFWj5+1Lv70KuUDK7qs9oegcvrm/bHEkL4X77KdN6l4SJ2/T7rcvmz0cf6PHfI0Rf6pipfbOiVpeBXki0Q6rTgAAAPtguTjqVoce2/vmum2CGpJVpE44jZOzD+dNURzdPe9vtTPpc833fMb32g83btutOg3ry7fTg0djVwLF8Cz8OPVl7a1DjdQPeX1Q2N3qY1IcSLpHq8pb2EN+5FP0WNlMfpZYULg3TCuB4VdA0lvWbLlPv9e+dpsGZycSHd6f6cF58mjm5K3VcuvcF9/T/qSPcS6Io/e+2n7pHfHV5Ju/3T7np74dT/cv+PIlPx6S+r7V8mq3+NXruVWuvm6Un8xDVK9ILEbCMdnNhz1++2MlKheJBmfHHktj4qhmU+13KbaT/YwpSqtKQi2vCOIIAABOkBniSFaE/G1zGfHT3XY345Y6obcP504vbHTyt9e9er/9nNnuBJEXSrc2nvLiaPu8vZX8tGzlm+ku6MsGWeVvyq0AUnWsWIrK5eqKH6Ze2GnFRxBViY+TA79eUNigPhI86XtkZDvcoqb/NiRCxrIHcaT9s2IpEh95cSTbsmL0JVk1sn8XVo6i9sQX09473pjN030v5QWGvgzqRS8cTcZT8qp9nUJ/DKXHmzte9CqNPn6SYylZ0Skf8zWbQvnzMCybIfEjopZXQo7P6QcnAADAQVj2QAb7G6NwK51bOQqiyIokVo6eNLmVIyec9L4X7W0ngJw4Kt+KlwZ9Q/IBY10c1eOykjhSfkQBYRJczhRHdkUiBO0BG/T7vC71AbwE7EFkFAXHLMbFUV0gDAVJV0fZinwdrNZosaJ8iWzX8gIlcaTqRf2riyPx2fqXzlEVdwzZ4zI92JIVHpf640ev4sixnVvRGRzzIzaDP/njfvwzNjjGI2p5KVLW+Fb/AAIAAByFZeJI/67o8b5trtPfHF23UxeQ8vbhnFksjopPtZsSuAku6OpjrkOKI2czH5TWCEG8BOdJMJ8E6AMkuLf5qVhYSk087CiONNIvKzISQTIQK7pP+xZHztdepKUrUZ4g5iaJpHAMpcelYUw8y7Fl88eOfWV7VJCfijhyWHFX/xACAAAcnOUrR2F1yIoj9QCGdHuErH04a7K/OfK30YVb5eIn2k0RRxMCLytW4nL6G3jN6uKoC2bnooJ4G6zrgF6C+TTAj/mDd0wQ/14QGwmLbqsLosD5pX9XtLo4sv3tRYgTJ6G9RMhYUTIlLzBTHMnfNSGqSUSVJTvW6hiyx4rOl2OpPjd3W3MsN8ZurVB0zE+xWfpd0YTPmD7eU2p5JSavrgIAAByOieJI/d4o85sj+4AGlT/nZ0fOPlwSpQcypL9Jcr83EsbEUSGo8wGpToPA0AelLr8P/sriyAW0ebsVcWQQm3G9KcFiEsT7lYnutjMvmLoVjTSA9+WzomW2OFK3j5n02ffei8REWRwFIRWnL341J1AMQRwZ9GpN3J4Thr09vZJTyyv5InkVcWTQvrgU8oY20z6FW9zisU4Etp+P7jiOjk2TUqGQm7+xY37MZuHzIJSFk6O20rNoFUj6gjgCAIATY+Ftdeuxb/twISRC5OSwQWvs31iwuQoiNKaueJwViZCJqOUtJLP6JGJp999x7cChxUP1M1ZbWZqw6pQDcQQAACcI4gjOhpP+jcJAHI3f4rQ7bgUlv5pz7hxbHB17bA9x/AwpfcbsqmjBmVpelVP/wgMAAJ4kiCM4KyQQO3TAOI3h7Xj7XDUKt4AddWVjrxxYHGVunTvW2Fqxsefjp8bgMybCv/Shq+VNINyOuIsNAACANUEcAQAAAAAAGBBHAAAAAAAABsQRAAAAAACAAXEEcEpM/pF68ljxPZD+9uRbTdv+1FXbftn8/Yvm/58z24EvbMy+M/rZyJe3ri8/Zf4PhP7pfcei88+kUx9Xmftz8TWL8Tn4/1OmL9/yuzVzj5faZ2UZhcfinxn6cfkn0Rf/qoTLfKhNT3wu39OxJNeuM3j6ZPhNp6RD/9Rx8HvOMxmzfTNrXA40ZpPF0cONes9R+pJXeSlsl3fTznjNUWcfYBl/2Tabr7RXm29nPyyvmhfmJGjybXqRPG740QiMkOdS/wEt5Q33X1197ETK3cfJ/rS9CZyIOMo+tcxshoBPAuKzFUdmTn7O9yOHBLNf2PeZdyLnMK7iY2m8tMiTFMqJeKgKBn+sDcr4uetsamFSy5uC1M+JI2931vFS+aws4zLEkSPTF/u0SPW+skOJlrMXR7mXlccMz+X7O5as8Kg5syr1vmsRlL7Tbcq4rc2SJ4GuT6Hf9mm7+iFAhxufgz4hdQaLVo7sS1/Di2Af79vmWgkiEUrJS2Jr5OwDTMeLle3wiLvbKuGSiqggZDL1qnmvvm3EixZRPU6IhfbKflU5BXFU8sHsCN+sp0H7WYkj1Y8cEtCfSl/OWRzJ/pJAGRNHMgdfMP2OxIppQ0RKVojV8qYiNnLHxZLjRdVZZw4vWxzJy6c/+2mT/BMiX7/3TvvFd/ptKDESxGbP5fs8luS6tOCdZ4so9d3trwfPhwv+LdXr+gmMmX3n3EatyBxofBaPy/7HbLk4uvFySMRQ+Nvy0N6kK0sVcvYBJlMSK37/pvlLv0M+h0G81ITLiKixwim/ImTFWLeCNUMc2ROEOZl3SZ0skry+n14c+W98JPXf+vg8vzU4Aak6w7qSPf8x0joADLcUdQGhMaW/0Y/KJUGn2Nn9W/YRTPuHEEe5/ont0D/5O4xJNF6KXGAtKxXdKoYf23S7ZnNtxMeBKEn9ShgTR7/oxy2y7W0uFkcy77UxERvJfFmkXm6/Z63jpU4c0IqYiG5N8ysg6S1rtlz0kmhnZzfRkTxK37bdb8utc198T/uTPna/II7e+2r7pXfEV5Nv/nb7nJ/6djzdv+DLl/x4SOr7VsuLbWpfxuq5Va6+bpSfzENUr0btnFy4BnSPwY9SHDDmz+X7PZZKKwFF1u57er3Lkg/+7YqEshnlJ75E41rLM4xdU48+ZmLPCKM7U8aVj8enNC5ic9M0Jt4w+039xpfrulLwJbDLuBTz/NgUqk1mhjgS0eNvndMrQ/aWun7lyAonxBEcCCd4hmIlXsVxdCtJfmXIfni8iLIrRSJsanmyK7pNzyX3IfQrU14MlfwaIkImPZmEE3sicux2uPi5et3JwdbTeSVxpG3Ipjsp9m4m+RMJQbwN+JNAMgrmDfo2pOiWJPN/LaDu8OWCAJgtBEy52i1XWsDsSnrLVToWHYW+zxVHqf20/Sw7jmdOHOWEoaYqjky7IS8tZ+2KfxnbtTyLzHutXzIOubpS70DHS5k+oLVBfRSkpu/9ku1wi5r+25AImWUk7WXEkfbPiqVIfOTFkWzLitGXZNXI/l1YOYraE19Me+94YzZP972UFxj6MqgXvSA6GU/Jq/Z1CrVzcnIuT8uaUuVv+Evn8j0fS9H1Zoz1+26D5uialmPCykjSDwnkS+VreUO/Mxx5zDob4ofNrIyP8tUJLvlb2nFCxwkmaXDMl3Q7Q21cSnnSl8OKI0VWEDnh1Nzfs3IEByO+da4nXsUR+tvqmkGdfpVnaE+vAFV+36SFlE1Dn7JEJzaD/sDbv/tvXVwKJ5P0xKNPZkledBJJTkhp+2ndiUiAbAPTNIg0hnOBdwimdWBZDZhXQsTClN+ihEB7VFiMkPYvatsMcjouO4mjkbHeF2uLo6jP0qeMnTA/i0RSiUxbhz5eyriA1n6bH4L2gA1SfV6X+iBWAuAgMoqCYxZJAJ0EyeMCYShIujrKVuTrYLUmtJcG89p2LS+Q21frXyIQEnFkV1fEv3SOqlTOydVrgFAL8kvn8n0fS0l/qqzf953EkQ+s+9SPnxMCZl9msGt55XnQHHfMtI27rZRPyhXGxfbbFup96sTRqC+7jsucMZvPMnFUu3Uu/Q3SCHn7AFMoiZXMfnWb3UAA+Tz5jNfyYqGUoFacpq8aGfSJTdBCJs2LSE8s+mSW5GmbhniJPD25TDlhDQkBrQSTUTBv/q4GqabtEJBGQX8NqSNBa5KKKwIJNpCtBLyrrgSo/qUiQvrbbfs+7SSOxsa6hLexdDxz4sj6YmyU5rMojgq+lETH4HhT1PKySNuZ8Tvo8VIkBPESnCfBfBKgD5CA1+anYmEpNfHgAuhYbKQMBUm2jvTLBu+JIBmIFd0nbbuWF8jtG+9fTjhEBDE3USQVz8nVa4BQCHYtpXP5vo+leUHr6n23gfzYNSxXN/E7uW52WPvG19ygZ/OmXFNPYMxCPfl72yTxRH5cquJo1Jddx2XemM1l+cpR9qELj+19I6tHE5eNDFn7AJNwYkX/rigQi5xELOlb57ptL2ZqeUpgpUS38ZXK+RNndGKyJ5rwAXcnrv7ELh/+zInMkpxYrG1dr2BT2hs9Yc0/4XRBvKknwa0OSseCVAkuvzASgK6K8aUmIsSfrL9Sb27AbbDiwdSJAm8/TiHolzbF9lRxFOpJvq43WxCsQFYcGaxvhTktiaOcEBkTUlnhlMsbmz+po+coIPVy+z3F46VG7lxQRQXxNljXQW0myE34g3dMEP9eEBsJs32R9oIocH7p3xWtLo5sf+PVi+LKkRUlU/ICM8VRJw4moOsFSteA4jm5dg1wSKCc/91G6Vy+x2NJGBEV+++7v+ZVD+iMSIiuxc52UWSV+igM8iZcU489ZtJOZ1PGRh7O4O1UxqUqjkZ92WFchJExy38mpjNRHKnfG6W/OfKCKORFz2aYgLMPsAAvZKLUrRZ5QTTY7xj+dqhfLSrm5drzq0jxbXz5FS17IsmcLMJ+lycnDPWBtycAl2dTdwJzJ55uf3KS0TbdDyZ7m+7kplN8gslfcOpEQbz5X4LQLqA1pqLVgDTQ9OUPFtRLe0uC3dCPQsBfpNC/IIgkyViJsAkiJ4genUJ9KyD8vrTe6FjvgZI4EsS3zheTQjndh5Ckf9FxFPDj92X/f1pHl8nmBXyZwf6AjF1uvKReZRwXiaPwua5FMRFJEO9XJrrbmnyQ261opAG8L58Nemf7om4fM+mz770XiYmyOApCKk5f/GpOoBiCODLo1Zq4PRfM9/b0Sk4tr+SL5FXEkUH74lLIG9pM+1S6BlTPycVrgCfKj68D+XP5Ho8lg+1j5lg6bN9L18fwZWGcgk/al/i6OazX96OW5xi7ph59zCJxZEhEWWlcer97oSP7ur6O+LJ0XIRiXmizUG8qC2+rW4992wcAhT3pqROpYXCCsieXuMxeMQ0dIojvGGmvFuweY2Xm1KmJo7PC9OFg4sgYHfuGd1UkoC2ueBzYl1VJhExELW8hVhjENkUs5X97M5Ep5+Sl7ONcPnosxQKtyj77fkpU5+EJj9nicanlObG663ggjgCeEoMTaz4wqn1jszYHFxzmnCmrK6Xfw4g/abAfVjqyt3c9cS5eHC04XmrYz5b5zB0umHErKLlv+g/vy9ocWxyVx3YyE8/JS1n3XF7vrwTps9rac99PidI8PPUxWzIupbw1z2eII4AnxfAWgNKJRE5A+zzhhtvKjiE4utu6jA+B3D4YR98CeJarasbn4H9phehcj5dwC9hOKxsnzYHFUebWud3Hdvo5eSlrnMtHjyUJ2mc3sv++nxKDeWDMLLPGZdGYzQdxBAAAAAAAYEAcAQAAAAAAGBBHAAAAAAAABsQRrEr4Qdwh7gkFAAAAAFiT2eLo8b4Zvs/o8b5twjuQrpt2xjtgB/bhEqg9ZhEAAAAA4DSZJ44ebtrr5qa9abQ4ci+I7batULoxe6cR2YeLYd9POgMAAAAAWJsZ4khEkKwKPbb3WhxZwXTfhsWi7MpShd4+XBKIIwAAAAA4NyaLo4eb67ax98vF4siKIb8hZUQo3Xdlxwn24bIQcXTJ7ysAAAAAgMtjmjiS1aH+vrmsOLLCSIkkxBG4hzPw2yMAAAAAOA8miSMRQ+5hC0mS2+lEOJm/ezGU3HY3gtiHy4OVIwAAAAA4N+Y9kMGSip/wW6SwKWKJBzI8dfjNEQAAAACcGyuIIwOP8oYExBEAAAAAnBsLxNG67Ns+HAfEEQAAAACcG4gj2AO8BBYAAAAAzg/EEayKe0LdVXvFshEAAAAAnBmIIwAAAAAAAAPiCAAAAAAAwIA4AgAAAAAAMCCO4GKRJ+bZ3z+ZdOifQK31tL4/eOdn2l/4GZe++FW/85h88l772UP58qppN5um5bkeAAAAcChmi6PH+8a+zyh6z5F/99Fw/zipfXiqvGqbTUZQ3G3bqyhALpQrkikvNvXT9CQIX1FA2YdSrGXM8kn7pU8nguSr7xjB9On2S5/47UOJlkOKI4MVuKuOJQAAAECZeeLo4aa9bm7am+glsA/tjX3xa+blsBOI7MMT5nDiSMTLZmOSV0evmm273fbbO2GF1rZdN5wfiqPX7326/eynTXrPqaPX773TfvGdfvty4LHwAAAAcDhmiKMxEYQ4AoNfhQm3s0WCI8kLgqV7/HeUfEA8Io7s7WuNtpsKk4I4au7aZit2Tb752+1zrejb8ST1dSVQ35ryvb+poJK6Q5H11faLP/NO+wd+y62+9Nty69wX33MrMu4WOlXWUhBH7321/dI777WvJd/87fY5caRvx4tvyXO+fMmUDXm9oKrl1W7xq9dzq1x93Sjfr0QN9iuKK3F2BTCeWwAAAIBdmCyOHm6u2+b+0fyFOIIy5d/aOGHRZ6UrAoUVoQniSOcP28+LI9mWFaNGVo3s34WVo2glSHw27QVjNk/3obTKMS6OfuHTInL67Vh85MWRbMuK0Zdk1cj+XVg5itoTX0x773hjNi/cnlfLC2Ru8UvrWTGk21M2JK/a1wyl1TjEEQAAAKzMNHEkt9N1qgdxBGXst/xaQASSVSOX1hFH9eB4aLero4LuSBz5oLtPWhzpID21neYHxsVRXSAMBUlXR9mKxNFgtUaLFeVLZLuWFyiJI1VvIMbK4kh8tv4FYZWlJDoBAAAA1mWSOBLRIw9bGKTm3kiiAOIIFEFg9ComETkpRxBHGmnH7kwC8cHK0YmJI40IDysyEkEyECvKl72LI+drL9LSlShPEHNZkYQ4AgAAgMMw74EMFlaOYCIDYVEXMiJaBre2WRslseLq1GwOBUyhThBHSXtStrhyZAWgFkOlIF6LFScu9O+KVhdHVpz0IsSJk9BeImSsKJmSF5gpjuRvtVJUJRFVHcmcd9jxz/3GCwAAAGAZK4gjeVDDcFVpqkga2ofzxQkRfUtaJEJskKvy05WkKL8XGd2tesl+oSyOhr5I2t4NxZKlWzlyNkP5TdMoQeQEXm9vKISkbi5Y724fM+mz770XiYmyOApCKk5f/GpOoBi6laN4tSZuT4SMtqdXcmp5JV8kryKODNoXl0Le0GZuHOz85yY5HC/5AwAAAABgNgvE0brs2z7AeiQrRzlKqxwnQyJkImp5C8msPolYyj44IktpNU5wQpeVIwAAAFgLxBHAZCaII0NxpeMkOLY4kjZKK2VD7CpeZizDaiLCCAAAANYEcQQwmWniSCjf7ndsDiyOMrfOTV41Urc6AgAAABwCxBEAAAAAAIABcQQAAAAAAGBAHAEAAAAAABgQR/A02MNT5Fb7XZH4Vn1BLgAAAAAcgtni6PG+Gb7H6PG+bbp3HDXt/aPfP4HUPjxVCu8fEqL3Hy0UJCuLo/wT6fp3Kw2zdB/y70fi4QMAAAAAx2WeOHq4aa+bm/YmegmsvBT2pg2bVjw192bvNCL78IQpiSP34tVuvxUZpffeVFhTHGVthffx5PqR60Opvt8EAAAAgIMzQxw9tDd2VUjEULJypBEBdd2LpTF6+3ARRCskyXtokrwgFsI7a+LkhEJuhUZWWYJde2tbo+0q0ZG0V8vTTVRtGnT7QzLiSB5JrW6bC/1NupXtq0XqZ8oDAAAAwLpMFkcPN9dtY++Xq4sju3JUVE5Dgn24DKywyAbx6TuC0pWS/MpRTohoESH5Wnj07ddWa+q+lG0Kqd8pw37k/G3M/wOBFfmoQBwBAAAAHIRp4khWgzrBUxFHM1eNBGsfLoawKjJYARms4khaRxxlRUOyWhMJjxFfijYtqbBKKYsjK4yU38PVpzHhBQAAAAD7ZJI4EjHkHraQJPXbIveghnnCSBD7cIH41Y5OJKViZUBeHGkhFNDCYpE4GvFlbXFk2zNj0YuhfF+dbcQRAAAAwLGY90AGy3DlaKkwEob24WKIbhOTwL8mOpwoyd9qpgRDsl0UMlE5J0b63w7VfRkXRzUBkxM+SR0rljICKxovxUBcAQAAAMA+2F0cRY/x7tPUnx0N7cP5EkRInyKRYIN/lZ+u3kT5qZjI7DfUhEx3i59J2zsRKEp4VHypiyOXn78lTtnzqbNT6psit0pmCXVrTgEAAADAziwQR+uyb/sAq2PFSmaFZydqK1JOdLJyBAAAALBfEEcACyiu8ixEVqNy9sLqF8IIAAAAYP8gjgAWMnb73WTktkFumQMAAAA4OogjAAAAAAAAA+IIAAAAAADAgDgCAAAAAAAwII4unO5x1vymBQAAAACgymxx5F74Gr/H6OFGv+Ooae8ffcYEUvuwD8ZeXAoAAAAAAPPE0cNNe93ctDf6JbAJVjw19+1UfRTZh72x2pPVAAAAAAAulBni6KG9satCj+39mDgqZWbo7cM+QRwBAAAAANSZLI7k1rnG3i+XE0cinPxtdTNWjYRgH/aLiCNeJAoAAAAAUGaaOJLb6To1VF85smWvb4xcmoa1DwfBPZyB3x4BAAAAAOSYJI5EDPUPXFApu0oUbr/zmyOIfdg/rBwBAAAAANSZ90AGy4SVIx7IcHLwmyMAAAAAgDoriCP1e6PialKZoX3YB4gjAAAAAIA6C8TRuuzbPjgQRwAAAAAAdRBHTwJeAgsAAAAAMAbi6MJxT6i7aq9YNgIAAAAAqII4AgAAAAAAMCCOAAAAAAAADIgjAAAAAAAAA+LowPAbIAAAAACA02S2OHq8b+z7jHIvga3llUjtPw14ehwAAAAAwKkxTxw93LTXzU17E70E1lPLqxDZf0Lw3iEAAAAAgNNihjh6aG+um/b+8bG9HwigWl6d3v7ToiiO7rb2tjuEEwAAAADAYZksjh5urtvm/tH8NRRAtbwxgv2nhoijTe6+OsQRAAAAAMBRmCaO5Ja5TvEkAqiWNwFr/4niHs7Ab48AAAAAAE6BSeJIBI88aGGQ/G+M8nn3vok6Yv8pUlw5AgAAAACAozDvgQyW2uoQK0dTGfvNEcIJAAAAAOCwII6ORFEcvWraDe9BAgAAAAA4OAvE0brs2/6pUhRH7au22bByBAAAAABwaBBHRyH/Elj3gAaEEQAAAADAMUAcHZgggLhtDgAAAADgtEAcAQAAAAAAGBBHAAAAAAAABsQRAAAAAACA4cmLI34DBAAAAAAAwmxx9HjftNfX+l1G7t1Gsq9LM150lNo/DvmnxwEAAAAAwNNhnjh6uGmvm5v2JnrR6/wXv2oi+0ek/N4hAAAAAAB4CswQRw/tzXXT3j+mYghxBAAAAAAA589kcfRwc90294/mr7w46m+rEwHlsyYQ7B8bEUe8fBUAAAAA4OkyTRzJ7XSdGqqvFLnfJN20UxeSrP0TwT2cgd8eAQAAAAA8RSaJo3hlSKXm3kilhMf7tpmxeiT2TwFWjgAAAAAAnjbzHshgqa8cye13WdFUYGj/OPCbIwAAAACAp80K4ij5zdEMYSQM7R8HxBEAAAAAwNNmgThal33bnwriCAAAAADgaYM4svASWAAAAACAp86TF0fuCXVX7RXLRgAAAAAATxpWjgAAAAAAAAyIIwAAAAAAAAPiCAAAAAAAwIA4AgAAAAAAMMwWR4/3jX2f0eAlsA83i951lNoHAAAAAAA4BvPEkQig5qa9iV4C6wXTzJe/BiL7AAAAAAAAR2KGOHpob66b9v7xsb2PxFHY7zdn0tsHAAAAAAA4HpPF0cPNddtYBZSIo8f7tmnu2wd/u50kV24awT4AAAAAAMAxmSaO5Ha6Xg0NxVEkiOatJFn7AAAAAAAAR2aSOBIx1D1sQSf5nZFfOdJaSFaZ9G+Saoh9AAAAAACAYzPvgQyW9DdHuZUkVo4AAAAAAOC8WEEcGfytdWFFaeqqkTC0DwAAAAAAcHgWiKN12bd9AAAAAACAKSCOAAAAAAAADIgjAAAAAAAAA+IIAAAAAADAgDgCAAAAAAAwII4AAAAAAAAMexdHP/nJT9pvfud1+9svHtpf/8rX7P+yLfuFXe2vwesP3m4/85nP2PT2B6/9XgAAAAAAeErMFkeP9038LqOHm+79RjpJvgigr/zex+1XXnzcfvL6B+2bH/6F/V+2Zb/kp/YPjRVGb3/QOkn0uv3g7c+0734kf3/UvusFU0huPwAAAAAAXCLzxJEIoeamvUlfAhvx0N5cN+39Y9u+/OZ329/43Yf2+z/8q0GS/ZIf2T84IoDeNf8qXn/Qvm1VUJL30btGICVlAQAAAADgYpghjoLoeWzvK+LIriz5zPfvv97+4bf+rP3kBz8eJNkv+b39wyOrRvY2Oit8wuqQEUV2JSkjjroVJoOIqMKq0kfv9vvjvP9/e+/OY8mx7Xf259FHKIOf4hxDdmHKoE2jD2TwGt1+0qAlHXoFFKaBoQzdRkMa1BVnWmNQEkRBdTjAtIB7ejBUQ0UBAiRcOydWPDJXrIyIfOxH7cfvB0R3ZUbGO/bO9d8rMiPk+bcs4wMAAAAAODkWi6Onh9d9J+6gviWORq+R8M/+t/+j/8t/+e/9P/5f/skkyHmJT/m/BP/hn/5N/7dfRLDI/7KkLh4P4kiLHImLCa1w8sc6XuFFVLo25pnUEt4oAAAAAICTYZk4kuV0gxqqiyPtNRL+13/5b/t//+lL/5//6/+YBDkv8T7/F0HEkBMmIl4yT5H7v+Q58iInCiDjNZqIJ+WJCkGLI5unOgYAAAAAgBdjkTgSMVR66cLr7tFJpcjzY98pr5Hw9J//v/5f/J//sf/83/7nJMh5iZf8X4YogkTIiCdHi6SSOPJiKgogu8QuQ9IpoZQJIMQRAAAAAMCpsu6FDJ6y50iW3WmvkSBvo/tX/9d/6v/lv/lP/f/9+bn/f5//h/9fjuX8y76tzoijJHjScVPISFzl7XX+ulEcheePEEcAAAAAAKfOfsRRwWuUEAH0//z1S/+v/s1T/8//93/n/5djOS9M8z8WcVmdFyxOwLi//+nfiJBJwiaeH4LyBgle2Kh45UnSL2T4m7/9WyWIEEcAAAAAAKfKBnG0Xw6dfwsRMUXvDwAAAAAAXB1XLY4mzw65Y8QSAAAAAMB1ct3iyCF7HQ1L41jiBgAAAABwtVy9OAIAAAAAABAQRwAAAAAAAA7EEQAAAAAAgANxtIVPP/bfv/pj/333Wzyh+a3/6eaP/bcuXkLxmvff1eOOxvv+7tWd+/dYfOq7m1f93fEK3A+fuv5G9dP7u1f9q1chnG5bGNtFHHlsJf9V+fr6rUlzpuNwLpj5AiU+9j989ab/JR5ZfnnzVf/1VyH88DGe1Hy+79/W4oq0y9uMjPVN5z5R2xi+S/gwApwlq8XR82PXv35t9jl6evDnhmB3iG1g8z8LmuIo0rpmj+KoaHC9v1vwpTxjQEfDLBmLu3/J72K4VdJKO7Mb2AGMw6JBdOpGKGO7iCOO7afuJutnf6zHIIabTpljcZyW16Vddy3+Qji0oV+vz/HrsgeK8+Xc+dx/uC2JEREdo5CpipkJS8RKrUzHqYgjh5+jW74ILnKeAFwX68SRiKDuoX/INoF96h9eP7h/E3Jc3hC2RJb/ubCrONoj8gWeGVTCruLIf7nf9Dbb3djF6KykRRxVYGwXcayxbRpL+/Tytete/CHloNTrc/y67IHmOJ4rLXGkRIcXLbf9h8/xuMqO4mg1hxNH4bO54bty8t0FAOfGCnGURM9z/5iJo3DcJTXkBdSjO7uMMf8XIAqYd3fBk+PD3c9Z3CBuorfnndwZU5xLJ/9n6RJFcTS35C6P//bVN/1PM9+w8gt0Uxz5G/r4C+1okESjTK6NcUM+cwZ0Nc9A/qtwMiZyQyn9cj6kreRZ/oU91m3GgM7roesZ2t6pvEu/2I9prUFUMfoa/eKNwU7HzxlZlTJ0m6vlMbanNLYSP/mMDsSxikcJ3b5JXRxbxsHXs5CXv84Yc1mdq22v93VzbB21unhW9/X8ZyXvryV5RlrzZYc5USV6Tqy35sv9bf/17f24J59Dlqi9vY9qpZIuiYcPkj7GpTQ+T5UmhCSArOjQgqYknNJxjPv4ZshzqONAWRw1l9yZ9o15zpRX7ZdQ3g/3Ol63N+DncXWiVph8dwHAubFYHD09JAFkxVFA4tcuqRNS/i9CFDDfvvqu/1WOSwKoIY6K6RJFcRRpCqeY50LkyzsYJMrIcl/Ok3MeOU4Givztbtrpi9/f6EfjZTBu7Je8uc4eeyOkeDMZDRh/TZZvq55Cw/gZjI8xlIuXeqYyTNt9PnnckEeWLlGqT7sNts3eeMoznSDX2HEcb9at8uRv1T7GNosb8jjK2Nr2WmzemnLfbBuHeE715Rhv66jrZOunr5W/XT6pLllfC5WxdVTrsmQOFvpa/q9/Vgxm3Gt5hrxU/SfzrNYvrTxbWEEix1qsaM+NvnYunTP830RV4EWEvnah58inqwiniThS5fk4XW+h5TmqC6fy9a32mXr647EuXowpwVkso/gdMYN8DuYHGwBOmGXiSLxBg+gpe45SvBdJZ+Y5GkXKz/27dLxAHBXTJdaKo9b1LdIXsfv/7s4F9+cgmPwXezQ+hqANG/2lXzZkrCFdMjhyY0IZNhkhf5/XtJBGPYWKkSVtVwbI5DpvrOk8K4aNvgHaPIs3x0J9ZtqwzDjKGcbR1enm5sanZ2zj4dmMrR0LSyu+1Dcbx8HRqqfEBXEhzVXzYM08m/RnZWwdtbq052A7XfWzIlTnSz1Pn6Y2X3aaExWMlyOE3JjPvD6ZAKmlawkZoSWOSvkJrTytICnlv14cDV6u1OaBRl0W9Ge5DprW580i17p5sHrgAeDUWCSOvPjRL1xIQUTQ82PfvbbPHE09SzUk/xfDChJ9bONa4qgkbErnEmuvbyE3cPdl/Km7c1/g7svZ/z0aCrmBqTGGTcOQSV/6Etc2Xlo3kpT/mNdAs55CpW6TdPo6U5fMcDNt13Etg2igUJ+ZNmwyliRPl8iP7XtXD/f3kE+zPNO+Un0HxvFgbIV9j62pz4RWfKlvTNszGuPgaNZT+sK3UfJQ+a+ZZ5P+LNU/UKtLew422iD1dBHFz4rtM1PPZp61+bLTnKggXg+zdC5DjH0fLwJCiZVmul3Ekb5Oc3xxNOA9Q1okNeoy05/7F0eB0hwGgPNi3QsZPMZz5MWRegGDPZ5hmv8RMYLk9+4bJ4Dicz5Z3PgsUEkcZekSLbFTjNu2rC7cpMVrFG7U7+/CMwCjUVC7SRvDRvLJDBuFNwriDUL/LWTHwRgq3xiUoeTT6Hq16hkQY2P4FTgxMVBsGWM9Jf0i70KpPZN+KRl97TZsMpakLsPYujLFMzgYroxtSnLaYytpVZ9OMPXNKNUl1rtYoO2jPG27npLW1VOERdbvrbY3+jpSHFtHtS5mbO1xM13ts1LIQ4/7srrEfh/S7TInaoih3zLYoyj6mERSopWuJWQC2iM1YkWORuKSOAtiprqULVvmlthBHAktMTaJq+e1SBz5OVD7fFaYfHcBwLmxuzhypNd7p7DUayRM8z8iUaSI6ElBPzf0650634VrtTgqpivEjfFh+V05TrDx8y9kCF/eZkmMvmnH+GHpx/ClHW7upSUh/ss9izM3+ixepfMkIyKFdGNRhpsQ8xgMp2o9I1l8LLNlQDuCERTCTdcpQ65t1KU+lBB+hc/bkOLGa3ykqaMLqm7bjKUwRvnY2nqXymNshyadwNhKfEkgBEx9PTN1mcTnbaiNg+6zPF0kXj9pS3OeqTxMX3tKY+to9lljDtbThTlf+6zotufzpV2X+nxx7DAnqnjjXi0Ds56P6DmZGPXVdC3xEMnSJtFj0hn0yxze3t+ra4MgGeqRLcdLQioPoS3r4sb2z7Sv0Z9LxJEf/7UDOfnuAoBzY4M42i+Hzr9Jy7sDALAPSqIBAE4cEcP2B6IFII4Azh7EEeIIAA7Mpl+gAeDF8N7GLZ9ZfgwBOHsQR4gjADgCm5daAcBxEe/PDh/WYTkmH3iAs+S6xREAAAAAAEAEcQQAAAAAAOBAHAEAAAAAADgQR7Abix8+Lb2yeL/YZzr+vuv7f/Sq7//O/f0n9/8f3DGcDzJmMnbH4s83rsxze0Tgk5vXqp/+7i7MeQln15Z9EPvjGG3fy3wx4wdgad7H5P7Lm/EA9s5qcZT2NMr2Mnp6UPscPfQrtjma5H/5/EPf3fzr/tXNX4tfaJ+6n/tXr1y8Dz+b14g+O4GR4kIYxUAtbnr+1au/BJHy/i/mvC1vAScijopvA3OH6aYihgzi6PiIsT4xIGVc3Pk5muIoGpVJCCzJb45djN1iWmmnO//38VDYuwCL/WD7ae/lVJAxGsbAhWOU2ST2xzHqsZc+rowfwICbY/LZqt3HNr9VDwCqrBNHIoK6h/5BbwL7/Nh3WhD5ax6dSb6MLP+rIIqVu2kPvb9TwsWKqCRkCumacZ/+6sSLFlEjQYil8ur1anIK4qhWB3ciGafHMhYhR8TRRJTKuOwijqJB+Wf/wdgfu8yRYlo1/xJ7n4cV4/pY8z0bI2lvbcwukL30MeII5lDfI+U5t3E/JgCoskIcPfUPr7v+8fm5f9TiSMRQ7kaK18XDGcb8r4SaWInnb7p/iCfcqUG8tITLjKjxwqnsEfJibPBgrRBHXoy8cvmmoISJiRvbGcWR2v0+7WY/xMWjidjJdsy3aSU6P4bTQZaENMWRGzYxDkueB294y7UxbsgnpqmKo0aegl56JiEZptrwSEtZhrSVPNN1Nvi6Sd2jUZPQZdh66HpK2/+s8s760NRFwiJx1OgX7+FzZej4JQb7RBzp9s6Ul87buGbbG+g8bdtrefrxM2Mk+di5Vsp3y3zxLBg/gDVU91GL904cSwDrWCyOnh5e951XPAVx9Hr0HIVld4ijGkHwTMVK7sUJDJ6k6BnyX3BRRHlPkQibVpycypbphRC+KKNnKoqhWr2miJBRX7aZkLHeIf2LVkg3fIH7dDquJo50HnJodx838XBSaHE0GNJuYCfnIt6IjWMpf1sRleIGUWIMW3udPfYGdMrTkIxdf43Jt1VPoShG3LE2gFOYXCfEeqYysrbHfHScNcJ13YRSfVptsG2W42I9Db6eKug+aZWXsaLtS6i1vdWfxXrHeg1x5njrfJG/58YPYBX2B8UE4ghgE8vEUeYdMuLIkZ5DktA9PuI5apAvnRvJvTjCuKyum6QZvTzT/LQHqPF8kxZSPkzrVMSKE/2l7P/OPTyvagLI5dDdpC/tXcVR4aYwh0ugjbrs12niynFbkPzEKHX//yka3INgcoMohqEuT4I2IrXRWDJ6rUjyx8kIjmhDXxupFsnf52XSz9VTKNXNt90Yzdl1Em/y1Ab70PZYvj+2eeo4xaQ+M21YKoYspXr6PGfK29T2hZTGopWntD3Ncz1/5ubSpvki7V4wfkVMn+3lM03cacTtDD8SAuyTReJIxND4wgUVSs8W2WeQZpD8r4eaWCmcV8vsJgIoxomwaMXlQsmgPE7LvUaOljiaCBfNVnEk2ZbEVmKjOILj4AZGjEcxNMU4FIEkf3vDQOK0oWjIDFpHUYBE5FqJ21UcyXUprwH3d6ueQrFuhXT6uqwu7n9tJGdt13E2T5MuMalPoS6avYgjh5RbFAGGTW1fSGksmnnKcazrUH/HEnEkf0vei/vaxm1oH8AUxBHAPln3QgbP1HM0EuLC8rtlTPO/ZIJY0c8VJXKRY8SSXjo3HEcx04pTAsuSLeOrXVdyyXvhkr6Eg8AZnzmSL+iaC9+IGJ+3TlfJU8qrCi6Bm8JJ4wZRjEEvityhGJfy7EcyJieGpSIzaCWfmhHpxl4MTG/U6r8FcywG7eSX/shgVMc0ul6tegrSrskvwVJnYyTbMlK9JL1uX9WYN+l8e/S1kaEcRasNexFHup6OanmmDYvbvpBa21t5Spo/uzRJJHlMPe2xHUtd5tK218YPYBXmB8WBeA/nmVyAdexBHIXj5E0qi6Y60/wvmChksjB4i6IgmpwPTJ8dGr1F1bhSedGLlC/jK3u0/EOeBbGTzoc4I3r8l3Ty8rgwCJsgnIbzRtDoPG+6Lssz9xxJyG8CvJDhhHHDIsZgEg7+13htOMZ4OeeDMk7FwBzOuzAYqS6tPi8hM0RN/JAukgzSFJJhmhnVMY9B8DTq6THxvkzJw1yny0iiQIKUow34ljGf+lCC5KWvtW1L13gabdhFHOmysr6eKS+dX9P2Fq22z+bprtPXD8TzKej2bZ0vrfED2EL1hQzpflz+xRIAKmwQR/vl0PnDmZN5mAITMVT71QwAAOCiaa2eCCsx+PEQYB2IIzhtJuIoeKCK3ix+HQMAgCvCr6wo3PvSagyEEcB6EEdw4qRnkMZQ+7KXmwT6CAAArgL58ZCbHsDeQRwBAAAAAAA4EEcAAAAAAAAOxBEAAAAAAIADcXRC6FdWn8Qy4vga0OV10Ru7wsjH/oev3vS/xCPLL2++6r/+KoQfPsaTms/3/dtaXJF2ecfm5Ob1CXJ5z8tdyJyX78DmPmtrMVsfHJnJPNt7+wAAzp+F4ijfy8gHvaHR82PfDXFdv2IP2Jj/9aANxRDsjfI4AkPvK6TD9BXZa+rSrvt82/fNqYi1JYbb5/7D7fmKo1OZ1y/H9vadxpsWa/NP5tIoZKpiZsLlzHk/t/c2Pi8njmrzbL/tAwA4f1aJo/IGr0/9gxNFQ5wXSg/u7DJC/teD3Ija96HDGZHlm+M+b9bz4ui49+B6faQvjveK0x0NxdW8jDhqj+2li6ONn6OT2aOrJY7UXPKi5bb/8DkeV7mkOS9jW9tHZi0vJI6a82yf7QMAOH92F0dPD/3r7tFdEXh+7LwHqSykpoT8r4dtRqS5oeobnd8HSF8v105fd+1/HSwunyjfrP310QtQqq+OH70Eed2Tdyod19rurzN1k2uHNkQP1rQ+oe5dLEdCSpPKzkNuANT7pEYwwD7c3w6/or+9T1ZiyYhMxzHu45tCukTZUGwuP4q/rk/zXFLefqmN7chh5nWVmD6FIV189a2evzpPfd56v/I4F3zlQr2y80NcYC7PYpvM2Kax/yJz7/a+/xIOPTJHhvGtpGvNXZ+nShNCEkBmXmfz9IzmfLVfQnk/3Ot43d5A+YelBuY7axzjOOfV/KzPv/zzInF3nc7XfnbK6YTqPItU2zf5HAIAXD4bl9WNS+e8GIpK6OnBxTmh9Oj+7xaurQv5Xw/25jc1zlcakYK/gYXj6U1wzqg0eWeUf+33bSjeLcfr/TUFwVNuu9RBCxddJ1s/fa387fJJdVH9ECjXXxNEVK39FjHAnPH0JlpW3uCqGJETQ7GWLtH6Fb1uRJavN+V5g3Fq8E0wBlYKrf5LHH9e12mNaRLNKS9tFEoZun7jcai7nvP22ppxWc9T0HNZY+aSP9bzTM8dfe1cutacqM0/k6dPd25z3tTTH4918WJMCc5iGXZuzmDHfWTuO0thypQ89edqLMN8jvyx/T4tzTNFrX2IIwC4Qja9kCF4h8LSuSSOvDBSIglxVKZ+00xsMCIdyejLDDR/3Vx59saqqdWldqONRqStR6TVdokrGaypDT7PIWhx1OqXUv0LeANgxnjwWCNLG3AmbmIo1tIl1huKwy/+ySAcaNXlMBx1Xjdpzc9Qz2JepXmWrpvUa1qGnr8DrTw9pv0JP15uXLOQG/OZ1ycTILV0c3OiNv8kXSk/4Uzm/IL+LNdB055Xlvq8nZnzUYyMYYyrfsZK8yyra2WeZaxrHwDAJbNJHIXniqL3SJbVvdZiqPV80pRi/hfMIY3Im5vSr9eS1t0sq4W2bpzbxNHd+1CmLbLZdmmT/1VU8lD5i7Ew8UIk5vqlVP+cYMTU2m9pGXzHNxQH0lKiwWBs1aVB0chq91/i+PO6QiGPETO3NDLPKmX4OaLjvAFr51kh30aegcpnT8bTLJ3LkPH08TIvlFhpppubE7U5Zueu5kzm/Ex/HkIcDSSxM8yD1pw3ZZi5XP2MNb8jhco8y9jYPgCAC2STOErL54IckhcyqDfUebHECxlqbDci040rxGfG2XBzDHGl5UdSbvkG2rpxluoSyy82Ql0fDW19Wbvtkta18b1Ll9VT6ldLZ+peMIylzNpyrHqf1DAGmDfQtDGYDNVg2FWX9WTpEjsYikLLMJ0YwvvnReZ1NDzreVoac93nVY7z4ijNk1hmPm8qZTbyDNTqKuPXGm+ZD26ufXTjmhn9rXTzc0J7pEZMugyJO4c5L3H1vBaJo5roLs5Bw0QAqXx0nP97nA/++0ldW/+MSZ6tOtTmmWKmfbXvUACAS2TbM0fqBQweXuW9mPoNLhmHeUjXBg9HOHfTdeMN1t+81I3P3+TKN7PJL+Aec7P2tOsyjU/pw/nhOnNjDTf7UrpIzdCIbRrSDYZpw9BIZGnHfvIeidU3/GBklZbmCPrB9rf398pYa6VLRmUegrG2Lm408FqG4mF4iXmd0k7KjfNozDemkfMNMWzn51hWMD79eUkv+ZhCs7Qqrp5nQOKL89CPmRpf6/mInpOJUV9Nt2BOZGnTHDXpDGcz5xv9uUQclb87a3NwOufH+PZ3lp4v2echxhWqEKh+Rwaq8yxSa9+Qb7VgAIDLY9uyuj1y6PwB9kfbUARYjTGO4RRZ4Hk5dZrzrNW+IPRawgoA4NJAHAEsBnEE+6f6qz2cBN6bcwHjU5tntfYlrxjCCACuDcQRwGIQR3AYmkum4OUoLKE8Zybz7MLaBwCwDxBHAAAAAAAADsQRAAAAAACAA3EEAAAAAADgQBzBeRBfxTv3yt1Txz/8zKtxAQAAAE6SheLI7HMk4UFv8zrGZ6cXEPKHeX7rf7r5Y//t3c/x+Mq4BHHEa5sBAAAATppV4qgsfJ76B7/xa+uaOiF/mOfKxdGJIK+33fxq25lNSAEAAADgZdmDOEogjuYJAuf77rf+9+6b/ttXTuy8+q7/Ncb2n37sv/fnQpDrhF/vxnNj+Kb/SazsmCZd27//zse/8+6JRnkx3bu7cL0PS4WX2W3+7f2w9f0kLvP0rEin42QH+3R+4jmqlhdeu/0h28FflbcDfmncFpGDOAIAAAA4aTYuqxNPUchgBHE0TxQrTpC8EzGTCZuf+3fD345M5AgVz9EScVQqL/6dxFIQT1FwzSBipby8ze4DJMe3/YeoSerp2nGBz/2HW3ONF0Zj/vmxlO1E0ZuY4OMbJ5D2t0dR2CBx5RI59hQBAAAAOGk2vZDh+bFzAumhz3UQ4mieKHC0tygRRY0Ng+jZQRwVy2uma/MleWOS8EgYL04Io3ippnO04gJTceTTmOtHkWWEmq/bQnEkIkZemhBDdRmdv+6mn19l976/4yUMAAAAACfPJnHk1FHfTbxHiKN5KgJHmBUnO4ijUnk7iKMB741RgkaOb+/7L+Gojk2nqcYdURwtYIvnyKdBIAEAAACcLJvE0dPD6/519+jkkAZxNM+8WCnGeWLamx/73+MZTyZy4jXHEkdCJjrCUrZs6VuNllgpxm1ZVncYccQzRwAAAACXybZnjjJhJG+rU3ExLBVJIf9roSFWhCSQhmCeAYoCxsbpFza860IehxNHQaR4704MU8Gi4gdPUivdurgsPnmafFBC6UDiiLfVAQAAAFwu25bV7ZFD5w9wMiCOAAAAAE4axBHAsWATWAAAAICTBnEEcETCixx4cx0AAADAKYI4AgAAAAAAcCCOAAAAAAAAHIgjAAAAAAAAB+LoivH79cjzLy6c7iMw7/u7o77E4FPf3Zxyf8CpIRsPT14xfzGYV+IbZtseX+2/vF/a5b0k8n15qd8Lw72ALz4AgKXiyOxzJEFvZPT82HdDXNc/5rvDNgn5w6HQAigEKzSOIwaKhoW82nq24Blx5N8Ap9q3c0N26Y9KWmnnq5t+2B4p1nnnqsLR0CIgBGvAFzYpvgiWiJVG2y9EHPkXqeztA3tic4W3aAIAZKwSR+WNXSXuoU9Rz4+d2SS2TcgfDsX8r52HE0faoJB6TDZP3VUc+Zu6Eh17Yf/iyG8cezNuHvupu+vv7nbYTPaF2GkD3DNHxFHbmEUc7aftJyiO9i4e9j9Xdvpssv8aAEDGHsSR4emhf/16FEtzhPzhUGwTR0aQaOPAe0H09XLtVPh4j5W64RZv3locRW9K8gDl+buyY7kShnzmxFE1z4Cv4xCf2pv3hxd4Om0lz3RdHkLdQtvf992d9IfL3/2d9UerniYu68NGXN42k6fqyxQW1cVhx3WOL/e3/dv7e2fwftV/fXvff4gemMEwjJ6F5JHJDEYT9/b+c4xwNOKslyfL8+ObLE7CkLZRl23iyBj6Pv94HOsxXi/XmjbulVCXD248Ju1u1TPFqX6b1rFs7DeX3FXHb0l5U8LnqfPfRTI/uzj/0/ytfx7C90unPr/ZZ8whae05T2W+yJyXuf4lHHqkL6QdPk6lCeG2/7CHYV/72RxAHAEAZGxcVldfOuc9R4tUVCDkD4fCGgXTm+BKcSR44zocTw2HslgaxYDK2+UzOeeR4yR6Qn65iBoF0SBKbLvMdfbY94u1/D1jf0yNjVY9hVJfhjrKOfEYdeI18n8X+sOT5yl1KFbT0YrLyMbP1DkzjObaFwh9rq+rE4xBMbRH4z8IJrEGjVHuj0dDsSVI5sVKZGLoK0NUDPDBiJ2vS2bQGuO3LBBMnlldHF4AhONkPM/ix9LNSxPm54HUxdX7Taygr0tqX6uerXSJliekLpzK15vyVB+1GOekzNnw/TN+xgyTz4Prw9SB9nvDx08/A5M+88e6P3Uf2Wtb/bUbaz6bA/IdsOiLBADgOtj0QgYvgF4XvEMrvUZCKX/YH/MG9AZx5Ag3YWVUCNFwK5aXbsDu/7s7IxCKBl8ySExdGgLEp4uGvj82F419UTN4hJD/pG1Cs55CuW5Duaofl7U9XOfP2UwdrTjf31meqQ9N27U4mm2fwudf68MRL468oTsajIM48oZ2FBtDGI3K4Vf2ZCgrWnFT75A29JXRqsXRTF3mxdgGceRotmOvtAz0Vj1b6RItY78cV2/3fJ+VGD/v4/wePmNC8/PQ+n6x8ZEF8yWJXd/WrJ2t/mpg2lAUfsLCz2Zom8ur9P0BAHDFbBJH4QUMufeoKphmKOYPe+OQ4kieo5neWCs3XLlhu3Pee/LJXeP/jsaLxFnPz4A1TsoCJBDKlrjRWBpZI47u3o95DTTrKcyII03sj/k8I3JdzZCZxJn2mfGT+oxGlrpuYV1835YMxgKjYShGrxFHmeemQRI7LSE0xI3leIxxnXuAKkKpwCHF0dtbazw3KArYwvya0BI5rXq20iVaxv6MECiOX60udcbP+zj3h++X5udB4lrfLzY+Mjd3pd4+Xtqv5plnpk92YM1nM1H6rgQAuGY2iaOnh9fZSxe2CiOhlD/sj+3iKBkTIT674Q5GdIgr/YLpDXBtaPs04jUK597fhXX+oVwpr1ZPY5x4IVC5+XujJ9Zb/y1kx7FNxQJVf0RDdLysVc+AtNv2R1McLchzIDPqDDrOtD2IIRVXFUDL2rdIzEWa4sifW2gktoxkHef/Ho3RIIZUXNWgbddluzhKdQnx2RKxwcAOcYuW1W3GiA4vStJxq56tdImWsd+Ki2Rja8orjbv/DsjnaVMctT4P/nr1mZp8v4z55Ug9W+2Sdrs+/Viec9qztC/WfjYH/HfzhnQAABfKtmeO9Nvostd4j2HpY0chfzgURcPck0RPHtK14RfIcC486BwNBm88KGPBGx5lgZT9ImmuS/kPdYvxqczxZh0M9uG8LjsaSTpkbc3irYFj258MIiWOhJjH0L5qPSNZvJRp8ktIvqZvpnlOx2jMpxUn2Y/ns/EzcSEoY7DRvsHYXEFbHDm88SvGeAyDIZmM9DGMhmgrLvcOhZdBjMa1jgvBGuIqThm1dXE0rYuEdK1vfzyX1cWLjFHEpbIPJ5CCMT/WUZXtqNazma7V9nVxY9/Oi6PJd4dj/K4piCM5W/08NL5fIpK2OO8b88Xjx7gyb7K0+VhsYctnc0C+ixBHAAAD25bV7ZFD5w8ACi/2lBhyVI2/S6Pg9TjEL/iniREdEDGeoxL+B4OZa84ZxBEAQAbiCOCamIij8Mu5/hX+YpmIo+AVKf6yf3EgjsosEEeO0TN1gVy6+AMAWAniCOCqmC7HuwqvkWe6nOs6vEYC4qjMMnEkiIf1cvVRWKp4sQIQAGAFiCMAAAAAAAAH4ggAAAAAAMCBOAIAAAAAAHAgjuCyia+mXr6UvvLqbbgqVj9fwjybIn3CW9DOhsmcZ/wA4EpZKI7MPkcS1EZGflPYIa7rH4dNkOYJ+QOsZ3iI2ITsBQP7NFr9m97UPiir84ZzwL6ZjHm2HTG4j/eQf3jhxvHePtgYwzhmw3w58cGrvY3vuOMHAHAarBJHSzZ2fX7s8k1iZwj5A+zC8jdOzVM3eMSAuLkZN1v81N31d3c7bL4Ip4c3amtziXm2Humz6caqh+FExJGfQ8dq8x6YnfNn1BYAgD1wGHG05MJIyB9gF8pGq//VM/5yWzJCdfy4909u8CSvgRx7o7V733d3stTEXef+Duei5WB+Lc7KNHGZoduIy+to8vQehjx+UV1amF3/s1ddm7jRCDWvifbXjcey0eoP9zpt/kppiU95ZnHV8g6H9HddhDDPUlgzz3zbShE1KuP+5f62//r2vv8SDj1pE18fp9KEcNt/WPKm9g3tS+OVhygifJqGoKj2mZlf/rrxWMbortNp87lYnmeOmTGSdNk8MVTHL/bbmqEFADgHNi6rs0vnnvqHFLfCaySE/AF2oWy0Bsq/7npDonhXH6/316g192IkyHn5Jb+TX/P938lotXWQ49FA8oZNqThHKy4jM5by/L2hMtS1XZcWXsiURIg3WJWxmR3PiyNt1OoyfNybUoF2Xx45XmDsGkOwZhCWmesn268a5tnk2oQx8tu0xt3OAXvtFs/RLu0rj7ngBYXMPTWuHt8XKo/s2JRn+s3OEz2ePq44uHNtsMcFauOHOAKAC2XTCxm8d+j1g5NEBZ4e6nEFSvkDrMMaAJqSAdMyCML13rAxd/3BGFHGwmC0+nMx3RDGMgZjqWBJtOKSATKG1E7TBm3UzdSlxfALvBEs/rw5N4ocY6QWxFHZYLXGrsJ4D1Z5AjbTmkcC82zbPGv1g2Fm3GUuJW/mdE7uWRzNtq8ujhJDn8c8/XFtvH1d1PxS4y9oMZTT6N/ZNpgyi6wYPwCAC2CTOHLqqO+qL14QL9LylzIU8wdYResGv81ovXsv1+TpisaJGFNyUhtVLZIRWrJyJnGmngVjqWjwLK1Li49vgmEajc+jiyMp3yyhWkTRGKwZlZbWPBKYZ9vmWasfDHPjLnPLx4sQsnNn2zNH29s3L44C4xgfXRzNtsGUWWTF+AEAXACbxJF/O11t+Zx4jnghAxyV1g2+ZMCEc0XDUV8fDe10WdNo9XWoGS8GY/Rk6Dj/92iUBCNOxVWNnhV1aaFFjv9bGaPZsRY5wUDVzw7VxVG81oiugOS53tDdjTkjkHmWs7AurXpMmBv3KIo+JpGUoz1LE6QPbX13bJ/0Vet5HY/uX9PX+bGef3HuqH4rzgtPa57NtUGXWaE2frE/Z9sPAHBmbHvmKBM/6nkjnjmCF0Fu8PbmnYyLPIxGgo1P6ZXRKgwGwPv8fGIwWh3eiFB5DkbXtC71euRlBEM1hJuuy9qp40JQfVCtS4skbMaQGanJm+RD/qu9fiD+7f195kmqiyPBlmk9UCpuiydpJW1jl3kWwrp5VvKWNJkb9zgPi3MqS5vP0bTEzVZlp/Zl8VFkxLHUISszi8+FybAMz4XSONS7sTbPHDNtaM/5WKdSwSnfNWMLAHAGbFtWt0cOnT/AReINLGUAOeaMHFiAN/jyfr1qdp5nCzwTLwmfo5k53xq/IMj4zgGASwNxBHCOTIw6MWJavyzDUlZ7Oi6ZHeeZCI2T7ks+R57anK+NX/JwIYwA4BJBHAGcJdNlUhgq+0OMwmszkMvsMM9EeJx8J/I5Skzm/FmMHwDA/kEcAQAAAAAAOBBHAAAAAAAADsQRAAAAAACAA3EEAJdHfM3wIR6ZmDybIWUtelU6AAAAnDoLxZHZ50jCw1PIQfH82Pm4QlSVkD/Asfmt/+nmj/23dz/HY9iN8GD7ajGS9kpJIVcd2/IUDiSO1r7VCwAAAM6LVeKoKXqeHvrX3UP/MHedIeQPcGwQR/tlg5DxAqa1B84O4ugQ+Ppu2Q8GAAAAzoU9iaOn/uF11z8+LxBRhpA/wBaCwPm++63/vfum//aVEzuvvut/jbH9px/77/25EOQ64de78dwYvul/EsM2pknX9u+/8/HvvEXcKC+me3cXrvdhqfDKdvX/qn97r7b1N3E/fIzn+4/9D1+96X+JR+G68fiXN+7ae51WXeuQ+JRnFlctr07a8yQPSigY79AgdhriaC5Pv7St0/mOosV7ceL5XFiJgLnrO5V39tpmv+fNmNbGS76t1zzXvEop35MReQAAAFBl47I6EUIhA+Hp4XXf+ROIIzgmUaw4QfJOxEwmbH7u3w1/OzKRI1Q8R0vEUam8+HcSS0E8RcE1gxcyJRHihcpt/yFppex4Xhx9fXvff1HHqQwf96ZUoMnTH6vym1S8PFYAmeNBBBWf2al7jrwAUmm8WMquK6UNG3wOAibbANR4fiQuq9MCz1DNs4Q4AgAAOBs2vZAhPFv00HsNJMvpBjWEOIJjEgWO9hYloqixYRA9O4ijYnnNdG2+3N8GT40RLP68OTeKnAWeo5L+aQke4zUKYTdxVPKmTIVMvG4iktriqC02auJIiZdMzCwRRwXhk7FAQAEAAMBJs0kcOXXUd2oZ3ehRUqF7jBe3KeYPsIiKwBFmxckO4qhU3g7iaODjm0wkHV0cSfnK27SO3cRRQMSFjjumOAp5eoHmgxU5iCMAAIBrYJM4kmV0In7UyroIniM4JvNipRjniWlvfux/j2c8mciJ1xxLHAla5Pi/lZDJjrXI+dx/uBUvzxJxFK+tLqurpYs0loiJuJg8kzOzrC6jEFfM07F3cSR/F5f2JRYIH52fJvZZ63klAAAAOA22PXNUFEYC4giOSUOsCEkgDcE8AxQFjI3TL2x414U8DieOkrAZQyZOkjfJh9zjMyzHc+Ht/X3mSaqLI8GWaT1QKs54ktLyt6Iw8eKg4HmJ4qB9PoRJvpU86+IoiKJyvms8RxJyoVMTaomSl8yT2lCuMAAAAM6sRBwAABwESURBVJwQ25bV7ZFD5w8AMIsXajNiqOYZ8rQ8S0Gw4TkCAAA4fRBHAAATcSRiZ+qdqnmHvNepcD552hBGAAAA5wHiCACgsByvJmgmS/pEWLFkDgAA4CJAHAEAAAAAADgQRwAAAAAAAA7EEQAAAAAAgANxdOGkB8Krrxhu7u3yMkye6YDN+BcF1MYfAAAAADIWiiOzz5GEYTOjVtw8IX84LPXXDNfesvVSVPeKgfU0Xz0NAAAAAJZV4qisedZv/KoJ+cOhqXtjFuz8fyww5ieIWNz8Gmh5i9oJegYBAAAAThXE0ZXQWqq2xlsTjPXO7wEjhncXl22l5MMyrhjGbEWE3fVdWubngjX6Ja099+X+tn97f9//8NVX/de39/2HN+5/9/cPH+MFn+/7txIXw3BeMHFv7z/HCEcj7pdYRgpZnh/fZHEShrStuuyA79MtIgdxBAAAALCKjcvquv7xOWTQjpsn5A+HpiQ8BlZ4bMIzTHJt2CRT8qx6N7J8w/WDCPNx2mNV9mCJOPr6qzf9L/1HL5BEiATBJIJEzklcQo5v+w9Rq4jIqQmUVlyGFzypjDx/L5ScYPsSDpp12ZWx31fA/jsAAAAAq9j0Qobnx86JoIe+5CxqxZUo5Q+HIRjYpSV0y5fW+Ty8wT2mycSRGOTRMxSCFkfauA+bblrPkjXlvTh6IypmFBuDODKemhBGQRKElTvn0+e04qbeoQXiaKYuTUyfVUWsv27JOElfurwQRgAAAACr2CSOnALqu5qHqBVXoJg/7J2m58gb0/sQRyafiedoz+Io89w0SGKnJYSGOCOAMs+RXXJXEUoHIAjbaf+0GMcKAAAAAJawSRw9PbzuX3ePfUn/tOJKlPKH/SPiqGon15bVRY+GTtcUR2apnH9WpiaOfN66TCOsIk1x5M9tWR5n0HH+71H0BDGk4qoCaEVdVsIzRwAAAADHYdszR5n4acXNE/KHQ9MSRzUPQ/BWrBBHctYLorQ8TF7coMXRGFdaHiZprXerLY4cXswob84gXj73H27VeRdG4dKKy71D4WUQNc+RBCW4qnXZju7b1SCOAAAAAFaxbVndHjl0/hCoi6Oyx2b/GM9RiZoH61TwS/By75OIpUGonRqIIwAAAIBVII6ugroA8p6emktprywQR46aF+skmIijwy2l2wunLjYBAAAATgzE0YWTlsYVBYd4Fo4mRJaJI6G1BPBlmS7HO1mvUaQ5/gAAAACQgTgCAAAAAABwII4AAAAAAAAciCMAAAAAAAAH4gighH+ZwZZnn8LmtumV5Wtfw22ft/r7ru//0au+/zv395/c/39wx9eCtFfafSz+fOPKPLdHs9z0+oPqp7+7C/NFwku35djjd3GYsV2CzOE0/ku+K1rz5WBzKbbr7D5r0GTX789hvrn/E+n+p88ltpZ3zffUJmLz8HbbgYXiyOxlJOHhKeSQeHrYtNdRyB8uh39w4uBf969u/lr8kH3qfnaiwcX78LN5g95zfzfEhTAKhVrc9PyrV38JL354/xdz3pbXYKs42uH12cU39bnD9EUuN4Nz+yKXG97kBiZtKtzsLE3j2nWwGFj+xilhQX5z7HJzL6aVdrrzfx8PhV0NiAmxH2w/7b2cDRxKHG1t2yn0ySoqY1ulMN+W0uqbQ83ZsxoLmEfm39bv4Zm5Lt8lf3bXZGwtT9LFsmRuI45Gjvf24tNnlTiyeijx/Nit3vw1EfKHyyGKlbvpbHh/p4SLFVFJyBTSNeM+/dWJGC2iRoIQS+XV67VPNr+KvPbabXciGTxnZ9w5RBxNbj7Spl3EUbyRTm6WO7JL/xbTqrFLHMrQtP10CnMFcbQjlbGt4X8R32ictvrm7PoNXgyZK5u+l938agn74o9sjk3lqbKY25Zj7Xt5+uxBHD31D6+7/nGjzRnyh4uhJlbi+ZvuH+IJd2oQLy3hMiNqvHAqe4S8GBs8WMvFkf/1JC6Ly9sRXkfepddjq2Vzwyuzs6DETvREpTjbP1Lm2iV454AYbE1x5JosBmDyAOkblTeu5doYN+QT01Rvio08Bb1cSEIyPvWNMi29GNJW8hyWfZjg6yZ1Nzd8XYath66n/6VU5Z31oamLhEXiqNEv3vhwZej4JUb5XBuK4yc06pKJqnidHDf7usFsukZdmph0a9q3y9haau2zfZjOl9rXMhLXzKXite44fQ70fLHXNftF8ojni/EFpF/kGslXyv9zLHsot9UvJq41Rjqu9XlotmHBGJ0Dqc8tzbEVpG/iHCnhv58KfbK5vD3y5f62f3t/7/c8/Pr2vv/wJmzzMex/+Pm+f6u2/8j2RTRx2dYgjTjZfD6dl5Dl6fdjzOOHtK26RKo/8MqqmILtcqlsXFanxNDzozMWH/sn8R7F+G6FUgr5w6UQBM9UrORenMDgSYqeIf+hiyLKe4pE2LTi5FS2TC+E8OGNnqkohmr1qhOeHcq/CEQcOXGTTvovi9zbU/xi8cJI/Rpjj32+l/lrjb55yQ3LG2yueybnIv6mFvtB/rYiKsUNBqG9oZrr7LE3XlKehmTY+WtMvq16ClWjUOpoQtHwifVMZWRtj/nouCEPky5Rqk+rDbbNNWOkSasNMc6Xp/8WzHFWzxin613s6wUU083UpUWrj1p9nfWLS792bGv4z0TKN2HbY48jrT6dxDXylD6xn+1SvWrzs9UvQ3kS59LXDOlE+o6QPCS91Kv4fRTRZbTGdvFnI/bLkja06nJu2LYIcq42th45Z+aIRs8ry6by9oiIo7A5fNgUXoRIEEwiSOSc3Tj+tv8QtYqInNom8q24DC94Uhl5/l4oOcH2JRw06zJQXcWCOJoEi19G9/qh944kEUeZIFrnSSrlD+dLvnRuJPfiCOOyum6SZvTyTPPTHqDG801aSPkwrVObmjiy3qB5cVQ6l794weS7FJdAvvRTyG4eh4jbguQnNyn3/5/c/2JUDAZKNB50eRKSUWBveiWDKhlAydAoGWLamJE8a0aH5O/zMunn6ikUjUt3bI247DqJN3mm9mZtj+X7Y5unjlNM6jPThsUGn2VpGxypTkvGqNj2SLGvF1BKN1eXFsPcM+nn+nrXsa1RasvS9rX61Ma18pQ4/9l2f/8hphvOKUrltcZd4obPm0tnP1cldD1T+qEuMf/aGPm0cs60U2jFzX0eim2YqUsTU17Wz4eIW4DMBZtmbmyLfWlI/W77ZW15+8aLozeiYkaxMYgj46kJYRQkQVi5cz59Titu6h1aII5m6jJyuT/WrmGTOAqCKAqg6DnSWujpof58kqWYP5wpNbFSOK+W2U0EUIwT8dCKy4WSQXmc1nuNhDMQR+eAa5Tc+OTGJjc1EUiDgSJxDSMnu8E5WgacXJsMMXuj1cagXFczOlL+Ka8B9/ecMVasWyGdvi6ri/vfGgzFm7vN06RLTOpTqIumZDAvYXEbHKlOS8ao2PZIsa8XUEo3V5dFuGu9IZnykeNGX+86tjVKbVnavlaf2rhmntIG97dc82f39x/c30vLa4275KEN9tpnWKPrmeapnFvy3TMg10mZMZ+MQlwqx7O0DUvrci5Iu0175j7TpTmlkb6rirQN5e2TpjjKPDcNkthpCaEhzgigzHPUmyV3FaHUBHEkbBJHIn7GFzCY55G0cFpAKX84V4JY0c8VJXKRY8SSXjo3HEcx04pTAsuSLeOrXdd0E+9PHIXrrnNZnXSO3Pi9KHKHcpOTteDJMJKbmDWSEtkNTvKp3eBcv8nNzxsb+m/BHItRVrsJDwZbTKPr1aqnULx5S53NTduWkeqVDKfUvurN3aTz7dHXRmrGZ60NUn6rfUXWtEH6Ih2bdPZY0rXaV+zrBRTTzdRlMTGdbnutP3cd2xpFA9PkWWtfab4kJnGtPOVvud7VQ+a9POfzJ3e8pLxmv7jr9edoCU1xFM8tmvO6LhZbz1iOkH0eJK7RhsV1ORPs90l1bBPu2pZAtPlZVpfXYuXysaY48ue2LI8z6Dj/9yh6ghhScVUBtLAuBbvGE/vlEp+NLrHtmSP7Zrq4tC7FL/UaCSF/uAiikMnC4C2KgmhyPjB9dmj0FlXjSuVFL1K+jK/s0fJCZvIlmO9TlEK4ZqM4EuIXSwhTIXSpL2SQDpcbUzJIvMHijocbWYyXcz6oG6Tc4IbzLgwGlkurz0vIbpwmvmSY6fh008wMtpjHYEw36ukx8b5MycNcp8tIxpMEKUff0Fs399SHEiQvfa1tW7rG02jDnPFRY64NQ1kuZOMgfVOJ0+2zeXpMO+z4Vqmla9Slhe3rrP9MWXZebxnbOXxaNx4TGu1rzZfmXGrkKXW2n/fUhlaerX7R8yyFuX7R/SF5Sx3l3JLPdGtsW3Gtz0OzDY26nCUyP1QbWmPrMddbZr+f1pbXwt/X3X16oTpqiyOHFzPKmzOIl8/9h1t13oVRuLTi+sw7FF4GUfMcSVCCq1qXkaoNs7Jfzp1ty+r2yKHzBzgLar/WAABcM2L4GuNWjOVB5JwDl9CGlYiIbAoajfTPLuLIsaq8JvIj6HLP0Unhl+Dl3icRS4NQm6W1iiX8cIznSIVDcuj8Ac6F6i82AADXihjORliIZ2A/hvCRuIQ2HJIZ74701VKP7i6k1SRnKwAm4mjFsj6H38akYIOcfb9sAHEEcELkL2oAAAC7lO0cPS6X0IZDMiwpvYsnHKVz0GK6HG+x10iW/mN8DCCOAAAAAAAAHIgjAAAAAAAAB+IIAAAAAADAgTgCOAXiKzaXPjgJL8dFPhcmb0u86eS5aAAAgKtmoTgy+xxJSJsZPT3k52NYutdRyB/gt/6nmz/23979HI+vjKOKo9IGt7tSydPv72Q3wD1fcXHJbxSsvakIAADgmlgljpYJnqf+4XXXP2a7xNYJ+QNcuTg6KscTRyImbm5ciOroU3fX392Nx2fFxe9F1drjAgAA4DrYuzh6fuxGr9ICQv5wGQSB8333W/97903/7Ssndl591/8aY/tPP/bf+3MhyHXCr3fjuTF80/8kRlpMk67t33/n4995C7VRXkz37i5c78NS4WV2kc5ehWniMk/PinQ6Tu9oPfEcVcuT/Qve9B9kd+4Yt+SVnWm/gjxMPTspbhA73gOkxU/YKE9ETitPL4669313J0u2nIByf4dzscBaeYKJywRVI857QFRclmdshw6L6uKQfLM6OMJO6LJDuRuD2/v+QxzLYZwOPF8kZHn6fS7y+CFtqy4RP5a24cJk/AEAAC6Tjcvqap6hdV4jIeQPl0EUK06QvBMxkwmbn/t3w9+OTOQIFc/REnFUKi/+ncRSEE9RcM0gxmfJcEyCJN9g7bb/EG3Perp2XCDsT5Bd443ZMf/8OGzu9vWbmKCwM3admudIBI/2jBhPgjeQQ/xUKNQ9R3JOPEadeI3830kctctrPdvTisvwgieVUWjP8JzNTNsnxwERR6Hfw3iIEAmCSQbpkPMl4udEKiPP388JJ9i+hINmXQay/lIgjgAA4ErY9EIG7x16/eCkUM5ar5FQyh/OlShwtLcoEUWNDYPo2UEcFctrpmsTDF4lPBLml/cQRgOzms7RigtMxZFPY64fjWZj7GZG8hwVcWQ8JyHkgsB7FuT8NHExz0HEKKN7EEcz5dXLasclQ34MC8TRbNuteAqMYzSKDTnnxdGh5svEO7RAHM3UZaQsAgEAAK6FTeLIqaC+sx6i0rkFFPOHM6UicIRZcbKDOCqVt4M4GkhGaDJQs1/iG9h0mmrcCYijzJNSxgubm9LSqxlxpJFy5OSC8jxJ7EwyckzijHFvPCFSn6L4ma3LBnF0kPliBJAZd5kf/nofKkKpCeIIAACum03i6Onhdf+6e+y1DvLnVnqNhFL+cK7Mi5VinCemvfmx/z2e8WQiJ15zLHEkZManGKZbljsZinFbltWpPEp5RuFQ1hTT52eCYVy+3jMIiCCEbPpSnk1xNFeexoicDB3n/x6N+yCGVFxVAM3VpSwamuLoEPPFzIkghlRcVQAtrEutn+Ncms4ZAACAy2LbM0dGGG31Ggkhf7gMGmJFSAJpCOYZoChgbJx+YcO7LuRxOHEURMr463tJsKj4wRhtpVsXl8Unz4EPSigtEEdp6VnR4PdGcMGDkp13IYkJbxxPr8uM5UmeDQ9VOlkrLwqw4bwLYz6tOMl+PH/TdU7UjMa+jgtBCYFqXQIl8dcWR469z5fcOxReBjGOe+45kmDniIorCCk/Z0oTJvVNKQ4AAOCC2Lasbo8cOn8AAI8XeLlXpCR4qniBUPCqnApeSOcCWcTSINRmaS2pK3sLAQAALg3EEQBcBxNxtGJZX6TqWTkFJuJoxbI+h/eqFdqWPJAIIwAAuAYQRwBwJUyX420x+EVEnKY+mi7HW+w10ksdAQAArhjEEQAAAAAAgANxBAAAAAAA4EAcAQAAAAAAOBBHF056mLr6et7qvi8AAAAAANfFQnFk9jmSoDd8fXqox80Q8ofDUn9Fb+0NVQAAAAAA18YqcVTWPE/9w+sH929CjpdvCBvyh0NTf8NWa28TAAAAAIDrYQ/iKMR1SQ2JF6l7dGeXEfKHQ9N6/XB17xa/L8ypvrYYAAAAAGC/bFxWN/UMPT2sX1InhPzh0Ig4qu7pUtv5H3EEAAAAAFfEphcyPD92TgilpXRROEVR5EUSnqOTJLycobSEjqV1AAAAAACbxJFTR32XvEf+b/vMUW0J3pRi/rB3mp4jxBEAAAAAwDZxlHmHtFAqHc9Qyh/2T+uZo7lldXVRBQAAAABwOWx75sgsmwvL7Mb4NY8dhfzh0Gx6IYMXTbzqGwAAAACug23L6vbIofOHQF0ctZbUfeq7GzxHAAAAAHAdII6ugvWbwIaXNyCMAAAAAOB6QBxdOEnkVPcxYskcAAAAAIAHcQQAAAAAAOBAHAEAAAAAADgQRwAAAAAAAA7EEUCJz/f926++6n/4GI/Pmdo+Vo7m/lcXyC9vvuq/duMqYW9jK/170/W8ugQAAOD8WSiOzD5HEvRmRk8PKu6hX7HNUcwfTo/f+p9u/th/e/dzPL4yrkAcVfe3OnO0AArhTf9LjAt87j/c7ndsa299BAAAgPNilTgqbu76/Nh3WhCJUDKbxLYI+cPpceXi6JIoiaOGN+ncEXHUFj77F0et1+UDAADA+bC7OBIxlEU89Q+vu/5xoToK+cNhCALn++63/vfum/7bV07svPqu/zXG9p9+7L/350KQ64Rf78ZzY/im/0kMv5gmXdu//87Hv/NWdqO8mO7dXbjeh6XCK3pxkifg7f3nGOEwcZnBuyKdjmsuvaqW97H/4as3/Yf72yEuK6+FFyqvwivX7d5SJm50Togxftd36VXtM+leGSEkng67h9UXV/e39/euHa7+t/f9h9gPQxsP3NcSsjw/vsniJAxpG3XZJo7C+A0eJp9/PI71GK+Xa6fjW/XEySvz3RjgWAIAADh9Ni6rU+LHL6kbPUfPj10eP0PIHw5DFCtOkLwTMZMJm5/7d8PfjkzkCBXP0RJxVCov/p3EUhBPUXDNUDd2jUHrj2/7D9FmbRnJmwxobzCP+efHwWD++k1M4A1qu5yrTP25nyCAxijtnZC/nehJCb0Bnq4NcUOeEy+RzmdExFGo82j8B8EkDTxkX0e0IDH5+/50gu1LOJitSxJNPgzpEivFkaDGU/K3wshT88YhjgAAAM6GTS9kCALICqIgnLrHRzxHJ0MUONpblIiixoZB9OwgjorlNdO1CUa7Eh4Jb8AaQ1gZydV0jlZcYGpA+zTm+tHwnzGuG1Q36p14fyRocaQMcW2YizGuXxBQFEdTI35s3yg25JwXAofq64l3KPVZLngycTRTl3kxtkEcOZrt8JRFJwAAAJwPm8RReM6oIoDsM0gzFPOHPVEROMKsONlBHJXK20EcDSRDOhmnmTehgU2nqcYdTxwNRA9D5g2qvgXtyOLoIH1tBJDps9wDVBFKBQ4pjt7eTufACOIIAADg3Nkkjp4eXldeuhCW33VL3UaOUv6wL+bFSjHOE9Pe/Nj/Hs94MpETrzmWOBIyo1UM2jlDONISK8W4ggHtr7PGfDpeII6WLK/KhIwY2wuX3Ol0/u9kpH/quxvxOFlxVFlWVxNHh+hr059BDKm4qgBq12W7OEp1CfHZsshBkIW4Lcvq7DNeAAAAcHpse+YoE0Z5XPGlDQ1C/nAYGmJFSAJpCOYZoChgbJx+YcO7LuRxOHGUDNUxTAWLih8M6la6dXFZfPJ++KCE0gJxlJbP5WIniZcxZPHe4Fbxg0eoIY784fiihrv35lpH7YUMdXHk2Htf596h8DKIsc9yz5EE278qTgmpujhqj61vfzyX1cWPuRrrWLYVSNUXMqQxbKpiAAAAOAW2LavbI4fOHwAK1Lwcp4IXJLm4FNFT9NicBGVvXCAIYDxHAAAApw/iCOBKqXo6ToGJOFqxrO8FqG0Cmzx4CCMAAIDzAHEEcMXUXyP+0kyXwJ2s10ieKWLJHAAAwEWAOAIAAAAAAHAgjgAAAAAAAByIIwAAAAAAAAfi6MgMr1jmGQUAAAAAgJNinTh6eijvdfT82Hfp/OuuX7EHbJ7/1dB67S8AAAAAALwEi8XR82NnNn9NPPUPevNXL5Qe3NllpPyvjdN9SxgAAAAAwHWyUByJAKp4hMSbpESTF1FaLM0Q8r8+quJIXgv8CuEEAAAAAHBslokj8QY5AfQUhY+ELiolL4aiEnp6CMvtHt3/KX4On/8VIuKouDEk4ggAAAAA4EVYLo6UINKepCSOvDBSIglxNE94OQPPHgEAAAAAnAKrPEda7ogA8loovqRhFEPP/WPHsro5qp4jAAAAAAB4ERY+c2QEj/ckpWeQzPNIXizxQoY55p45QjgBAAAAAByXheLIEZfWpWeOMs9QFservJdQFUefuv6GfZAAAAAAAI7OcnF0IA6d/6lSFUf9p767wXMEAAAAAHBsEEcvQnkT2PCCBoQRAAAAAMBLgDg6MkkAsWwOAAAAAOC0QBwBAAAAAAA4EEcAAAAAAAAOxBEAAAAAAIDj6sURzwABAAAAAICwThz5DV7jfkbdYz9uZxQ2iZ3sf7SALP8Xo/z2OAAAAAAAuB4Wi6Pnx84IosRT/+A3fg0C6TzFUWvfIQAAAAAAuAYWiqMkgEKiMogjAAAAAAA4X5aJo+fHvuse+yfxHsVldd1EKZ2/OGLzVQAAAACA62W5OMoEUcmTdN7iSAgvZ+DZIwAAAACAa2SV50hroacHK4TwHAEAAAAAwPmy8JkjI3y8J+myPEc8cwQAAAAAcN0sFEeOuLQuPXM0iiBZYjeen8a3GfJ/YRBHAAAAAADXzXJxdCAOnf9SEEcAAAAAANcN4sjDJrAAAAAAANfO1Yuj8Ia6V/0r3EYAAAAAAFcNniMAAAAAAAAH4ggAAAAAAMCBOAIAAAAAAHAgjgAAAAAAABzrxNHTw7iXUffYD3vAZnsg2c1h22T5AwAAAAAAvBCLxdHzY5cLooHn/rF76NOer/XryqT8AQAAAAAAXpKF4uipf1jqEfLepVEszRHyBwAAAAAAeFmWiSNZNtc99k/iFYrL57qKUvKeo4el0ghxBAAAAAAAp0Df//8tmFzCH+hyqQAAAABJRU5ErkJggg==;" parent="1" vertex="1">
          <mxGeometry x="40" y="840" width="839" height="945" as="geometry" />
        </mxCell>
        <mxCell id="GnnF6tSuIuOmnst3CwB5-3" value="" style="shape=partialRectangle;whiteSpace=wrap;html=1;bottom=1;right=1;left=1;top=0;fillColor=none;routingCenterX=-0.5;rounded=1;sketch=1;hachureGap=4;jiggle=2;disableMultiStroke=1;disableMultiStrokeFill=1;curveFitting=1;strokeColor=#FF0000;align=center;verticalAlign=middle;fontFamily=Architects Daughter;fontSource=https%3A%2F%2Ffonts.googleapis.com%2Fcss%3Ffamily%3DArchitects%2BDaughter;fontSize=12;fontColor=default;" parent="1" vertex="1">
          <mxGeometry x="490" y="1395" width="380" height="30" as="geometry" />
        </mxCell>
        <mxCell id="YySVuZ7-5FPYKn2bNPjy-1" value="Static method to create a map with an entry" style="text;whiteSpace=wrap;html=1;fontFamily=Architects Daughter;fontSource=https://fonts.googleapis.com/css?family=Architects+Daughter;fontColor=#FF0000;" parent="1" vertex="1">
          <mxGeometry x="540" y="1300" width="229" height="40" as="geometry" />
        </mxCell>
        <mxCell id="ncUTmPpRLIX1P5Ny4hpg-1" value="" style="endArrow=none;html=1;rounded=0;sketch=1;hachureGap=4;jiggle=1;curveFitting=1;fontFamily=Architects Daughter;fontSource=https://fonts.googleapis.com/css?family=Architects+Daughter;exitX=1;exitY=0.25;exitDx=0;exitDy=0;entryX=1;entryY=0.25;entryDx=0;entryDy=0;strokeColor=#FF0000;disableMultiStroke=1;" parent="1" source="GnnF6tSuIuOmnst3CwB5-3" target="YySVuZ7-5FPYKn2bNPjy-1" edge="1">
          <mxGeometry width="50" height="50" relative="1" as="geometry">
            <mxPoint x="970" y="1470" as="sourcePoint" />
            <mxPoint x="1059" y="1417" as="targetPoint" />
          </mxGeometry>
        </mxCell>
        <mxCell id="ncUTmPpRLIX1P5Ny4hpg-2" value="" style="shape=partialRectangle;whiteSpace=wrap;html=1;bottom=1;right=1;left=1;top=0;fillColor=none;routingCenterX=-0.5;rounded=1;sketch=1;hachureGap=4;jiggle=2;disableMultiStroke=1;disableMultiStrokeFill=1;curveFitting=1;strokeColor=#FF0000;align=center;verticalAlign=middle;fontFamily=Architects Daughter;fontSource=https%3A%2F%2Ffonts.googleapis.com%2Fcss%3Ffamily%3DArchitects%2BDaughter;fontSize=12;fontColor=default;" parent="1" vertex="1">
          <mxGeometry x="180" y="1460" width="170" height="16" as="geometry" />
        </mxCell>
        <mxCell id="ncUTmPpRLIX1P5Ny4hpg-3" value="" style="shape=partialRectangle;whiteSpace=wrap;html=1;bottom=1;right=1;left=1;top=0;fillColor=none;routingCenterX=-0.5;rounded=1;sketch=1;hachureGap=4;jiggle=2;disableMultiStroke=1;disableMultiStrokeFill=1;curveFitting=1;strokeColor=#FF0000;align=center;verticalAlign=middle;fontFamily=Architects Daughter;fontSource=https%3A%2F%2Ffonts.googleapis.com%2Fcss%3Ffamily%3DArchitects%2BDaughter;fontSize=12;fontColor=default;" parent="1" vertex="1">
          <mxGeometry x="404" y="1027" width="170" height="16" as="geometry" />
        </mxCell>
        <mxCell id="ncUTmPpRLIX1P5Ny4hpg-4" value="" style="endArrow=none;html=1;rounded=0;sketch=1;hachureGap=4;jiggle=1;curveFitting=1;fontFamily=Architects Daughter;fontSource=https://fonts.googleapis.com/css?family=Architects+Daughter;exitX=1;exitY=0.5;exitDx=0;exitDy=0;strokeColor=#FF0000;disableMultiStroke=1;entryX=0.035;entryY=0.975;entryDx=0;entryDy=0;entryPerimeter=0;" parent="1" source="ncUTmPpRLIX1P5Ny4hpg-2" target="ncUTmPpRLIX1P5Ny4hpg-6" edge="1">
          <mxGeometry width="50" height="50" relative="1" as="geometry">
            <mxPoint x="950" y="1080" as="sourcePoint" />
            <mxPoint x="920" y="1150" as="targetPoint" />
          </mxGeometry>
        </mxCell>
        <mxCell id="ncUTmPpRLIX1P5Ny4hpg-5" value="" style="endArrow=none;html=1;rounded=0;sketch=1;hachureGap=4;jiggle=1;curveFitting=1;fontFamily=Architects Daughter;fontSource=https://fonts.googleapis.com/css?family=Architects+Daughter;exitX=1;exitY=1;exitDx=0;exitDy=0;strokeColor=#FF0000;disableMultiStroke=1;entryX=0;entryY=0.25;entryDx=0;entryDy=0;" parent="1" source="ncUTmPpRLIX1P5Ny4hpg-3" target="ncUTmPpRLIX1P5Ny4hpg-6" edge="1">
          <mxGeometry width="50" height="50" relative="1" as="geometry">
            <mxPoint x="360" y="1478" as="sourcePoint" />
            <mxPoint x="910" y="1140" as="targetPoint" />
          </mxGeometry>
        </mxCell>
        <mxCell id="ncUTmPpRLIX1P5Ny4hpg-6" value="&lt;b&gt;&lt;i&gt;urlMappings &lt;/i&gt;&lt;/b&gt;is set for use by SimpleUrlHandlerMapping" style="text;whiteSpace=wrap;html=1;fontFamily=Architects Daughter;fontSource=https://fonts.googleapis.com/css?family=Architects+Daughter;fontColor=#FF0000;" parent="1" vertex="1">
          <mxGeometry x="620" y="1130" width="229" height="40" as="geometry" />
        </mxCell>
        <mxCell id="ncUTmPpRLIX1P5Ny4hpg-7" value="" style="shape=partialRectangle;whiteSpace=wrap;html=1;bottom=1;right=1;left=1;top=0;fillColor=none;routingCenterX=-0.5;rounded=1;sketch=1;hachureGap=4;jiggle=2;disableMultiStroke=1;disableMultiStrokeFill=1;curveFitting=1;strokeColor=#FF0000;align=center;verticalAlign=middle;fontFamily=Architects Daughter;fontSource=https%3A%2F%2Ffonts.googleapis.com%2Fcss%3Ffamily%3DArchitects%2BDaughter;fontSize=12;fontColor=default;" parent="1" vertex="1">
          <mxGeometry x="148" y="1566" width="118" height="16" as="geometry" />
        </mxCell>
        <mxCell id="ncUTmPpRLIX1P5Ny4hpg-8" value="&lt;b&gt;&lt;i&gt;WebSocketHandler&lt;/i&gt;&lt;/b&gt; is a &lt;font style=&quot;font-weight: bold; font-size: 14px;&quot;&gt;functional interface&lt;/font&gt;&lt;font style=&quot;&quot;&gt;&lt;span style=&quot;font-size: 11px;&quot;&gt;&amp;nbsp;and &lt;/span&gt;&lt;font&gt;as such is implemented directly inline in the bean by the lambda function&lt;/font&gt;&lt;/font&gt;" style="text;whiteSpace=wrap;html=1;fontFamily=Architects Daughter;fontSource=https://fonts.googleapis.com/css?family=Architects+Daughter;fontColor=#FF0000;" parent="1" vertex="1">
          <mxGeometry x="370" y="1490" width="290" height="50" as="geometry" />
        </mxCell>
        <mxCell id="ncUTmPpRLIX1P5Ny4hpg-10" value="" style="endArrow=none;html=1;rounded=0;sketch=1;hachureGap=4;jiggle=1;curveFitting=1;fontFamily=Architects Daughter;fontSource=https://fonts.googleapis.com/css?family=Architects+Daughter;exitX=1;exitY=0.25;exitDx=0;exitDy=0;entryX=0;entryY=1;entryDx=0;entryDy=0;strokeColor=#FF0000;disableMultiStroke=1;" parent="1" source="ncUTmPpRLIX1P5Ny4hpg-7" target="ncUTmPpRLIX1P5Ny4hpg-8" edge="1">
          <mxGeometry width="50" height="50" relative="1" as="geometry">
            <mxPoint x="880" y="1413" as="sourcePoint" />
            <mxPoint x="779" y="1320" as="targetPoint" />
          </mxGeometry>
        </mxCell>
        <mxCell id="ncUTmPpRLIX1P5Ny4hpg-12" value="" style="shape=partialRectangle;whiteSpace=wrap;html=1;bottom=0;right=0;fillColor=none;rounded=1;sketch=1;hachureGap=4;jiggle=2;disableMultiStroke=1;disableMultiStrokeFill=1;curveFitting=1;strokeColor=#FF0000;align=center;verticalAlign=middle;fontFamily=Architects Daughter;fontSource=https%3A%2F%2Ffonts.googleapis.com%2Fcss%3Ffamily%3DArchitects%2BDaughter;fontSize=12;fontColor=default;labelBackgroundColor=default;" parent="1" vertex="1">
          <mxGeometry x="123" y="1612" width="720" height="150" as="geometry" />
        </mxCell>
        <mxCell id="ncUTmPpRLIX1P5Ny4hpg-13" value="" style="shape=partialRectangle;whiteSpace=wrap;html=1;top=0;left=0;fillColor=none;rounded=1;sketch=1;hachureGap=4;jiggle=2;disableMultiStroke=1;disableMultiStrokeFill=1;curveFitting=1;strokeColor=#FF0000;align=center;verticalAlign=middle;fontFamily=Architects Daughter;fontSource=https%3A%2F%2Ffonts.googleapis.com%2Fcss%3Ffamily%3DArchitects%2BDaughter;fontSize=12;fontColor=default;labelBackgroundColor=default;" parent="1" vertex="1">
          <mxGeometry x="123" y="1630" width="727" height="150" as="geometry" />
        </mxCell>
        <mxCell id="ncUTmPpRLIX1P5Ny4hpg-14" value="&lt;b style=&quot;font-style: italic;&quot;&gt;Lambda Function&lt;/b&gt; implementing the &lt;b style=&quot;font-style: italic;&quot;&gt;WebSocketHandler &lt;/b&gt;interface" style="text;whiteSpace=wrap;html=1;fontFamily=Architects Daughter;fontSource=https://fonts.googleapis.com/css?family=Architects+Daughter;fontColor=#FF0000;" parent="1" vertex="1">
          <mxGeometry x="740" y="1500" width="110" height="60" as="geometry" />
        </mxCell>
        <mxCell id="ncUTmPpRLIX1P5Ny4hpg-15" value="" style="endArrow=none;html=1;rounded=0;sketch=1;hachureGap=4;jiggle=1;curveFitting=1;fontFamily=Architects Daughter;fontSource=https://fonts.googleapis.com/css?family=Architects+Daughter;exitX=0.75;exitY=0;exitDx=0;exitDy=0;entryX=0.25;entryY=1;entryDx=0;entryDy=0;strokeColor=#FF0000;disableMultiStroke=1;" parent="1" source="ncUTmPpRLIX1P5Ny4hpg-12" target="ncUTmPpRLIX1P5Ny4hpg-14" edge="1">
          <mxGeometry width="50" height="50" relative="1" as="geometry">
            <mxPoint x="843" y="1614" as="sourcePoint" />
            <mxPoint x="1356" y="1364" as="targetPoint" />
          </mxGeometry>
        </mxCell>
      </root>
    </mxGraphModel>
  </diagram>
</mxfile>
